<?xml version="1.0" standalone="no"?>
<!DOCTYPE svg PUBLIC "-//W3C//DTD SVG 1.1//EN" "http://www.w3.org/Graphics/SVG/1.1/DTD/svg11.dtd" >
<svg xmlns="http://www.w3.org/2000/svg">
<metadata>Generated by IcoMoon</metadata>
<defs>
<font id="icomoon" horiz-adv-x="1024">
<font-face units-per-em="1024" ascent="960" descent="-64" />
<missing-glyph horiz-adv-x="1024" />
<glyph unicode="&#x20;" horiz-adv-x="512" d="" />
<glyph unicode="&#xe900;" glyph-name="actividad" d="M910.4 324.8l113.6 35.2v176l-113.6 36.8c-8 25.6-17.6 49.6-30.4 73.6l54.4 104-123.2 121.6-102.4-54.4c-22.4 12.8-46.4 22.4-72 30.4l-35.2 112h-176l-36.8-110.4c-27.2-8-52.8-19.2-78.4-32l-102.4 54.4-123.2-123.2 54.4-102.4c-12.8-25.6-24-51.2-32-80l-107.2-33.6v-172.8l107.2-32c8-27.2 19.2-52.8 32-76.8l-54.4-102.4 124.8-123.2 104 52.8c24-12.8 49.6-24 76.8-30.4l35.2-108.8h172.8l33.6 112c25.6 8 49.6 17.6 73.6 30.4l102.4-54.4 123.2 124.8-51.2 100.8c12.8 22.4 22.4 46.4 30.4 72zM512 158.4c-160 0-289.6 129.6-289.6 289.6s129.6 289.6 289.6 289.6c160 0 289.6-129.6 289.6-289.6s-129.6-289.6-289.6-289.6zM320 494.4v-64h97.6c11.2 0 22.4 6.4 28.8 16l22.4 35.2 46.4-155.2c8-28.8 48-32 60.8-4.8l52.8 108.8h75.2v64h-102.4c-8 0-14.4-4.8-17.6-11.2l-30.4-59.2-43.2 145.6c-8 27.2-44.8 30.4-57.6 6.4l-48-83.2-84.8 1.6z" />
<glyph unicode="&#xe901;" glyph-name="agricola" horiz-adv-x="1398" d="M763.2 262.4h-116.8l-36.8 320h25.6l33.6-291.2h97.6c27.2 161.6 169.6 284.8 342.4 284.8 60.8 0 116.8-14.4 166.4-41.6l-36.8 344h38.4v80h-665.6l1.6-81.6 44.8-1.6-64-259.2c-102.4 1.6-190.4-1.6-267.2-6.4v36.8c19.2 4.8 33.6 22.4 33.6 43.2v67.2c0 20.8-14.4 38.4-35.2 43.2 0 24 3.2 57.6 25.6 60.8l-11.2 35.2c0 0-54.4-19.2-54.4-64v-32c-20.8-3.2-38.4-22.4-38.4-44.8v-67.2c0-22.4 16-41.6 38.4-44.8v-38.4c-187.2-14.4-284.8-43.2-284.8-43.2v-275.2l35.2-44.8c41.6 83.2 126.4 140.8 225.6 140.8 131.2 0 240-102.4 249.6-230.4h262.4c-6.4 27.2-11.2 56-11.2 84.8 0 8 1.6 16 1.6 25.6zM1048 878.4h84.8l38.4-264h-123.2v264zM702.4 878.4h296v-264h-209.6l-57.6 70.4c-8 9.6-20.8 11.2-30.4 3.2-8-6.4-9.6-16-3.2-24l41.6-51.2h-94.4l57.6 265.6zM270.4 425.6h-147.2v22.4h147.2v-22.4zM270.4 468.8h-147.2v20.8h147.2v-20.8zM270.4 512h-147.2v20.8h147.2v-20.8zM254.4 334.4c-110.4 0-198.4-89.6-198.4-198.4s89.6-198.4 198.4-198.4 198.4 89.6 198.4 198.4-88 198.4-198.4 198.4zM254.4 40c-52.8 0-97.6 43.2-97.6 97.6s43.2 97.6 97.6 97.6 97.6-43.2 97.6-97.6-43.2-97.6-97.6-97.6zM254.4 193.6c-32 0-56-25.6-56-56 0-32 25.6-56 56-56 32 0 56 25.6 56 56 1.6 30.4-24 56-56 56zM254.4 108.8c-14.4 0-27.2 12.8-27.2 27.2s12.8 27.2 27.2 27.2c14.4 0 27.2-12.8 27.2-27.2s-11.2-27.2-27.2-27.2zM1379.2 260.8c-1.6 24-6.4 46.4-12.8 67.2 9.6 4.8 12.8 16 9.6 27.2-4.8 9.6-16 16-25.6 12.8-11.2 20.8-24 40-38.4 57.6 6.4 8 6.4 20.8-1.6 28.8s-20.8 8-28.8 1.6c-17.6 14.4-36.8 27.2-57.6 38.4 3.2 9.6-1.6 20.8-12.8 25.6-9.6 4.8-22.4 0-27.2-9.6-20.8 6.4-44.8 11.2-67.2 12.8-1.6 11.2-9.6 19.2-20.8 19.2v0c-11.2 0-20.8-8-20.8-19.2-24-1.6-46.4-6.4-67.2-12.8-4.8 9.6-16 12.8-27.2 9.6v0c-9.6-4.8-16-16-12.8-25.6-20.8-11.2-40-24-57.6-38.4-8 6.4-20.8 6.4-28.8-1.6v0c-8-8-8-20.8-1.6-28.8-14.4-17.6-27.2-36.8-38.4-57.6-9.6 3.2-20.8-1.6-25.6-12.8v0c-4.8-9.6 0-22.4 9.6-27.2-6.4-20.8-11.2-44.8-12.8-67.2-11.2-1.6-19.2-9.6-19.2-20.8s8-20.8 19.2-20.8c1.6-24 6.4-46.4 12.8-67.2-9.6-4.8-12.8-16-9.6-27.2 4.8-9.6 16-16 25.6-12.8 11.2-20.8 24-40 38.4-57.6-6.4-8-6.4-20.8 1.6-28.8s20.8-8 28.8-1.6c17.6-14.4 36.8-27.2 57.6-38.4-3.2-9.6 1.6-20.8 12.8-25.6 9.6-4.8 22.4 0 27.2 9.6 20.8-6.4 44.8-11.2 67.2-12.8 1.6-11.2 9.6-19.2 20.8-19.2v0c11.2 0 20.8 8 20.8 19.2 24 1.6 46.4 6.4 67.2 12.8 4.8-9.6 16-12.8 27.2-9.6v0c9.6 4.8 16 16 12.8 25.6 20.8 11.2 40 24 57.6 38.4 8-6.4 20.8-6.4 28.8 1.6v0c8 8 8 20.8 1.6 28.8 14.4 17.6 27.2 36.8 38.4 57.6 9.6-3.2 20.8 1.6 25.6 12.8v0c4.8 9.6 0 22.4-9.6 27.2 6.4 20.8 11.2 44.8 12.8 67.2 11.2 1.6 19.2 9.6 19.2 20.8s-9.6 19.2-19.2 20.8zM1096 54.4c-102.4 0-185.6 83.2-185.6 185.6s83.2 185.6 185.6 185.6c102.4 0 185.6-83.2 185.6-185.6s-83.2-185.6-185.6-185.6zM1096 360c-67.2 0-120-54.4-120-120s54.4-120 120-120c67.2 0 120 54.4 120 120s-54.4 120-120 120zM1096 187.2c-28.8 0-52.8 24-52.8 52.8s24 52.8 52.8 52.8c28.8 0 52.8-24 52.8-52.8s-24-52.8-52.8-52.8z" />
<glyph unicode="&#xe902;" glyph-name="alquileres" horiz-adv-x="1086" d="M460.8 950.4c-11.2 11.2-28.8 11.2-40 0l-57.6-57.6-347.2-348.8c-20.8-20.8-20.8-56 0-76.8v0c20.8-20.8 56-20.8 76.8 0l308.8 310.4c20.8 20.8 56 20.8 76.8 0l161.6-161.6c41.6 14.4 86.4 22.4 131.2 24l-310.4 310.4zM598.4 596.8l-150.4 150.4c-3.2 3.2-9.6 3.2-12.8 0l-318.4-316.8v-230.4c0-49.6 40-89.6 89.6-89.6h89.6v260.8l102.4 1.6c35.2 97.6 107.2 179.2 200 224zM1060.8 334.4h-27.2c-11.2 0-20.8 6.4-24 17.6-4.8 14.4-9.6 27.2-16 40-4.8 9.6-3.2 22.4 4.8 30.4l19.2 19.2c9.6 9.6 9.6 27.2 0 36.8l-54.4 54.4c-9.6 9.6-27.2 9.6-36.8 0l-20.8-20.8c-8-8-20.8-9.6-30.4-4.8-12.8 6.4-27.2 12.8-40 16-11.2 3.2-17.6 12.8-17.6 24v28.8c0 14.4-11.2 25.6-25.6 25.6h-76.8c-14.4 0-25.6-11.2-25.6-25.6v-27.2c0-11.2-6.4-20.8-17.6-24-14.4-4.8-27.2-9.6-40-16-9.6-4.8-22.4-3.2-30.4 4.8l-19.2 19.2c-9.6 9.6-27.2 9.6-36.8 0l-54.4-54.4c-9.6-9.6-9.6-27.2 0-36.8l19.2-19.2c8-8 9.6-20.8 4.8-30.4-6.4-12.8-12.8-27.2-16-40-3.2-11.2-12.8-17.6-24-17.6h-27.2c-14.4 0-25.6-11.2-25.6-25.6v-76.8c0-14.4 11.2-25.6 25.6-25.6h27.2c11.2 0 20.8-6.4 24-17.6 4.8-14.4 9.6-27.2 16-40 4.8-9.6 3.2-22.4-4.8-30.4l-19.2-19.2c-9.6-9.6-9.6-27.2 0-36.8l54.4-54.4c9.6-9.6 27.2-9.6 36.8 0l19.2 19.2c8 8 20.8 9.6 30.4 4.8 12.8-6.4 27.2-12.8 40-16 11.2-3.2 17.6-12.8 17.6-24v-27.2c0-14.4 11.2-25.6 25.6-25.6h76.8c14.4 0 25.6 11.2 25.6 25.6v27.2c0 11.2 6.4 20.8 17.6 24 14.4 4.8 27.2 9.6 40 16 9.6 4.8 22.4 3.2 30.4-4.8l19.2-19.2c9.6-9.6 27.2-9.6 36.8 0l54.4 54.4c9.6 9.6 9.6 27.2 0 36.8l-19.2 19.2c-8 8-9.6 20.8-4.8 30.4 6.4 12.8 12.8 27.2 16 40 3.2 11.2 12.8 17.6 24 17.6h27.2c14.4 0 25.6 11.2 25.6 25.6v76.8c1.6 12.8-9.6 25.6-24 25.6zM884.8 358.4c0-3.2-1.6-4.8-3.2-8-1.6-1.6-3.2-3.2-4.8-4.8s-4.8-1.6-6.4-1.6-9.6 1.6-14.4 6.4c-4.8 3.2-12.8 8-20.8 12.8s-19.2 8-32 12.8c-12.8 3.2-27.2 6.4-46.4 6.4-14.4 0-28.8-1.6-41.6-6.4s-24-11.2-33.6-20.8c-9.6-9.6-17.6-20.8-24-36.8-6.4-14.4-8-33.6-8-54.4s3.2-38.4 8-52.8c6.4-14.4 14.4-27.2 24-35.2 9.6-9.6 22.4-16 36.8-20.8s28.8-6.4 44.8-6.4c16 0 30.4 1.6 43.2 6.4 12.8 3.2 22.4 8 30.4 12.8s16 9.6 22.4 12.8c6.4 3.2 11.2 6.4 14.4 6.4 1.6 0 4.8 0 4.8-1.6 1.6-1.6 3.2-3.2 3.2-4.8 1.6-1.6 1.6-4.8 1.6-8s0-6.4 0-11.2c0-6.4 0-12.8-1.6-16s-3.2-6.4-6.4-9.6c-3.2-3.2-8-4.8-14.4-8s-12.8-6.4-20.8-9.6c-8-3.2-16-6.4-25.6-8s-19.2-4.8-30.4-4.8v-48c0-1.6 0-3.2-1.6-4.8s-3.2-3.2-4.8-3.2-6.4-1.6-9.6-1.6c-4.8 0-9.6 0-16 0s-11.2 0-16 0c-4.8 0-8 1.6-9.6 1.6-3.2 1.6-4.8 1.6-4.8 3.2-1.6 1.6-1.6 3.2-1.6 4.8v48c-49.6 4.8-86.4 20.8-110.4 46.4-25.6 27.2-36.8 64-36.8 112 0 25.6 3.2 48 11.2 67.2s17.6 35.2 30.4 49.6c12.8 12.8 28.8 24 46.4 32s38.4 12.8 59.2 16v48c0 1.6 0 3.2 1.6 4.8s3.2 3.2 4.8 3.2 6.4 1.6 9.6 1.6c3.2 0 9.6 0 14.4 0 6.4 0 11.2 0 16 0s8-1.6 9.6-1.6c3.2-1.6 4.8-1.6 4.8-3.2 1.6-1.6 1.6-3.2 1.6-4.8v-48c8 0 16-1.6 24-3.2s16-4.8 24-6.4c8-3.2 14.4-4.8 22.4-9.6 6.4-3.2 12.8-6.4 16-9.6s6.4-4.8 8-6.4c1.6-1.6 3.2-3.2 3.2-4.8 1.6-1.6 1.6-4.8 1.6-6.4 0-3.2 0-6.4 0-9.6 4.8-9.6 3.2-12.8 3.2-14.4z" />
<glyph unicode="&#xe903;" glyph-name="arte" horiz-adv-x="1030" d="M932.8 659.2c-19.2-9.6-27.2-33.6-20.8-54.4 17.6-48 27.2-99.2 27.2-152 0 0-1.6-64-30.4-80 0 0-32-20.8-86.4 6.4 0 0-46.4 25.6-67.2 28.8 0 0-131.2 28.8-196.8-81.6 0 0-41.6-73.6-4.8-147.2 0 0 25.6-33.6 35.2-68.8 0 0 17.6-72-41.6-84.8 0 0-44.8-3.2-75.2 0-219.2 17.6-392 203.2-390.4 430.4 1.6 236.8 192 425.6 428.8 425.6 51.2 0 100.8-9.6 147.2-25.6 19.2-6.4 38.4 1.6 48 19.2 9.6 20.8-1.6 46.4-22.4 52.8-54.4 19.2-112 30.4-172.8 30.4-281.6 0-508.8-227.2-510.4-508.8-1.6-270.4 208-492.8 473.6-512v0c0 0 73.6-9.6 108.8 11.2 0 0 81.6 38.4 88 121.6 0 0 11.2 41.6-28.8 112 0 0-27.2 33.6-17.6 92.8 0 0 17.6 46.4 65.6 57.6 0 0 41.6 6.4 124.8-38.4 0 0 94.4-38.4 168 41.6 0 0 38.4 27.2 38.4 128-1.6 60.8-14.4 120-36.8 174.4-8 22.4-32 30.4-51.2 20.8zM278.4 268.8c-16-16-16-41.6 0-57.6v0c16-16 41.6-16 57.6 0l518.4 516.8c30.4-4.8 104-9.6 137.6 68.8 0 0 27.2 54.4 35.2 123.2 3.2 25.6-22.4 46.4-46.4 35.2s-54.4-20.8-84.8-20.8c0 0-80-6.4-107.2-59.2 0 0-27.2-56 1.6-97.6l-512-508.8zM569.6 744c0 32-25.6 57.6-57.6 57.6s-57.6-25.6-57.6-57.6c0-32 25.6-57.6 57.6-57.6 32-1.6 57.6 25.6 57.6 57.6zM356.8 644.8c0-31.812-25.788-57.6-57.6-57.6s-57.6 25.788-57.6 57.6c0 31.812 25.788 57.6 57.6 57.6s57.6-25.788 57.6-57.6zM163.2 433.6c0-32 25.6-57.6 57.6-57.6s57.6 25.6 57.6 57.6c0 32-25.6 57.6-57.6 57.6s-57.6-25.6-57.6-57.6z" />
<glyph unicode="&#xe904;" glyph-name="audio_video" horiz-adv-x="1386" d="M1041.6 625.6c-190.4 0-344-153.6-344-344s153.6-345.6 344-345.6 344 153.6 344 344-153.6 345.6-344 345.6zM1243.2 166.4v0c0 0 0 0 0 0 0-33.6-36.8-60.8-81.6-60.8s-81.6 25.6-81.6 59.2c0 32 36.8 59.2 81.6 59.2 14.4 0 27.2-3.2 38.4-6.4v168l-219.2-25.6-1.6-204.8c0-3.2 1.6-6.4 1.6-9.6 0-32-36.8-59.2-81.6-59.2s-81.6 25.6-81.6 59.2 36.8 59.2 81.6 59.2c12.8 0 24-1.6 35.2-6.4v243.2l308.8 33.6v-308.8zM376 513.6v390.4h614.4v-257.6c12.8 1.6 27.2 3.2 40 3.2v299.2h-694.4v-480h392c8 16 19.2 30.4 30.4 44.8h-382.4zM763.2 779.2l-83.2-131.2-88 44.8-129.6-131.2h337.6c20.8 19.2 44.8 35.2 70.4 48l-107.2 169.6zM596.8 793.6c0-37.114-30.086-67.2-67.2-67.2s-67.2 30.086-67.2 67.2c0 37.114 30.086 67.2 67.2 67.2s67.2-30.086 67.2-67.2zM518.4 420.8h-388.8v256h174.4v46.4h-304v-649.6h649.6v371.2h-131.2v-24zM83.2 116.8h-41.6c-12.8 0-22.4 9.6-22.4 22.4s9.6 22.4 22.4 22.4h41.6c12.8 0 22.4-9.6 22.4-22.4s-9.6-22.4-22.4-22.4zM83.2 201.6h-41.6c-12.8 0-22.4 9.6-22.4 22.4s9.6 22.4 22.4 22.4h41.6c12.8 0 22.4-9.6 22.4-22.4s-9.6-22.4-22.4-22.4zM83.2 286.4h-41.6c-12.8 0-22.4 9.6-22.4 22.4s9.6 22.4 22.4 22.4h41.6c12.8 0 22.4-9.6 22.4-22.4s-9.6-22.4-22.4-22.4zM83.2 377.6h-41.6c-12.8 0-22.4 9.6-22.4 22.4s9.6 22.4 22.4 22.4h41.6c12.8 0 22.4-9.6 22.4-22.4s-9.6-22.4-22.4-22.4zM83.2 467.2h-41.6c-12.8 0-22.4 9.6-22.4 22.4s9.6 22.4 22.4 22.4h41.6c12.8 0 22.4-9.6 22.4-22.4s-9.6-22.4-22.4-22.4zM83.2 548.8h-41.6c-12.8 0-22.4 9.6-22.4 22.4s9.6 20.8 22.4 20.8h41.6c12.8 0 22.4-9.6 22.4-22.4s-9.6-20.8-22.4-20.8zM83.2 633.6h-41.6c-12.8 0-22.4 9.6-22.4 22.4s9.6 22.4 22.4 22.4h41.6c12.8 0 22.4-9.6 22.4-22.4s-9.6-22.4-22.4-22.4zM518.4 116.8h-388.8v262.4h388.8v-262.4zM604.8 112h-41.6c-12.8 0-22.4 9.6-22.4 22.4s9.6 22.4 22.4 22.4h41.6c12.8 0 22.4-9.6 22.4-22.4s-11.2-22.4-22.4-22.4zM561.6 416h41.6c12.8 0 22.4-9.6 22.4-22.4s-9.6-22.4-22.4-22.4h-41.6c-12.8 0-22.4 9.6-22.4 22.4s9.6 22.4 22.4 22.4zM561.6 324.8h41.6c12.8 0 22.4-9.6 22.4-22.4s-9.6-22.4-22.4-22.4h-41.6c-12.8 0-22.4 9.6-22.4 22.4s9.6 22.4 22.4 22.4zM561.6 240h41.6c12.8 0 22.4-9.6 22.4-22.4s-9.6-22.4-22.4-22.4h-41.6c-12.8 0-22.4 9.6-22.4 22.4s9.6 22.4 22.4 22.4z" />
<glyph unicode="&#xe905;" glyph-name="autos_motos" horiz-adv-x="1046" d="M190.4 203.2c-22.4 30.4-40 64-54.4 99.2-9.6 27.2-24 123.2 235.2 64 0 0-62.4 105.6 33.6 209.6 0 0-214.4-65.6-244.8-62.4 0 0-48-8-30.4 70.4 19.2 54.4 48 105.6 86.4 147.2l-6.4 4.8-75.2 62.4c-83.2-92.8-134.4-214.4-134.4-348.8 0-113.6 36.8-219.2 99.2-305.6l9.6 6.4 72 46.4 9.6 6.4zM913.6 798.4l-9.6-8-65.6-56-8-6.4c38.4-41.6 67.2-91.2 84.8-144v0c17.6-78.4-30.4-70.4-30.4-70.4-30.4-3.2-244.8 62.4-244.8 62.4 96-104 33.6-209.6 33.6-209.6 302.4 68.8 233.6-70.4 233.6-70.4v0c-12.8-32-30.4-62.4-51.2-91.2l81.6-54.4 8-6.4c62.4 86.4 99.2 192 99.2 307.2 1.6 132.8-48 254.4-131.2 347.2zM523.2 873.6c120 0 227.2-49.6 304-128l65.6 56c-91.2 97.6-224 158.4-369.6 158.4s-276.8-60.8-369.6-158.4l67.2-54.4c76.8 78.4 184 126.4 302.4 126.4zM523.2 22.4c-136 0-256 64-334.4 161.6l-72-46.4c92.8-123.2 241.6-201.6 406.4-201.6 166.4 0 313.6 78.4 406.4 201.6l-72 48c-76.8-99.2-198.4-163.2-334.4-163.2zM377.6 60.8c0 0 137.6-57.6 294.4 0 0 0-163.2-20.8-62.4 241.6 0 0-70.4-62.4-177.6 0 0 0 115.2-238.4-54.4-241.6zM523.2 608c-88 0-160-72-160-160s72-160 160-160 160 72 160 160c0 88-72 160-160 160zM523.2 328c-65.6 0-120 54.4-120 120s54.4 120 120 120 120-54.4 120-120-52.8-120-120-120zM579.2 492.8h-110.4c-11.2 0-20.8-9.6-20.8-20.8v-46.4c0-11.2 9.6-20.8 20.8-20.8h110.4c11.2 0 20.8 9.6 20.8 20.8v46.4c-1.6 11.2-9.6 20.8-20.8 20.8z" />
<glyph unicode="&#xe906;" glyph-name="bazar" horiz-adv-x="906" d="M905.6-11.2l-65.6 670.4c-3.2 24-24 43.2-48 43.2h-144v73.6c-1.6 102.4-84.8 184-187.2 184h-9.6c-107.2 0-193.6-84.8-193.6-190.4v-65.6h-150.4c-25.6 0-46.4-19.2-48-43.2l-59.2-672c-1.6-28.8 20.8-52.8 48-52.8h808c30.4 0 52.8 24 49.6 52.8zM320 771.2c0 70.4 57.6 126.4 129.6 126.4h12.8c67.2 0 123.2-54.4 123.2-121.6v-72h-265.6v67.2zM65.6-1.6l57.6 641.6h134.4v-73.6c-19.2-11.2-33.6-32-33.6-56 0-35.2 28.8-64 64-64s64 28.8 64 64c0 24-12.8 44.8-33.6 56v73.6h264v-73.6c-19.2-11.2-33.6-32-33.6-56 0-35.2 28.8-64 64-64s64 28.8 64 64c0 24-12.8 44.8-33.6 56v73.6h131.2l59.2-641.6h-768z" />
<glyph unicode="&#xe907;" glyph-name="belleza" horiz-adv-x="906" d="M488 524.8c-6.4 0-11.2-1.6-16-3.2-9.6-4.8-16-14.4-16-25.6 0-16 14.4-28.8 32-28.8 12.8 0 22.4 6.4 28.8 16 1.6 3.2 3.2 8 3.2 12.8 0 16-14.4 28.8-32 28.8zM488 475.2c-12.8 0-22.4 8-24 19.2h48c-1.6-11.2-11.2-19.2-24-19.2zM462.4 499.2c1.6 11.2 11.2 19.2 24 19.2s24-8 24-19.2h-48zM388.8 752c0 0-80 108.8-203.2 185.6 0 0-73.6 49.6-102.4 0l-83.2-124.8 94.4 86.4c9.6 8 24-3.2 16-12.8l-78.4-97.6 91.2 80c8 8 22.4-3.2 14.4-11.2l-88-99.2 97.6 86.4c9.6 8 24-3.2 16-12.8l-81.6-96 92.8 84.8c9.6 8 24-3.2 16-12.8l-81.6-99.2 89.6 84.8c8 8 20.8-3.2 14.4-11.2l-78.4-92.8 88 78.4c9.6 9.6 25.6-3.2 17.6-14.4l-81.6-96 96 84.8c9.6 8 24-3.2 16-12.8l-86.4-99.2 99.2 89.6c9.6 8 24-3.2 16-12.8l-84.8-102.4 91.2 86.4c8 8 20.8-1.6 14.4-11.2l-78.4-94.4 96 83.2c9.6 8 22.4-3.2 14.4-12.8l-81.6-94.4 94.4 81.6c8 8 22.4-3.2 14.4-11.2l-88-100.8 97.6 86.4c8 8 20.8-3.2 14.4-11.2l-83.2-94.4 94.4 84.8c8 6.4 20.8-3.2 12.8-11.2l-80-94.4c0 0 43.2 32 84.8 36.8l89.6 83.2c-51.2 49.6-99.2 99.2-132.8 140.8zM856 308.8c0 0-123.2 104-249.6 222.4l-60.8-73.6c65.6-62.4 160-161.6 204.8-243.2 0 0 41.6-73.6 67.2-73.6 0 0 64 11.2 81.6 60.8 1.6-1.6 30.4 56-43.2 107.2zM241.6 315.2c0 0 3.2 32 25.6 46.4 0 0 72 52.8 152 75.2l6.4 60.8-166.4-107.2c0 0-27.2-24-60.8-12.8 0 0-121.6 36.8-169.6-67.2 0 0-28.8-49.6 25.6-97.6 0 0 57.6-52.8 142.4 8 1.6-1.6 33.6 16 44.8 94.4zM158.4 224c-44.8-19.2-92.8-6.4-107.2 28.8s9.6 78.4 54.4 97.6c44.8 19.2 92.8 6.4 107.2-28.8s-11.2-78.4-54.4-97.6zM872 899.2c-68.8-52.8-219.2-192-324.8-289.6l-94.4-89.6c-11.2-11.2-17.6-16-17.6-16 4.8-120-96-241.6-96-241.6-4.8-11.2-60.8-22.4-60.8-22.4-96-32-84.8-123.2-84.8-123.2 6.4-40 52.8-67.2 52.8-67.2l-25.6-91.2c-3.2-9.6 4.8-19.2 16-20.8 9.6-1.6 17.6 3.2 19.2 12.8l19.2 94.4c72 0 100.8 52.8 100.8 52.8 30.4 49.6 6.4 116.8 6.4 116.8-4.8 43.2 51.2 153.6 51.2 153.6l83.2 97.6 89.6 105.6 275.2 320-9.6 8zM355.2 110.4c-22.4-35.2-70.4-51.2-104-32-35.2 17.6-44.8 62.4-20.8 97.6 22.4 35.2 70.4 51.2 104 32 33.6-17.6 43.2-60.8 20.8-97.6zM516.8 483.2c-4.8-9.6-16-16-28.8-16-17.6 0-32 12.8-32 28.8 0 11.2 6.4 20.8 16 25.6 4.8 1.6 9.6 3.2 16 3.2 17.6 0 32-12.8 32-28.8 0-3.2-1.6-8-3.2-12.8z" />
<glyph unicode="&#xe908;" glyph-name="bienestar" horiz-adv-x="1138" d="M873.6 313.6c0-1.6-3.2-3.2-4.8-1.6l-49.6 46.4c-4.8 4.8-14.4 3.2-16-4.8l-78.4-259.2c-4.8-17.6-19.2-30.4-36.8-33.6v0c-27.2-4.8-54.4 12.8-60.8 40l-110.4 558.4c0 3.2-4.8 3.2-4.8 0l-94.4-280-20.8-60.8c-4.8-12.8-19.2-16-28.8-6.4l-44.8 43.2-3.2 1.6c-11.2 11.2-28.8 9.6-40-1.6l-38.4-38.4c-8-8-20.8-12.8-32-12.8h-75.2c148.8-196.8 435.2-369.6 435.2-369.6 0 1.6 38.4 25.6 40 27.2 27.2 16 254.4 160 395.2 345.6h-124.8c-4.8 1.6-6.4 3.2-6.4 6.4zM1070.4 841.6c-38.4 49.6-96 96-185.6 115.2 0 0-216 36.8-315.2-128 0 0 0-1.6 0-3.2v-1.6c-99.2 164.8-315.2 128-315.2 128-88-17.6-147.2-64-185.6-115.2-59.2-76.8-80-177.6-59.2-273.6 14.4-68.8 43.2-131.2 70.4-176h118.4l86.4 86.4c8 8 22.4 8 32 0l33.6-30.4c1.6-1.6 3.2 0 4.8 1.6l118.4 355.2c9.6 27.2 38.4 41.6 65.6 33.6v0c16-4.8 28.8-19.2 32-36.8l108.8-547.2c0-3.2 4.8-3.2 4.8 0l70.4 227.2c4.8 17.6 27.2 22.4 40 11.2v0l36.8-33.6 65.6-60.8c1.6-1.6 1.6-3.2 1.6-4.8h158.4c25.6 44.8 56 107.2 72 179.2 19.2 96 0 196.8-59.2 273.6z" />
<glyph unicode="&#xe909;" glyph-name="buscar" d="M1012.852 10.849l-33.443 35.036c-1.593 1.593-3.185 4.778-4.778 6.37l-211.807 210.215c143.328 175.179 124.218 437.947-52.554 592.423-164.031 141.736-410.874 140.143-570.128-6.37-181.549-165.624-186.327-447.502-14.333-621.089 156.068-156.068 402.911-167.216 571.72-30.258l211.807-211.807c1.593-1.593 3.185-3.185 6.37-4.778l33.443-33.443c15.925-15.925 42.998-15.925 60.516 0l4.778 4.778c12.74 17.518 12.74 42.998-1.593 58.924zM680.012 305.468c-133.773-148.106-367.876-148.106-501.649 0-116.255 127.403-116.255 324.877 0 452.28 133.773 148.106 367.876 148.106 501.649 0 114.663-127.403 114.663-324.877 0-452.28z" />
<glyph unicode="&#xe90a;" glyph-name="carta" horiz-adv-x="1332" d="M1331.985 846.222c0 31.387-13.732 58.851-33.349 78.467-21.579 21.579-51.004 35.31-84.352 35.31h-1096.582c-33.349 0-62.774-13.732-84.352-35.31-19.617-19.617-33.349-49.042-33.349-78.467 0 0 0-1.962 0-1.962v-788.598c0-64.736 52.966-117.701 117.701-117.701h1096.582c64.736 0 117.701 52.966 117.701 117.701v786.636c0 1.962 0 1.962 0 3.923zM78.467 59.586c0 0 0 0 0 0v708.169l353.103-353.103-353.103-355.065zM137.318 10.544l347.218 347.218 74.544-74.544c58.851-58.851 153.011-58.851 211.862 0l74.544 74.544 347.218-347.218h-1055.387zM1257.441 771.678v-710.13c0-1.962 0-1.962 0-3.923l-357.027 357.027 357.027 357.027v60.812c0 13.732-5.885 27.464-15.693 37.272l-513.962-515.923c-35.31-35.31-90.238-35.31-125.548 0l-510.038 512c9.808 9.808 21.579 13.732 35.31 13.732v0h1080.889c13.732 0 23.54-5.885 33.349-13.732 9.808-9.808 15.693-21.579 15.693-37.272v-56.889zM127.51 879.571v0c-13.732 0-25.502-5.885-35.31-13.732v0 0c9.808 9.808 21.579 13.732 35.31 13.732z" />
<glyph unicode="&#xe90b;" glyph-name="categorias" horiz-adv-x="1030" d="M380.8 476.8h-278.4c-56 0-102.4 46.4-102.4 102.4v278.4c0 56 46.4 102.4 102.4 102.4h280c56 0 102.4-46.4 102.4-102.4v-280c-1.6-56-46.4-100.8-104-100.8zM928 476.8h-278.4c-56 0-102.4 46.4-102.4 102.4v278.4c0 56 44.8 102.4 102.4 102.4h278.4c56 0 102.4-46.4 102.4-102.4v-280c0-56-46.4-100.8-102.4-100.8zM380.8-64h-278.4c-56 0-102.4 46.4-102.4 102.4v278.4c0 56 46.4 102.4 102.4 102.4h280c56 0 102.4-46.4 102.4-102.4v-280c-1.6-54.4-46.4-100.8-104-100.8zM928-64h-278.4c-56 0-102.4 46.4-102.4 102.4v278.4c0 56 46.4 102.4 102.4 102.4h278.4c56 0 102.4-46.4 102.4-102.4v-280c0-54.4-46.4-100.8-102.4-100.8z" />
<glyph unicode="&#xe90c;" glyph-name="cerrar" d="M1022.407 821.449l-135.365 135.365-374.246-374.246-377.431 377.431-135.365-135.365 377.431-377.431-377.431-377.431 135.365-135.365 377.431 375.838 374.246-372.653 135.365 135.365-372.653 374.246z" />
<glyph unicode="&#xe90d;" glyph-name="ciclo" horiz-adv-x="1830" d="M1438.4 710.4c-52.8 0-104-11.2-150.4-28.8l-99.2 193.6c-3.2 6.4 1.6 14.4 8 14.4h137.6c17.6 0 32-14.4 32-30.4 0-12.8-9.6-24-22.4-24l-49.6-1.6c-17.6 0-32-16-32-33.6v0c1.6-19.2 17.6-33.6 36.8-33.6h38.4c49.6 0 89.6 41.6 89.6 91.2 0 56-46.4 102.4-102.4 102.4h-158.4c-41.6 0-68.8-44.8-49.6-83.2l38.4-72-448-1.6-46.4 86.4h75.2c16 0 32 11.2 35.2 27.2 4.8 22.4-12.8 41.6-33.6 41.6h-212.8c-16 0-32-11.2-35.2-27.2-4.8-22.4 12.8-41.6 33.6-41.6h64l62.4-116.8-70.4-108.8c-56 30.4-120 46.4-187.2 46.4-216 0-392-172.8-392-385.6s176-385.6 392-385.6c206.4 0 376 156.8 392 355.2h92.8l-32-120h-24c-16 0-30.4-12.8-30.4-30.4 0-16 12.8-28.8 28.8-28.8h124.8c16 0 28.8 12.8 28.8 28.8 0 14.4-11.2 27.2-27.2 27.2l-36.8 1.6 38.4 136 257.6 395.2 27.2-52.8c-112-67.2-185.6-188.8-185.6-326.4 0-212.8 176-385.6 392-385.6s392 172.8 392 385.6c0 212.8-174.4 385.6-392 385.6zM395.2 1.6c-177.6 0-323.2 144-323.2 323.2s144 323.2 323.2 323.2c54.4 0 105.6-12.8 150.4-36.8l-164.8-256c-17.6-27.2 1.6-60.8 33.6-60.8h300.8c-14.4-164.8-152-292.8-320-292.8zM715.2 361.6h-259.2l139.2 216c64-52.8 108.8-128 120-216zM782.4 361.6c-11.2 110.4-68.8 206.4-153.6 270.4l51.2 80 177.6-350.4h-75.2zM923.2 388.8l-176 350.4h406.4l-230.4-350.4zM1441.6 0c-177.6 0-323.2 144-323.2 323.2 0 112 57.6 211.2 144 268.8l145.6-284.8c9.6-17.6 30.4-25.6 49.6-16 14.4 6.4 19.2 24 11.2 36.8l-150.4 291.2c38.4 16 78.4 24 121.6 24 177.6 0 323.2-144 323.2-323.2s-144-320-321.6-320z" />
<glyph unicode="&#xe90e;" glyph-name="comida" horiz-adv-x="1082" d="M668.8 465.6v51.2c0 35.2-28.8 65.6-65.6 65.6h-51.2c-35.2 0-65.6-28.8-65.6-65.6v-51.2c0-35.2 28.8-65.6 65.6-65.6h51.2c36.8 0 65.6 30.4 65.6 65.6zM200 33.6h756.8c0 203.2-168 366.4-377.6 366.4s-379.2-163.2-379.2-366.4zM75.2 1.6h1006.4v-65.6h-1006.4v65.6zM59.2 33.6v0c-12.8 22.4-19.2 48-19.2 73.6 0 8 0 17.6 0 27.2v360c0 35.2 12.8 68.8 36.8 92.8l48 48c0 0-62.4-86.4-60.8-124.8 0 0 6.4-49.6 3.2-68.8 0 0 3.2-225.6-6.4-376l-1.6-32h104c0 0-1.6 27.2 0 40 8 81.6 38.4 155.2 86.4 217.6v198.4c0 36.8-9.6 73.6-28.8 105.6l-36.8 62.4c-11.2 17.6-16 38.4-16 60.8v176c3.2 0 4.8 1.6 4.8 4.8v33.6c0 3.2-1.6 4.8-4.8 4.8 0 6.4-3.2 12.8-8 17.6-6.4 3.2-11.2 4.8-16 4.8h-40c-4.8 0-9.6-1.6-12.8-4.8-6.4-3.2-9.6-9.6-9.6-17.6-1.6 0-4.8-1.6-4.8-4.8v-33.6c0-3.2 3.2-4.8 4.8-4.8v-176c0-20.8-6.4-41.6-16-60.8l-36.8-62.4c-19.2-32-28.8-68.8-28.8-105.6v-520c0-19.2 14.4-33.6 30.4-33.6v97.6h28.8z" />
<glyph unicode="&#xe90f;" glyph-name="construccion" horiz-adv-x="1162" d="M720 184h-3.2c-36.8 0-70.4-24-83.2-57.6l-67.2-187.2h595.2l-198.4 435.2c-20.8 43.2-80 43.2-100.8 0l-43.2-97.6-171.2 80c-3.2 0-3.2 3.2-3.2 3.2l-52.8 315.2c-3.2 24-12.8 43.2-30.4 57.6-33.6 33.6-92.8 83.2-147.2 80h-158.4c-24 0-46.4-9.6-64-30.4l-123.2-144c-3.2-3.2-6.4-3.2-6.4 0l-14.4 6.4c-30.4 16-64-20.8-40-46.4 3.2-3.2 6.4-6.4 9.6-9.6l768-380.8c-12.8-11.2-38.4-24-65.6-24zM291.2 708.8l-70.4-126.4c0-3.2-6.4-3.2-6.4-3.2l-64 30.4c-3.2 3.2-3.2 6.4-3.2 9.6l100.8 100.8h40c3.2-4.8 3.2-8 3.2-11.2zM539.2 414.4l-129.6 64c-3.2 3.2-3.2 6.4-3.2 9.6l80 97.6c3.2 3.2 9.6 3.2 9.6-3.2l46.4-160c6.4-8 3.2-11.2-3.2-8zM152 460.8l-137.6-464c-9.6-30.4 12.8-57.6 43.2-57.6v0c24 0 43.2 12.8 52.8 36.8l126.4 347.2c3.2 6.4 9.6 6.4 12.8 3.2l113.6-104c0 0 3.2-3.2 3.2-6.4l30.4-257.6c0-12.8 12.8-24 24-24v0c30.4 0 52.8 24 52.8 52.8v206.4c0 16-3.2 33.6-12.8 46.4l-44.8 73.6c-9.6 12.8-20.8 24-33.6 30.4l-217.6 120c-6.4 3.2-9.6 0-12.8-3.2zM723.2 859.2c0-55.67-45.13-100.8-100.8-100.8s-100.8 45.13-100.8 100.8c0 55.67 45.13 100.8 100.8 100.8s100.8-45.13 100.8-100.8z" />
<glyph unicode="&#xe910;" glyph-name="deportes" horiz-adv-x="1387" d="M308.8 504c-176 14.4-321.6-131.2-307.2-307.2 11.2-137.6 123.2-249.6 260.8-260.8 176-14.4 321.6 131.2 307.2 307.2-11.2 139.2-123.2 251.2-260.8 260.8zM305.6 19.2c-128-12.8-235.2 94.4-222.4 222.4 9.6 94.4 86.4 171.2 180.8 180.8 128 12.8 235.2-94.4 222.4-222.4-8-94.4-84.8-171.2-180.8-180.8zM1126.4 504c-88 6.4-168-25.6-224-81.6l-65.6 64 100.8 152c46.4 68.8-3.2 161.6-86.4 161.6h-409.6c-89.6 0-134.4-108.8-72-172.8l238.4-241.6v-302.4c0-35.2 28.8-65.6 65.6-65.6v0 0c40 0 72 32 72 72v356.8l102.4-102.4c-20.8-43.2-30.4-91.2-27.2-144 9.6-139.2 121.6-252.8 260.8-264 176-14.4 320 131.2 307.2 307.2-12.8 139.2-124.8 249.6-262.4 260.8zM712 488l-83.2 81.6h129.6l-46.4-81.6zM1083.2 19.2c-96 9.6-172.8 86.4-182.4 182.4-3.2 33.6 3.2 67.2 14.4 96 9.6 1.6 17.6 4.8 24 12.8 12.8 12.8 17.6 30.4 14.4 48 40 43.2 100.8 68.8 166.4 64 96-8 174.4-84.8 184-180.8 12.8-128-94.4-233.6-220.8-222.4zM1020.8 750.4c72-11.2 132.8 49.6 121.6 121.6-6.4 43.2-41.6 78.4-84.8 84.8-72 11.2-132.8-49.6-121.6-121.6 6.4-41.6 41.6-76.8 84.8-84.8z" />
<glyph unicode="&#xe911;" glyph-name="educacion" horiz-adv-x="1117" d="M1102.4 731.2l-515.2 225.6c-12.8 4.8-25.6 4.8-38.4 0l-500.8-228.8c-19.2-8-19.2-43.2 0-52.8l116.8-52.8c-16-30.4-43.2-96-49.6-216-16-12.8-27.2-36.8-27.2-64s11.2-51.2 27.2-64c-1.6-40-19.2-214.4-115.2-288l100.8-54.4c0 0 129.6 43.2 62.4 340.8 8 4.8 14.4 11.2 19.2 19.2 3.2 3.2 4.8 6.4 6.4 11.2 0 0 0 0 0 0 4.8 11.2 6.4 22.4 6.4 36.8 0 30.4-14.4 57.6-33.6 67.2-1.6 20.8 0 97.6 59.2 185.6l331.2-150.4c12.8-4.8 25.6-4.8 38.4 0l512 230.4c19.2 9.6 19.2 46.4 0 54.4zM910.4 497.6l-291.2-134.4c-28.8-12.8-60.8-12.8-89.6 0l-297.6 136v-78.4c0 0 67.2-86.4 0-185.6 0 0 67.2-91.2 300.8-121.6 0 0 276.8-9.6 360 110.4 14.4 20.8 22.4 49.6 22.4 78.4v192c0 1.6-1.6 4.8-4.8 3.2z" />
<glyph unicode="&#xe912;" glyph-name="electronica" horiz-adv-x="1102" d="M840-6.4c0-32-25.6-57.6-56-57.6h1.6c32 0 57.6 25.6 57.6 57.6v96h-3.2v-96zM172.8 118.4l-1.6 28.8-147.2 11.2v17.6l147.2 11.2 1.6 28.8h91.2v28.8h-116.8v-35.2l-147.2-8v-68.8l147.2-8v-35.2h116.8v28.8zM840 216h3.2v-97.6h-3.2v97.6zM172.8 380.8l-1.6 28.8-147.2 11.2v17.6l147.2 11.2 1.6 28.8h91.2v28.8h-116.8v-35.2l-147.2-8v-68.8l147.2-8v-35.2h116.8v28.8zM840 478.4h3.2v-97.6h-3.2v97.6zM840 740.8h3.2v-97.6h-3.2v97.6zM840 352h3.2v-107.2h-3.2v107.2zM172.8 643.2l-1.6 28.8-147.2 11.2v17.6l147.2 11.2 1.6 28.8h91.2v28.8h-116.8v-35.2l-147.2-8v-68.8l147.2-9.6v-33.6h116.8v28.8zM840 614.4h3.2v-107.2h-3.2v107.2zM931.2 478.4l1.6-28.8 147.2-11.2v-17.6l-147.2-11.2-1.6-28.8h-88v-28.8h113.6v35.2l145.6 8v68.8l-145.6 8v35.2h-113.6v-28.8zM956.8 734.4v35.2h-113.6v-28.8h88l1.6-28.8 147.2-11.2v-17.6l-147.2-11.2-1.6-28.8h-88v-28.8h113.6v33.6l145.6 9.6v68.8zM931.2 216l1.6-28.8 147.2-11.2v-17.6l-147.2-11.2-1.6-28.8h-88v-28.8h113.6v35.2l145.6 8v68.8l-145.6 8v35.2h-113.6v-28.8zM785.6 960h-464c-32 0-57.6-25.6-57.6-57.6v-908.8c0-32 25.6-57.6 57.6-57.6h462.4c32 0 56 25.6 56 57.6v96h3.2v28.8h-3.2v97.6h3.2v28.8h-3.2v107.2h3.2v28.8h-3.2v97.6h3.2v28.8h-3.2v107.2h3.2v28.8h-3.2v97.6h3.2v161.6c0 32-25.6 57.6-57.6 57.6zM376 772.8c-30.4 0-56 25.6-56 56s25.6 56 56 56 56-25.6 56-56-25.6-56-56-56z" />
<glyph unicode="&#xe913;" glyph-name="empresa" d="M974.4 529.6h-192c-6.4 0-11.2-1.6-17.6-3.2v342.4c0 49.6-38.4 89.6-86.4 89.6h-336c-48 0-86.4-40-86.4-89.6v-347.2c-6.4 3.2-14.4 6.4-20.8 6.4h-187.2c-27.2 0-48-24-48-51.2v-488c0-28.8 20.8-52.8 48-52.8h48v110.4h105.6v-110.4h228.8v193.6h190.4v-193.6h211.2v112h108.8v-112h33.6c27.2 0 49.6 24 49.6 52.8v488c0 28.8-22.4 52.8-49.6 52.8zM81.6 224h-51.2v54.4h49.6v-54.4zM81.6 318.4h-51.2v54.4h49.6v-54.4zM81.6 411.2h-49.6v54.4h49.6v-54.4zM164.8 224h-49.6v54.4h49.6v-54.4zM164.8 318.4h-49.6v54.4h49.6v-54.4zM166.4 411.2h-51.2v54.4h49.6v-54.4zM312 852.8h91.2v-94.4h-91.2v94.4zM310.4 689.6h91.2v-94.4h-91.2v94.4zM310.4 528h91.2v-94.4h-91.2v94.4zM201.6 465.6h49.6v-54.4h-49.6v54.4zM201.6 372.8h49.6v-54.4h-49.6v54.4zM201.6 224v54.4h49.6v-54.4h-49.6zM555.2 433.6h-91.2v94.4h91.2v-94.4zM555.2 596.8h-91.2v94.4h91.2v-94.4zM556.8 758.4h-91.2v94.4h91.2v-94.4zM620.8 852.8h91.2v-94.4h-91.2v94.4zM619.2 689.6h91.2v-94.4h-91.2v94.4zM619.2 528h91.2v-94.4h-91.2v94.4zM817.6 224h-51.2v54.4h51.2v-54.4zM817.6 318.4h-51.2v54.4h51.2v-54.4zM817.6 412.8h-51.2v54.4h51.2v-54.4zM904 224h-51.2v54.4h51.2v-54.4zM904 318.4h-51.2v54.4h51.2v-54.4zM905.6 412.8h-51.2v54.4h51.2v-54.4zM993.6 224h-51.2v54.4h51.2v-54.4zM993.6 318.4h-51.2v54.4h51.2v-54.4zM993.6 412.8h-51.2v54.4h51.2v-54.4z" />
<glyph unicode="&#xe914;" glyph-name="eventos" horiz-adv-x="1146" d="M1145.6-48c-1.6 6.4-8 9.6-14.4 9.6h-24c0 0-91.2 132.8-113.6 308.8-1.6 9.6 1.6 20.8 8 28.8 8 11.2 11.2 25.6 4.8 38.4l-22.4 57.6c-3.2 9.6-9.6 16-17.6 22.4l-272 204.8c0 8-3.2 14.4-8 19.2l-96 97.6c-1.6 1.6-3.2 3.2-4.8 3.2v96c22.4-11.2 78.4-32 152-19.2 8 1.6 12.8 12.8 6.4 19.2l-24 25.6 22.4 33.6c3.2 4.8-1.6 11.2-6.4 9.6-28.8-4.8-94.4-11.2-150.4 16v24c0 6.4-6.4 12.8-12.8 12.8s-11.2-4.8-11.2-11.2v-204.8c-1.6-1.6-3.2-1.6-4.8-3.2l-96-97.6c-4.8-4.8-8-12.8-8-19.2l-275.2-208c-8-6.4-14.4-14.4-17.6-22.4l-22.4-57.6c-4.8-12.8-3.2-27.2 6.4-38.4 6.4-8 9.6-17.6 8-28.8-22.4-176-113.6-308.8-113.6-308.8h-24c-6.4 0-11.2-3.2-14.4-9.6-3.2-8 3.2-16 11.2-16h1123.2c6.4 1.6 12.8 9.6 11.2 17.6zM622.4 616l177.6-206.4h-137.6c0 0-30.4 132.8-56 206.4h16zM523.2 616h16c-25.6-73.6-56-206.4-56-206.4h-137.6l177.6 206.4zM276.8-36.8h-94.4c0 0 80 100.8 132.8 320 0 0 52.8-44.8 113.6-11.2-1.6-1.6-65.6-217.6-152-308.8zM572.8-36.8h-131.2c51.2 65.6 131.2 214.4 131.2 214.4s80-150.4 131.2-214.4h-131.2zM868.8-36.8c-86.4 91.2-152 308.8-152 308.8 59.2-33.6 113.6 11.2 113.6 11.2 52.8-217.6 132.8-320 132.8-320h-94.4zM969.6 302.4c-27.2-8-68.8-12.8-100.8 24-9.6 11.2-25.6 9.6-32-3.2-11.2-19.2-30.4-38.4-67.2-41.6 0 0-41.6 0-73.6 33.6-9.6 9.6-25.6 8-33.6-4.8-12.8-22.4-38.4-48-89.6-46.4-51.2-1.6-76.8 24-89.6 46.4-6.4 12.8-22.4 14.4-33.6 4.8-32-33.6-73.6-33.6-73.6-33.6-36.8 4.8-56 24-67.2 41.6-6.4 11.2-24 12.8-32 3.2-32-36.8-75.2-33.6-100.8-24-14.4 4.8-22.4 20.8-16 35.2l20.8 48h784l20.8-48c6.4-14.4-1.6-30.4-16-35.2z" />
<glyph unicode="&#xe915;" glyph-name="fabricas" horiz-adv-x="946" d="M137.6 171.2v-235.2h808v131.2l-403.2 97.6v-94.4zM0-64l33.6 582.4h105.6l19.2-326.4-16 1.6c-24 3.2-46.4-11.2-46.4-28.8l4.8-228.8h-100.8zM267.2 518.4l-19.2-347.2 147.2-38.4-17.6 385.6zM321.6 544c118.4 121.6 313.6 144 313.6 144 211.2 25.6 256 168 256 168-128-94.4-316.8-129.6-316.8-129.6-236.8-49.6-252.8-182.4-252.8-182.4zM91.2 544c140.8 156.8 337.6 179.2 337.6 179.2 392 52.8 414.4 236.8 414.4 236.8-164.8-121.6-412.8-168-412.8-168-339.2-72-339.2-248-339.2-248z" />
<glyph unicode="&#xe916;" glyph-name="hand_greet" horiz-adv-x="1618" d="M0 753.6v-448c0-17.6 14.4-32 32-32h200c43.2 72 108.8 100.8 108.8 100.8 51.2 19.2 104-14.4 104-14.4 38.4-24 51.2-72 51.2-72 73.6-24 86.4-86.4 86.4-86.4 51.2-14.4 68.8-56 68.8-56 176-56 81.6-203.2 81.6-203.2 126.4-33.6 115.2 72 115.2 72 36.8-43.2 88-19.2 88-19.2 54.4 24 36.8 81.6 36.8 81.6 59.2-59.2 104-16 104-16 36.8 27.2 25.6 73.6 25.6 73.6 36.8-56 99.2-19.2 99.2-19.2 44.8 24 28.8 83.2 28.8 83.2l-412.8 499.2c-6.4 8-16 9.6-25.6 4.8l-176-102.4c-108.8-54.4-200 25.6-200 25.6-41.6 49.6-28.8 110.4-16 142.4 4.8 11.2-3.2 24-16 24h-345.6c-20.8 0-38.4-17.6-38.4-38.4zM1617.6 755.2v-446.4c0-19.2-16-35.2-35.2-35.2h-243.2c-8 0-14.4-1.6-19.2-8l-20.8-17.6c-6.4-4.8-14.4-4.8-19.2 1.6l-433.6 523.2c-9.6 12.8-27.2 16-41.6 8l-204.8-113.6c-40-22.4-80-20.8-112-12.8-38.4 9.6-48 62.4-16 86.4l256 192c17.6 16 44.8 24 68.8 27.2 38.4 4.8 76.8 0 112-14.4l396.8-144c17.6-6.4 35.2-9.6 54.4-9.6h222.4c19.2 0 35.2-17.6 35.2-36.8zM297.6 144l-9.6 9.6c-24 19.2-27.2 54.4-9.6 76.8l56 70.4c19.2 22.4 54.4 27.2 76.8 8l9.6-9.6c24-19.2 27.2-54.4 9.6-76.8l-56-70.4c-17.6-24-51.2-27.2-76.8-8zM396.8 70.4l-9.6 9.6c-24 19.2-27.2 54.4-9.6 76.8l43.2 54.4c19.2 24 54.4 27.2 76.8 9.6l9.6-9.6c24-19.2 27.2-54.4 9.6-76.8l-43.2-54.4c-19.2-25.6-52.8-28.8-76.8-9.6zM494.4 3.2l-9.6 8c-20.8 17.6-25.6 48-8 70.4l33.6 43.2c17.6 20.8 48 25.6 70.4 8l9.6-8c20.8-17.6 25.6-48 8-70.4l-33.6-43.2c-19.2-22.4-49.6-25.6-70.4-8zM595.2-48l-9.6 8c-20.8 17.6-24 48-8 68.8l24 30.4c17.6 20.8 48 24 68.8 8l9.6-8c20.8-17.6 24-48 8-68.8l-24-30.4c-17.6-22.4-48-25.6-68.8-8z" />
<glyph unicode="&#xe917;" glyph-name="hogar" horiz-adv-x="1398" d="M1398.4 264v-216l-99.2 19.2c-62.4 12.8-128 9.6-188.8-9.6l-371.2-112c-54.4-16-112-12.8-164.8 9.6l-536 228.8c-24 11.2-40 36.8-36.8 62.4v0c0 0 1.6 4.8 3.2 8 3.2 4.8 11.2 8 16 11.2l1.6 1.6c19.2 9.6 41.6 12.8 64 8 3.2-1.6 6.4-3.2 11.2-3.2l379.2-88c-19.2-14.4-28.8-30.4-32-46.4-6.4-33.6 14.4-67.2 46.4-78.4 110.4-36.8 337.6 22.4 337.6 22.4l-264-9.6c-48 0-89.6 44.8-89.6 44.8-3.2 9.6 1.6 20.8 8 28.8 9.6 12.8 22.4 22.4 38.4 27.2l387.2 118.4c78.4 24 160 30.4 240 19.2 116.8-17.6 249.6-46.4 249.6-46.4zM681.6 960l-576-382.4h118.4v-288l256-62.4 203.2 44.8 220.8 80c70.4 25.6 145.6 30.4 219.2 16l19.2-3.2v212.8h116.8l-577.6 382.4zM835.2 470.4c-19.2-30.4-153.6-132.8-153.6-132.8s-132.8 100.8-153.6 132.8c0 0-27.2 30.4-22.4 89.6 0 0 16 70.4 86.4 86.4 0 0 60.8 19.2 89.6-22.4 27.2 41.6 89.6 22.4 89.6 22.4 68.8-16 86.4-86.4 86.4-86.4 4.8-59.2-22.4-89.6-22.4-89.6z" />
<glyph unicode="&#xe918;" glyph-name="home" horiz-adv-x="1266" d="M1262.4 438.4l-184 152v334.4c0 6.4-4.8 9.6-9.6 9.6h-177.6c-6.4 0-9.6-4.8-9.6-9.6v-169.6l-243.2 201.6c-3.2 3.2-8 3.2-11.2 0l-624-520c-3.2-3.2-3.2-8 0-11.2l67.2-80c3.2-3.2 8-3.2 11.2 0l545.6 454.4c3.2 1.6 8 1.6 9.6 0l548.8-454.4c3.2-3.2 9.6-1.6 11.2 0l67.2 80c3.2 4.8 1.6 9.6-1.6 12.8zM632 732.8l-449.6-368v-417.6c0-6.4 4.8-11.2 11.2-11.2h336v302.4h203.2v-302.4h336c6.4 0 9.6 4.8 9.6 9.6v419.2l-446.4 368z" />
<glyph unicode="&#xe919;" glyph-name="imprenta" horiz-adv-x="1144" d="M20.8 756.8c0-112 64-203.2 140.8-203.2v1.6c-80 11.2-140.8 97.6-140.8 201.6zM348.8 555.2c0 0 0 0 0 0l598.4-1.6c4.8 0 9.6 0 14.4 0 0 0 0 0 0 0h-612.8zM169.6 960c-3.2 0-4.8 0-8 0v-1.6c3.2 0 4.8 1.6 8 1.6zM161.6 553.6h17.6c-3.2 0-6.4 0-9.6 0s-4.8 0-8 0zM161.6 555.2v0c3.2-1.6 4.8-1.6 8-1.6-3.2 0-4.8 1.6-8 1.6zM169.6 960c-3.2 0-4.8 0-8-1.6v1.6c-78.4 0-140.8-91.2-140.8-203.2 0-104 62.4-190.4 140.8-201.6 3.2 0 4.8 0 8-1.6 75.2 6.4 132.8 94.4 132.8 203.2s-57.6 196.8-132.8 203.2zM281.6 324.8c0-112.224-63.038-203.2-140.8-203.2s-140.8 90.976-140.8 203.2c0 112.224 63.038 203.2 140.8 203.2s140.8-90.976 140.8-203.2zM1126.4 320v0c0 89.6-56 164.8-134.4 195.2 8-76.8 27.2-216 57.6-350.4 48 35.2 76.8 91.2 76.8 155.2zM161.6 528c88 0 158.4-91.2 158.4-203.2s-70.4-203.2-158.4-203.2h248c-28.8 102.4-60.8 243.2-80 406.4h-168zM961.6 555.2c1.6-11.2 3.2-20.8 3.2-32 9.6-1.6 19.2-4.8 27.2-8-1.6 19.2-3.2 33.6-4.8 44.8-8-3.2-17.6-4.8-25.6-4.8zM348.8 553.6h-22.4c1.6-8 1.6-17.6 3.2-25.6h22.4c-1.6 14.4-3.2 22.4-3.2 25.6zM1094.4-46.4h-611.2c-20.8 51.2-38.4 108.8-52.8 168h-20.8c32-116.8 59.2-185.6 59.2-185.6h656c-30.4 62.4-54.4 144-73.6 227.2-4.8-4.8-11.2-8-17.6-12.8 32-129.6 60.8-196.8 60.8-196.8zM936 960h-756.8c88 0 158.4-91.2 158.4-203.2s-70.4-203.2-158.4-203.2h169.6c0 0 0 1.6 0 1.6h612.8c0 0 0 0 0 0 9.6 0 17.6 1.6 27.2 3.2 89.6 19.2 155.2 97.6 155.2 193.6v0c0 115.2-92.8 208-208 208zM1033.6 152c6.4 3.2 11.2 8 17.6 12.8-30.4 134.4-49.6 273.6-57.6 350.4-9.6 3.2-17.6 6.4-27.2 8 19.2-153.6 44.8-278.4 67.2-371.2zM352 528h-24c19.2-163.2 51.2-302.4 80-406.4h20.8c-41.6 164.8-67.2 340.8-76.8 406.4z" />
<glyph unicode="&#xe91a;" glyph-name="joyas" horiz-adv-x="955" d="M854.4 724.8c32 28.8 59.2 41.6 59.2 41.6s-121.6 59.2-140.8 182.4v12.8c-12.8-75.2-62.4-126.4-99.2-155.2h-512l-161.6-216 478.4-654.4 478.4 654.4-102.4 134.4zM878.4 616h-97.6c9.6 28.8 24 54.4 41.6 75.2l56-75.2zM748.8 806.4c11.2 12.8 22.4 30.4 25.6 52.8v-4.8c9.6-56 64-83.2 64-83.2s-4.8-1.6-11.2-6.4c-9.6-6.4-22.4-17.6-33.6-32-9.6-12.8-16-27.2-19.2-44.8v4.8c-1.6 12.8-6.4 24-11.2 33.6-19.2 33.6-52.8 51.2-52.8 51.2s19.2 8 38.4 28.8zM769.6 616h-46.4l20.8 59.2c9.6-17.6 19.2-38.4 25.6-59.2zM667.2 756.8c11.2-8 25.6-19.2 38.4-33.6l-22.4-68.8-49.6 104h33.6zM478.4 756.8h97.6l73.6-142.4h-342.4l73.6 142.4h97.6zM323.2 756.8l-51.2-102.4-35.2 104h86.4zM182.4 756.8l51.2-140.8h-156.8l105.6 140.8zM76.8 566.4h174.4l67.2-185.6 92.8-264-334.4 449.6zM307.2 566.4h342.4l-171.2-512-171.2 512zM539.2 115.2l158.4 451.2h174.4l-332.8-451.2z" />
<glyph unicode="&#xe91b;" glyph-name="mascotas" horiz-adv-x="1242" d="M229.317 682.553c71.698-61.638 95.264-151.802 52.636-201.388s-135.308-39.815-207.006 21.823c-71.698 61.638-95.264 151.802-52.636 201.388s135.308 39.815 207.006-21.823zM566.819 824.48c29.897-93.417 2.282-185.74-61.679-206.21s-140.048 38.666-169.944 132.083c-29.897 93.417-2.282 185.74 61.679 206.21s140.048-38.666 169.944-132.083zM916.375 902.561c72.575-45.6 86.82-153.53 31.817-241.069s-158.424-121.536-230.998-75.936c-72.575 45.6-86.82 153.53-31.817 241.069s158.424 121.536 230.998 75.936zM1230.363 540.88c33.157-66.411-11.746-156.087-100.294-200.296s-187.209-26.212-220.367 40.199c-33.157 66.411 11.746 156.087 100.294 200.296s187.209 26.212 220.367-40.199zM958.4 227.2c-104 297.6-267.2 342.4-267.2 342.4-89.6 38.4-230.4-9.6-230.4-9.6-166.4-81.6-281.6-328-281.6-328-64-148.8-8-228.8-8-228.8 64-80 150.4-64 150.4-64 60.8 14.4 129.6 68.8 129.6 68.8 56 36.8 94.4 20.8 94.4 20.8 41.6 0 156.8-60.8 156.8-60.8 136-67.2 211.2 0 211.2 0 104 100.8 44.8 259.2 44.8 259.2zM764.8 257.6c-1.6-44.8-84.8-81.6-84.8-81.6-73.6-32-113.6-67.2-113.6-67.2-32 30.4-134.4 104-134.4 104-84.8 56-28.8 126.4-28.8 126.4 49.6 62.4 116.8 24 116.8 24 27.2-17.6 46.4-49.6 46.4-49.6 17.6 28.8 72 60.8 72 60.8 41.6 19.2 89.6-12.8 89.6-12.8 52.8-27.2 36.8-104 36.8-104z" />
<glyph unicode="&#xe91c;" glyph-name="mercado" horiz-adv-x="1470" d="M1345.6 483.2c-70.4 0-129.6 43.2-155.2 104-27.2-54.4-84.8-92.8-150.4-92.8s-123.2 38.4-150.4 92.8c-27.2-56-84.8-92.8-150.4-92.8-67.2 0-124.8 40-152 96-27.2-57.6-84.8-96-152-96-65.6 0-121.6 36.8-150.4 92.8-25.6-60.8-84.8-104-155.2-104-22.4 0-44.8 4.8-64 12.8v-508.8c0-27.2 22.4-51.2 51.2-51.2h153.6v406.4h249.6v-406.4h841.6c27.2 0 51.2 22.4 51.2 51.2v510.4c-20.8-9.6-43.2-14.4-67.2-14.4zM1254.4 120h-481.6v222.4h481.6v-222.4zM132.8 904c-33.6-25.6-78.4-142.4-78.4-142.4l-54.4-118.4v-1.6c6.4-65.6 60.8-118.4 129.6-118.4 67.2 0 123.2 51.2 129.6 118.4v0 318.4c-68.8 0-126.4-56-126.4-56zM1339.2 904c33.6-25.6 78.4-142.4 78.4-142.4l52.8-120v-1.6c-6.4-65.6-60.8-118.4-129.6-118.4-67.2 0-123.2 51.2-129.6 118.4v0 320c70.4 0 128-56 128-56zM304 660.8v0c6.4-65.6 62.4-118.4 129.6-118.4s123.2 51.2 129.6 118.4v0 299.2h-259.2v-299.2zM609.6 660.8v0c6.4-65.6 62.4-118.4 129.6-118.4s123.2 51.2 129.6 118.4v0 299.2h-259.2v-299.2zM908.8 660.8v0c6.4-65.6 62.4-118.4 129.6-118.4s123.2 51.2 129.6 118.4v0 299.2h-259.2v-299.2z" />
<glyph unicode="&#xe91d;" glyph-name="publicate" horiz-adv-x="1120" d="M568 934.4l-46.4-17.6c-62.4-176-265.6-324.8-265.6-324.8l108.8-284.8c0 0 251.2 27.2 414.4-62.4l46.4 17.6c12.8 4.8 19.2 19.2 14.4 32l-120 315.2-120 312c-4.8 12.8-19.2 19.2-32 12.8zM326.4 302.4l-102.4 268.8c-19.2-17.6-104-41.6-156.8-54.4-22.4-6.4-33.6-30.4-27.2-51.2l12.8-32-41.6-17.6c-9.6-3.2-12.8-14.4-9.6-24l41.6-105.6c3.2-9.6 14.4-14.4 22.4-11.2l41.6 14.4 12.8-32c8-20.8 33.6-30.4 54.4-20.8 46.4 25.6 126.4 65.6 152 65.6zM356.8 236.8c-4.8 6.4-14.4 9.6-22.4 6.4l-88-33.6c-6.4-3.2-8-9.6-4.8-14.4l171.2-230.4c3.2-4.8 9.6-6.4 16-4.8l89.6 33.6c8 3.2 9.6 12.8 4.8 19.2l-166.4 224zM718.4 734.4l84.8-220.8c60.8 24 91.2 91.2 67.2 152-22.4 62.4-91.2 92.8-152 68.8zM1073.6 760l-160-62.4c-6.4-3.2-11.2-11.2-8-17.6s11.2-11.2 17.6-8l160 62.4c6.4 3.2 11.2 11.2 8 17.6-1.6 8-9.6 11.2-17.6 8zM900.8 752l107.2 134.4c4.8 6.4 3.2 14.4-1.6 19.2s-14.4 3.2-19.2-3.2l-107.2-132.8c-4.8-6.4-3.2-14.4 1.6-19.2 6.4-4.8 14.4-4.8 19.2 1.6zM1108.8 593.6l-169.6 27.2c-8 1.6-14.4-3.2-16-11.2s3.2-14.4 11.2-16l169.6-25.6c8-1.6 14.4 3.2 16 11.2 1.6 6.4-3.2 14.4-11.2 14.4z" />
<glyph unicode="&#xe91e;" glyph-name="quienessomos" horiz-adv-x="1030" d="M363.2 960c0 0-190.4 14.4-190.4-211.2 0 0 8-240 190.4-251.2 179.2 9.6 187.2 251.2 187.2 251.2 0 225.6-187.2 211.2-187.2 211.2zM593.6 401.6c-17.6 11.2-30.4 48-30.4 48-9.6 6.4-32 11.2-54.4 14.4-27.2 3.2-54.4 4.8-80 4.8h-190.4c-33.6 0-64-6.4-89.6-16-84.8-32-139.2-108.8-147.2-195.2-1.6-17.6-1.6-30.4-1.6-30.4v-281.6c187.2 76.8 392 80 392 80l-1.6 148.8c4.8 203.2 203.2 227.2 203.2 227.2zM732.8 756.8c0 0-153.6 11.2-153.6-169.6 0 0 6.4-193.6 153.6-201.6 144 8 150.4 201.6 150.4 201.6 0 180.8-150.4 169.6-150.4 169.6zM443.2 35.2v166.4c1.6 92.8 108.8 145.6 108.8 145.6 35.2 22.4 204.8 19.2 204.8 19.2 92.8 0 152-16 152-16 60.8-16 100.8-84.8 100.8-84.8 32-52.8 19.2-329.6 19.2-329.6-254.4 115.2-585.6 99.2-585.6 99.2z" />
<glyph unicode="&#xe91f;" glyph-name="reloj" horiz-adv-x="1086" d="M544 960c-300.8 0-544-228.8-544-512s243.2-512 544-512 544 228.8 544 512-244.8 512-544 512zM544 48c-235.2 0-425.6 179.2-425.6 400s190.4 400 425.6 400 424-179.2 424-400-190.4-400-424-400zM896 374.4l-283.2 88c-3.2 8-6.4 14.4-11.2 20.8l51.2 164.8c6.4 20.8-4.8 44.8-27.2 51.2-20.8 6.4-44.8-4.8-51.2-27.2l-51.2-164.8c-20.8-6.4-38.4-24-44.8-46.4-11.2-36.8 9.6-76.8 46.4-88 22.4-6.4 46.4-1.6 64 11.2l283.2-88c20.8-6.4 44.8 4.8 51.2 27.2s-6.4 44.8-27.2 51.2zM588.8 784c0-24.742-20.058-44.8-44.8-44.8s-44.8 20.058-44.8 44.8c0 24.742 20.058 44.8 44.8 44.8s44.8-20.058 44.8-44.8zM588.8 112c0-24.742-20.058-44.8-44.8-44.8s-44.8 20.058-44.8 44.8c0 24.742 20.058 44.8 44.8 44.8s44.8-20.058 44.8-44.8zM251.2 448c0-24.742-20.058-44.8-44.8-44.8s-44.8 20.058-44.8 44.8c0 24.742 20.058 44.8 44.8 44.8s44.8-20.058 44.8-44.8zM924.8 448c0-24.742-20.058-44.8-44.8-44.8s-44.8 20.058-44.8 44.8c0 24.742 20.058 44.8 44.8 44.8s44.8-20.058 44.8-44.8zM355.2 684.8c0-24.742-20.058-44.8-44.8-44.8s-44.8 20.058-44.8 44.8c0 24.742 20.058 44.8 44.8 44.8s44.8-20.058 44.8-44.8zM832 208c0-24.742-20.058-44.8-44.8-44.8s-44.8 20.058-44.8 44.8c0 24.742 20.058 44.8 44.8 44.8s44.8-20.058 44.8-44.8zM344 219.2c0-24.742-20.058-44.8-44.8-44.8s-44.8 20.058-44.8 44.8c0 24.742 20.058 44.8 44.8 44.8s44.8-20.058 44.8-44.8zM820.8 696c0-24.742-20.058-44.8-44.8-44.8s-44.8 20.058-44.8 44.8c0 24.742 20.058 44.8 44.8 44.8s44.8-20.058 44.8-44.8z" />
<glyph unicode="&#xe920;" glyph-name="ropa" horiz-adv-x="899" d="M899.2 456l-75.2 166.4c-12.8 28.8-32 54.4-56 73.6l-128 20.8c-8 1.6-14.4-1.6-19.2-8-65.6 41.6-152 48-152 48v27.2c38.4 11.2 67.2 48 64 91.2-3.2 44.8-40 81.6-84.8 84.8-35.2 1.6-67.2-16-83.2-44.8-9.6-16 0-35.2 17.6-38.4h1.6c11.2-1.6 20.8 3.2 27.2 12.8 6.4 11.2 19.2 17.6 33.6 17.6 19.2-1.6 33.6-16 35.2-35.2 1.6-20.8-16-38.4-36.8-38.4 0 0 0 0 0 0-11.2 0-19.2-8-19.2-19.2v-54.4c-65.6-8-115.2-40-139.2-56-3.2 9.6-12.8 16-24 14.4l-128-20.8c-24-19.2-43.2-44.8-56-73.6l-73.6-168c-4.8-9.6-3.2-20.8 1.6-30.4 19.2-32 54.4-52.8 89.6-52.8h44.8c19.2 0 35.2-17.6 35.2-38.4v-308.8c0-51.2 38.4-91.2 84.8-91.2h384c46.4 0 84.8 41.6 84.8 91.2v310.4c0 20.8 16 38.4 35.2 38.4h44.8c36.8 0 70.4 19.2 89.6 52.8v0c6.4 8 6.4 19.2 1.6 28.8zM451.2 555.2c0 0-35.2 0-73.6 20.8h147.2c-38.4-19.2-73.6-20.8-73.6-20.8zM584 627.2h-265.6c-6.4 8-12.8 17.6-17.6 28.8 73.6 57.6 160 54.4 160 54.4 70.4 0 118.4-27.2 144-46.4-4.8-14.4-12.8-27.2-20.8-36.8z" />
<glyph unicode="&#xe921;" glyph-name="search" d="M1012.8 11.2l-33.6 35.2c-1.6 1.6-3.2 4.8-4.8 6.4l-212.8 209.6c142.4 176 124.8 438.4-52.8 593.6-161.6 140.8-409.6 137.6-568-6.4-182.4-166.4-187.2-448-14.4-620.8 156.8-156.8 403.2-166.4 572.8-30.4l211.2-211.2c1.6-1.6 3.2-3.2 6.4-4.8l33.6-33.6c16-16 43.2-16 60.8 0l4.8 4.8c11.2 16 11.2 41.6-3.2 57.6zM680 305.6c-134.4-148.8-368-148.8-502.4 0-115.2 128-115.2 324.8 0 452.8 134.4 148.8 368 148.8 502.4 0 115.2-128 115.2-324.8 0-452.8z" />
<glyph unicode="&#xe922;" glyph-name="seguridad" horiz-adv-x="1022" d="M992 708.8c-49.6 27.2-134.4 91.2-155.2 204.8-6.4 27.2-30.4 46.4-57.6 46.4h-536c-27.2 0-51.2-19.2-56-46.4-20.8-113.6-107.2-176-155.2-204.8-20.8-12.8-33.6-36.8-30.4-60.8 68.8-529.6 510.4-712 510.4-712s441.6 182.4 510.4 713.6c3.2 24-9.6 48-30.4 59.2zM512-12.8c0 0-400 169.6-451.2 680 0 0 148.8 60.8 177.6 243.2h545.6c28.8-180.8 177.6-243.2 177.6-243.2-51.2-510.4-449.6-680-449.6-680zM904 648c-32 22.4-112 84.8-147.2 182.4-6.4 19.2-25.6 32-44.8 32h-401.6c-20.8 0-38.4-12.8-44.8-32-33.6-97.6-113.6-160-147.2-182.4-9.6-6.4-12.8-17.6-11.2-27.2 75.2-435.2 404.8-587.2 404.8-587.2s329.6 152 404.8 585.6c0 11.2-3.2 22.4-12.8 28.8zM512 91.2c0 0-294.4 166.4-345.6 521.6 0 0 140.8 108.8 144 195.2h403.2c1.6-86.4 144-195.2 144-195.2-51.2-355.2-345.6-521.6-345.6-521.6zM352 388.8l94.4-88c12.8-11.2 32-9.6 41.6 4.8l236.8 334.4c9.6 12.8 4.8 30.4-8 40v0c-12.8 6.4-28.8 3.2-36.8-8l-195.2-276.8c-9.6-12.8-28.8-16-40-4.8l-49.6 44.8c-11.2 9.6-28.8 9.6-40-3.2l-4.8-4.8c-9.6-11.2-9.6-28.8 1.6-38.4z" />
<glyph unicode="&#xe923;" glyph-name="servicios_profesionales" horiz-adv-x="1018" d="M1016 534.4l-40 134.4c-4.8 16-22.4 25.6-40 20.8l-78.4-25.6c-20.8 33.6-44.8 64-73.6 91.2l35.2 67.2c8 14.4 1.6 33.6-12.8 41.6l-123.2 67.2c-16 8-35.2 3.2-43.2-12.8l-32-67.2c-32 8-65.6 12.8-99.2 12.8-8 0-16 0-24 0l-22.4 72c-4.8 16-22.4 25.6-38.4 20.8l-136-41.6c-16-4.8-25.6-22.4-20.8-40l24-75.2c-35.2-22.4-67.2-49.6-92.8-81.6l-73.6 36.8c-16 8-35.2 1.6-41.6-14.4l-60.8-121.6c-8-16-1.6-33.6 14.4-41.6l73.6-38.4c-8-28.8-11.2-59.2-11.2-91.2 0-9.6 0-17.6 1.6-27.2l-78.4-25.6c-16-4.8-25.6-22.4-20.8-40l43.2-129.6c4.8-16 22.4-25.6 38.4-19.2l75.2 24c20.8-33.6 46.4-64 75.2-91.2l-38.4-72c-8-16-1.6-35.2 12.8-41.6l121.6-62.4c14.4-8 33.6-1.6 41.6 12.8l35.2 67.2c32-8 65.6-12.8 99.2-12.8 9.6 0 19.2 0 28.8 1.6l24-72c4.8-16 22.4-25.6 40-20.8l129.6 43.2c16 4.8 25.6 22.4 19.2 38.4l-20.8 75.2c33.6 22.4 64 48 91.2 78.4l68.8-35.2c14.4-8 33.6-1.6 41.6 12.8l65.6 123.2c8 16 1.6 35.2-12.8 43.2l-73.6 36.8c6.4 30.4 9.6 60.8 9.6 92.8 0 8 0 16 0 22.4l78.4 25.6c17.6 4.8 25.6 22.4 20.8 38.4zM508.8 126.4c-177.6 0-321.6 144-321.6 321.6s144 321.6 321.6 321.6c177.6 0 321.6-144 321.6-321.6s-144-321.6-321.6-321.6zM593.6 305.6l-59.2-28.8c-24-11.2-52.8-9.6-75.2 4.8l-38.4 24c-35.2-16-108.8-28.8-108.8-28.8-9.6 0-16-3.2-22.4-4.8 49.6-67.2 129.6-112 219.2-112s169.6 43.2 219.2 110.4c-30.4 14.4-78.4 20.8-78.4 20.8-14.4 0-56 14.4-56 14.4zM576 318.4c-12.8 11.2-17.6 30.4-9.6 44.8l-1.6-1.6c-35.2-16-73.6-17.6-108.8-1.6l-8 3.2c4.8-12.8 1.6-27.2-8-36.8l-1.6-1.6c-1.6-1.6-1.6-3.2 0-4.8l20.8-11.2c32-17.6 70.4-17.6 102.4 1.6l14.4 8c0-1.6 0 0 0 0v0zM587.2 624c-62.4-9.6-142.4 17.6-142.4 17.6-4.8-16-32-36.8-32-36.8-11.2-11.2-19.2-40-19.2-40-3.2-11.2-8-16-11.2-19.2-8-6.4-11.2-16-9.6-25.6 1.6-16 6.4-32 8-40 1.6-3.2 3.2-8 6.4-9.6l1.6-1.6c8-4.8 12.8-14.4 16-24 6.4-32 32-54.4 32-54.4 35.2-27.2 70.4-19.2 70.4-19.2 48-1.6 70.4 20.8 70.4 20.8 25.6 17.6 36.8 52.8 40 70.4 0 3.2 3.2 6.4 4.8 8 4.8 6.4 8 12.8 12.8 19.2l4.8 24c3.2 11.2-1.6 22.4-11.2 28.8-33.6 22.4-41.6 81.6-41.6 81.6zM619.2 681.6c-25.6 28.8-62.4 44.8-62.4 44.8-41.6 14.4-76.8 11.2-97.6 8-14.4-3.2-25.6-12.8-32-25.6-4.8-9.6-12.8-17.6-24-20.8v0c-9.6-3.2-16-8-20.8-16-4.8-6.4-6.4-14.4-8-22.4-1.6-30.4 6.4-65.6 6.4-65.6 4.8 20.8 24 33.6 24 33.6 17.6 9.6 30.4 49.6 30.4 49.6 70.4-43.2 163.2-28.8 163.2-28.8 4.8-40 36.8-84.8 36.8-84.8l9.6 64c0 27.2-11.2 48-25.6 64z" />
<glyph unicode="&#xe924;" glyph-name="talking" horiz-adv-x="1030" d="M729.6 960h-569.6c-88 0-160-72-160-160v-363.2c0-88 72-160 160-160h56l-24-198.4 251.2 169.6c27.2 19.2 60.8 28.8 94.4 28.8h192c88 0 160 72 160 160v363.2c-1.6 88-72 160-160 160zM921.6 808c9.6-20.8 16-44.8 16-70.4v-363.2c0-88-72-160-160-160h-192c-33.6 0-65.6-9.6-94.4-28.8l-78.4-52.8h76.8c33.6 0 65.6-9.6 94.4-28.8l252.8-168-25.6 198.4h57.6c89.6 0 160 72 160 160v363.2c1.6 70.4-43.2 129.6-107.2 150.4z" />
<glyph unicode="&#xe925;" glyph-name="telefono" horiz-adv-x="1043" d="M217.6 433.6l35.2 19.2c38.4 20.8 56 65.6 44.8 107.2l-49.6 185.6c-12.8 46.4-64 70.4-107.2 51.2v0c-104-46.4-160-160-134.4-270.4l11.2-48c132.8-404.8 576-528 576-528l36.8-8c81.6-19.2 168 8 224 70.4l20.8 24c49.6 54.4 20.8 140.8-51.2 155.2l-180.8 35.2c-41.6 8-81.6-14.4-97.6-52.8l-14.4-33.6c-214.4 96-313.6 292.8-313.6 292.8zM470.4 928c1.6-16 14.4-27.2 30.4-27.2 193.6-1.6 331.2-140.8 331.2-140.8 124.8-128 152-262.4 156.8-315.2 1.6-12.8 12.8-24 25.6-24v0c16 0 28.8 14.4 27.2 30.4-48 337.6-299.2 441.6-299.2 441.6-112 52.8-200 64-244.8 65.6-16 1.6-30.4-12.8-27.2-30.4v0zM515.2 824c123.2-12.8 230.4-99.2 230.4-99.2 110.4-97.6 139.2-209.6 145.6-260.8 1.6-16-8-28.8-24-32v0c-16-1.6-30.4 9.6-33.6 24-27.2 164.8-152 248-152 248-80 46.4-142.4 59.2-176 62.4-16 1.6-27.2 16-24 32v0c3.2 16 17.6 27.2 33.6 25.6zM484.8 648c1.6 17.6 19.2 30.4 36.8 27.2 89.6-16 152-78.4 152-78.4 46.4-48 60.8-102.4 65.6-132.8 1.6-14.4-6.4-27.2-19.2-30.4v0c-16-4.8-33.6 4.8-36.8 22.4-20.8 97.6-88 129.6-88 129.6-32 20.8-60.8 27.2-83.2 30.4-17.6 0-28.8 16-27.2 32v0z" />
<glyph unicode="&#xe926;" glyph-name="telefono_circle" horiz-adv-x="1043" d="M355.2 718.4h-27.2c-8 0-16-1.6-22.4-4.8-41.6-20.8-62.4-83.2-62.4-83.2-12.8-73.6 17.6-134.4 17.6-134.4 140.8-252.8 332.8-288 332.8-288 153.6-38.4 192 51.2 192 51.2 9.6 22.4 12.8 43.2 12.8 57.6 0 8-4.8 16-11.2 20.8l-107.2 56c-11.2 6.4-25.6 3.2-35.2-6.4l-41.6-51.2c-6.4-8-16-9.6-24-6.4-107.2 38.4-172.8 134.4-192 166.4-3.2 6.4-3.2 14.4 1.6 19.2l35.2 41.6c8 9.6 9.6 22.4 4.8 33.6l-52.8 113.6c-4.8 8-12.8 14.4-20.8 14.4zM512 960c-283.2 0-512-228.8-512-512s228.8-512 512-512c283.2 0 512 228.8 512 512s-228.8 512-512 512zM512 20.8c-236.8 0-427.2 192-427.2 427.2s190.4 427.2 427.2 427.2c236.8 0 427.2-192 427.2-427.2s-190.4-427.2-427.2-427.2zM512 790.4h16v-169.6h-16v169.6zM673.73 485.598l166.225 33.649 3.174-15.682-166.225-33.649-3.174 15.682zM615.681 573.758l139.4 143.42 11.474-11.152-139.4-143.42-11.474 11.152z" />
<glyph unicode="&#xe927;" glyph-name="telegram" horiz-adv-x="1176" d="M1176 907.2l-180.8-910.4c-11.2-56-76.8-80-121.6-44.8l-416 329.6 523.2 457.6c16 14.4-3.2 40-20.8 27.2l-654.4-419.2-272 88c-41.6 12.8-44.8 72-3.2 89.6l1086.4 432c32 12.8 65.6-16 59.2-49.6z" />
<glyph unicode="&#xe928;" glyph-name="turismo" horiz-adv-x="1077" d="M192 753.6c-152 36.8-176-132.8-176-132.8 80 80 161.6 96 161.6 96-232-190.4-169.6-387.2-169.6-387.2 6.4 67.2 60.8 132.8 60.8 132.8 89.6 89.6 123.2 196.8 123.2 196.8-62.4-332.8 152-425.6 152-425.6-64 83.2-43.2 225.6-43.2 225.6 24 128-36.8 222.4-36.8 222.4 62.4-70.4 201.6-124.8 201.6-124.8 102.4-48 128-102.4 128-102.4-12.8 236.8-297.6 270.4-297.6 270.4 177.6-20.8 225.6 24 225.6 24 60.8 27.2 145.6 9.6 145.6 9.6-193.6 148.8-401.6 6.4-401.6 6.4 60.8 49.6 128 72 128 72 107.2 33.6 142.4 105.6 142.4 105.6-211.2 19.2-283.2-164.8-283.2-164.8-49.6 126.4 32 182.4 32 182.4-158.4-49.6-92.8-206.4-92.8-206.4zM348.8 564.8v-83.2c107.2-233.6 102.4-379.2 102.4-379.2-276.8 28.8-305.6-163.2-305.6-163.2h960c-272 121.6-480 144-480 144-4.8 145.6 105.6 396.8 105.6 396.8v20.8c-20.8-14.4-73.6-27.2-73.6-27.2-70.4-161.6-94.4-376-94.4-376l-48 4.8c-8 174.4-121.6 444.8-121.6 444.8l-44.8 17.6zM486.4 492.8c-17.6-30.4-19.2-76.8-19.2-76.8 19.2 33.6 54.4 51.2 54.4 51.2l-35.2 25.6zM598.4 596.8l38.4-83.2c56 0 137.6 83.2 137.6 83.2-17.6-99.2 48-251.2 48-251.2 32-86.4 24-168 24-168 81.6 232-20.8 419.2-20.8 419.2 51.2-68.8 150.4-120 150.4-120 70.4-32 102.4-73.6 102.4-73.6 0 193.6-222.4 228.8-222.4 228.8 108.8 27.2 169.6-33.6 169.6-33.6-73.6 176-208 70.4-208 70.4-8 171.2-166.4 148.8-166.4 148.8 48-14.4 49.6-57.6 49.6-57.6 6.4-24 48-83.2 48-83.2-115.2 86.4-236.8 17.6-236.8 17.6 56-64 214.4-48 214.4-48-56-1.6-128-49.6-128-49.6z" />
<glyph unicode="&#xe929;" glyph-name="ubicacion" d="M590.4 499.2c0 0 0 0 0 0v0c0 0 0 0 0 0zM609.6 521.6c-3.2-4.8-6.4-8-9.6-11.2 4.8 3.2 8 6.4 9.6 11.2zM512 960c-283.2 0-512-228.8-512-512s228.8-512 512-512 512 228.8 512 512-228.8 512-512 512zM816 491.2c0 0-16-72-72-145.6 0 0-171.2-187.2-201.6-318.4v0c0-12.8-8-24-20.8-27.2-20.8-6.4-38.4 8-38.4 27.2 0 0 0 0 0 0-14.4 64-62.4 139.2-105.6 201.6-3.2 3.2-4.8 6.4-6.4 9.6v0c-46.4 62.4-88 110.4-88 110.4-25.6 33.6-43.2 68.8-54.4 94.4-6.4 16-11.2 28.8-14.4 38.4-11.2 32-17.6 65.6-17.6 100.8 0 78.4 28.8 152 76.8 208 57.6 67.2 144 110.4 240 110.4 30.4 0 59.2-4.8 86.4-11.2v0c76.8-22.4 142.4-73.6 184-140.8v0c3.2-4.8 4.8-9.6 8-14.4v0c4.8-8 9.6-17.6 12.8-27.2 0 0 0 0 0 0v0c16-38.4 25.6-80 25.6-123.2-1.6-33.6-6.4-64-14.4-92.8v0zM508.8 710.4c0 0 0 0 0 0s0 0 0 0-1.6 0 0 0c-1.6 0-4.8 0-6.4 0 0 0-1.6 0-1.6 0-1.6 0-3.2 0-4.8 0s-1.6 0-3.2 0-3.2 0-3.2 0-1.6 0-3.2 0-1.6 0-3.2 0-1.6 0-3.2 0-1.6 0-3.2-1.6c-1.6 0-1.6 0-3.2 0s-1.6 0-3.2-1.6c-1.6 0-1.6 0-3.2-1.6-1.6 0-1.6 0-3.2-1.6-1.6 0-1.6 0-3.2-1.6-1.6 0-1.6-1.6-3.2-1.6s-1.6 0-3.2-1.6c-1.6 0-1.6-1.6-3.2-1.6s-1.6-1.6-3.2-1.6c-1.6 0-1.6-1.6-3.2-1.6s-1.6-1.6-3.2-1.6c-1.6 0-1.6-1.6-3.2-1.6 0 0-1.6-1.6-1.6-1.6-1.6 0-1.6-1.6-3.2-1.6 0 0-1.6-1.6-1.6-1.6-1.6 0-1.6-1.6-3.2-1.6 0 0-1.6-1.6-1.6-1.6-1.6 0-1.6-1.6-3.2-1.6 0 0-1.6-1.6-1.6-1.6-1.6-1.6-1.6-1.6-3.2-3.2 0 0-1.6-1.6-1.6-1.6-1.6-1.6-1.6-1.6-3.2-3.2 0 0 0 0-1.6-1.6 0 0 0 0 0 0-1.6-1.6-4.8-4.8-6.4-8v0c0 0 0 0 0 0-1.6-1.6-1.6-3.2-3.2-3.2 0 0 0 0 0 0-3.2-4.8-6.4-11.2-9.6-16 0 0 0 0 0 0 0-1.6-1.6-3.2-1.6-3.2s0-1.6 0-1.6-1.6-1.6-1.6-3.2c0 0 0-1.6 0-1.6 0-1.6-1.6-1.6-1.6-3.2 0 0 0-1.6 0-1.6 0-1.6 0-1.6-1.6-3.2 0-1.6 0-3.2-1.6-3.2 0-1.6 0-3.2-1.6-3.2 0-1.6 0-1.6 0-3.2s0-1.6 0-3.2 0-1.6 0-3.2c0 0 0-1.6 0-1.6 0-1.6 0-1.6 0-3.2 0 0 0-1.6 0-1.6 0-1.6 0-3.2 0-4.8 0 0 0-1.6 0-1.6 0-1.6 0-3.2 0-4.8 0 0 0 0 0 0s0 0 0 0c0-67.2 54.4-121.6 121.6-121.6 32 0 60.8 12.8 83.2 32l4.8 6.4c0 0 1.6 1.6 1.6 1.6v0l8 9.6 3.2 4.8c12.8 19.2 19.2 41.6 19.2 67.2 0 0 0 0 0 0s0 0 0 0 0 0 0 0c4.8 64-49.6 118.4-116.8 118.4zM609.6 521.6v0 0zM227.2 441.6v0 0z" />
<glyph unicode="&#xe92a;" glyph-name="us" horiz-adv-x="1891" d="M1089.6 918.4c-67.2 46.4-134.4 40-134.4 40s-68.8 4.8-136-40c0 0-155.2-107.2-112-353.6 0 0 32-212.8 204.8-264 28.8-9.6 59.2-9.6 89.6 0 166.4 51.2 196.8 264 196.8 264 43.2 246.4-108.8 353.6-108.8 353.6zM652.8 768c-25.6 38.4-51.2 56-51.2 56-59.2 41.6-120 36.8-120 36.8s-60.8 4.8-123.2-36.8c0 0-140.8-96-100.8-316.8 0 0 28.8-190.4 184-236.8 25.6-8 54.4-8 80 0 94.4 28.8 139.2 113.6 161.6 172.8-27.2 51.2-43.2 123.2-43.2 203.2-1.6 43.2 3.2 84.8 12.8 121.6zM1249.6 768c25.6 38.4 51.2 56 51.2 56 59.2 41.6 120 36.8 120 36.8s60.8 4.8 123.2-36.8c0 0 140.8-96 100.8-316.8 0 0-28.8-190.4-184-236.8-25.6-8-54.4-8-80 0-94.4 28.8-139.2 113.6-161.6 172.8 27.2 51.2 43.2 123.2 43.2 203.2 1.6 43.2-3.2 84.8-12.8 121.6zM1446.4 124.8c-22.4 40-116.8 60.8-116.8 60.8-60.8 16-129.6 70.4-164.8 99.2-11.2 9.6-28.8 9.6-41.6 0-73.6-60.8-171.2-60.8-171.2-60.8s-97.6 0-171.2 62.4c-11.2 9.6-28.8 9.6-41.6 0-33.6-28.8-102.4-83.2-164.8-99.2 0 0-94.4-20.8-116.8-60.8 0 0-25.6-48-28.8-166.4 0-12.8 9.6-22.4 20.8-22.4h1000c12.8 0 22.4 9.6 20.8 22.4 0 116.8-24 164.8-24 164.8zM371.2-64h-352c-11.2 0-19.2 9.6-19.2 19.2 3.2 150.4 40 174.4 40 174.4 28.8 22.4 70.4 32 83.2 35.2 1.6 0 4.8 0 6.4 1.6 81.6 27.2 129.6 68.8 155.2 92.8 9.6 11.2 27.2 11.2 38.4 1.6 44.8-38.4 120-54.4 120-54.4-89.6-48-72-270.4-72-270.4zM1529.6-64h342.4c9.6 0 19.2 9.6 17.6 19.2-3.2 150.4-38.4 174.4-38.4 174.4-27.2 22.4-68.8 32-80 35.2-1.6 0-4.8 0-6.4 1.6-80 27.2-126.4 68.8-150.4 92.8-9.6 11.2-27.2 11.2-36.8 1.6-43.2-38.4-116.8-54.4-116.8-54.4 86.4-48 68.8-270.4 68.8-270.4z" />
<glyph unicode="&#xe92b;" glyph-name="whatsapp" horiz-adv-x="1010" d="M513.6 960c-273.6 0-496-222.4-496-496 0-92.8 25.6-180.8 70.4-254.4l-56-176-32-97.6 36.8 12.8 60.8 19.2 179.2 60.8c70.4-38.4 152-60.8 238.4-60.8 273.6 0 496 222.4 496 496s-224 496-497.6 496zM513.6 51.2c-41.6 0-81.6 6.4-120 17.6s-75.2 28.8-107.2 51.2l-94.4-32-64-22.4 20.8 62.4 30.4 94.4c-19.2 27.2-35.2 54.4-48 86.4-19.2 48-30.4 100.8-30.4 155.2 0 228.8 185.6 412.8 412.8 412.8 228.8 0 414.4-184 414.4-412.8s-185.6-412.8-414.4-412.8zM755.2 353.6l-94.4 49.6c-9.6 4.8-22.4 3.2-30.4-6.4l-36.8-44.8c-4.8-6.4-14.4-9.6-22.4-6.4-94.4 33.6-152 118.4-169.6 147.2-3.2 4.8-3.2 12.8 1.6 17.6l32 36.8c6.4 8 9.6 20.8 4.8 30.4l-46.4 102.4c-3.2 8-11.2 11.2-19.2 11.2h-22.4c-6.4 0-14.4-1.6-20.8-4.8-36.8-19.2-54.4-73.6-54.4-73.6-11.2-64 16-118.4 16-118.4 123.2-222.4 292.8-254.4 292.8-254.4 136-33.6 168 44.8 168 44.8 9.6 19.2 11.2 38.4 11.2 51.2 1.6 8-3.2 14.4-9.6 17.6z" />
</font>
</defs>
</svg>
