<?xml version="1.0" encoding="utf-8"?>
<!-- Generator: Adobe Illustrator 24.0.2, SVG Export Plug-In . SVG Version: 6.00 Build 0)  -->
<svg version="1.1" id="Capa_1" xmlns="http://www.w3.org/2000/svg" xmlns:xlink="http://www.w3.org/1999/xlink" x="0px" y="0px"
	 viewBox="0 0 93.3 64" style="enable-background:new 0 0 93.3 64;" xml:space="preserve">
<style type="text/css">
	.st0{fill:#4D91EA;}
	.st1{fill:none;}
</style>
<path class="st0" d="M57.3,59.7v0.8H36.2v-0.8H0v2.1c0,1.3,1.4,2.3,3,2.3h87.2c1.7,0,3-1,3-2.3v-2.1H57.3z"/>
<rect x="34.7" y="9.7" class="st1" width="12" height="2"/>
<rect x="37.4" y="20.9" class="st1" width="12.6" height="1.1"/>
<rect x="37.4" y="23.6" class="st1" width="12.6" height="1.1"/>
<path class="st1" d="M58.6,4H36.2c-1.4,0-2.5,0.8-2.5,1.9s1.1,1.9,2.5,1.9h22.4C59.9,7.8,61,7,61,5.9S59.9,4,58.6,4z"/>
<rect x="34.7" y="13.5" class="st1" width="25.4" height="1.1"/>
<rect x="37.4" y="26.2" class="st1" width="12.6" height="1.1"/>
<rect x="34.7" y="28.7" class="st1" width="25.4" height="1.1"/>
<rect x="37.4" y="15.7" class="st1" width="12.6" height="1.1"/>
<rect x="37.4" y="26.2" class="st1" width="12.6" height="1.1"/>
<rect x="34.7" y="28.7" class="st1" width="25.4" height="1.1"/>
<rect x="37.4" y="23.6" class="st1" width="12.6" height="1.1"/>
<rect x="37.4" y="20.9" class="st1" width="12.6" height="1.1"/>
<rect x="37.4" y="23.6" class="st1" width="12.6" height="1.1"/>
<rect x="37.4" y="20.9" class="st1" width="12.6" height="1.1"/>
<rect x="34.7" y="28.7" class="st1" width="25.4" height="1.1"/>
<rect x="37.4" y="26.2" class="st1" width="12.6" height="1.1"/>
<rect x="52.7" y="26.2" class="st1" width="4.6" height="1.1"/>
<rect x="52.7" y="20.9" class="st1" width="4.6" height="1.1"/>
<rect x="52.7" y="23.6" class="st1" width="4.6" height="1.1"/>
<rect x="37.4" y="18.3" class="st1" width="12.6" height="1.1"/>
<rect x="52.6" y="18.3" class="st0" width="0.2" height="1.1"/>
<rect x="34.7" y="13.5" class="st1" width="25.4" height="1.1"/>
<rect x="37.4" y="15.7" class="st1" width="12.6" height="1.1"/>
<rect x="34.7" y="9.7" class="st1" width="12" height="2"/>
<path class="st1" d="M58.6,4H36.2c-1.4,0-2.5,0.8-2.5,1.9s1.1,1.9,2.5,1.9h22.4C59.9,7.8,61,7,61,5.9S59.9,4,58.6,4z"/>
<rect x="52.7" y="16.8" class="st0" width="4.6" height="0"/>
<polygon class="st0" points="52.6,16.8 52.7,16.8 52.7,15.7 57.3,15.7 57.3,15.7 52.6,15.7 "/>
<rect x="52.7" y="26.2" class="st1" width="4.6" height="1.1"/>
<rect x="52.7" y="23.6" class="st1" width="4.6" height="1.1"/>
<rect x="52.7" y="20.9" class="st1" width="4.6" height="1.1"/>
<rect x="37.4" y="23.6" class="st1" width="12.6" height="1.1"/>
<rect x="37.4" y="20.9" class="st1" width="12.6" height="1.1"/>
<rect x="34.7" y="28.7" class="st1" width="25.4" height="1.1"/>
<rect x="37.4" y="26.2" class="st1" width="12.6" height="1.1"/>
<rect x="37.4" y="23.6" class="st1" width="12.6" height="1.1"/>
<rect x="34.7" y="28.7" class="st1" width="25.4" height="1.1"/>
<rect x="37.4" y="26.2" class="st1" width="12.6" height="1.1"/>
<rect x="52.7" y="20.9" class="st1" width="4.6" height="1.1"/>
<rect x="52.7" y="26.2" class="st1" width="4.6" height="1.1"/>
<rect x="52.7" y="23.6" class="st1" width="4.6" height="1.1"/>
<rect x="37.4" y="20.9" class="st1" width="12.6" height="1.1"/>
<rect x="37.4" y="26.2" class="st1" width="12.6" height="1.1"/>
<rect x="52.7" y="26.2" class="st1" width="4.6" height="1.1"/>
<rect x="37.4" y="20.9" class="st1" width="12.6" height="1.1"/>
<rect x="37.4" y="23.6" class="st1" width="12.6" height="1.1"/>
<rect x="34.7" y="28.7" class="st1" width="25.4" height="1.1"/>
<rect x="52.7" y="20.9" class="st1" width="4.6" height="1.1"/>
<rect x="52.7" y="23.6" class="st1" width="4.6" height="1.1"/>
<rect x="52.7" y="23.6" class="st1" width="4.6" height="1.1"/>
<polygon class="st1" points="52.6,19.5 52.7,19.5 57.3,19.5 57.3,18.3 52.7,18.3 52.6,18.3 "/>
<rect x="37.4" y="20.9" class="st1" width="12.6" height="1.1"/>
<polygon class="st1" points="57.3,16.8 57.3,16.8 57.3,15.7 57.3,15.7 52.6,15.7 52.6,16.8 52.7,16.8 52.7,16.8 "/>
<rect x="37.4" y="26.2" class="st1" width="12.6" height="1.1"/>
<rect x="37.4" y="15.7" class="st1" width="12.6" height="1.1"/>
<rect x="34.7" y="28.7" class="st1" width="25.4" height="1.1"/>
<path class="st1" d="M36.2,7.8h22.4C59.9,7.8,61,7,61,5.9c0-1-1.1-1.9-2.5-1.9H36.2c-1.4,0-2.5,0.8-2.5,1.9
	C33.7,7,34.8,7.8,36.2,7.8z"/>
<rect x="37.4" y="18.3" class="st1" width="12.6" height="1.1"/>
<rect x="37.4" y="23.6" class="st1" width="12.6" height="1.1"/>
<rect x="34.7" y="9.7" class="st1" width="12" height="2"/>
<rect x="52.7" y="26.2" class="st1" width="4.6" height="1.1"/>
<rect x="34.7" y="13.5" class="st1" width="25.4" height="1.1"/>
<rect x="52.7" y="20.9" class="st1" width="4.6" height="1.1"/>
<polygon class="st1" points="57.3,16.8 57.3,16.8 57.3,15.7 57.3,15.7 52.6,15.7 52.6,16.8 52.7,16.8 52.7,16.8 "/>
<rect x="34.7" y="9.7" class="st1" width="12" height="2"/>
<polygon class="st1" points="52.6,19.5 52.7,19.5 57.3,19.5 57.3,18.3 52.7,18.3 52.6,18.3 "/>
<rect x="34.7" y="13.5" class="st1" width="25.4" height="1.1"/>
<rect x="52.7" y="20.9" class="st1" width="4.6" height="1.1"/>
<rect x="52.7" y="26.2" class="st1" width="4.6" height="1.1"/>
<rect x="52.7" y="23.6" class="st1" width="4.6" height="1.1"/>
<rect x="37.4" y="18.3" class="st1" width="12.6" height="1.1"/>
<path class="st1" d="M36.2,7.8h22.4C59.9,7.8,61,7,61,5.9c0-1-1.1-1.9-2.5-1.9H36.2c-1.4,0-2.5,0.8-2.5,1.9
	C33.7,7,34.8,7.8,36.2,7.8z"/>
<rect x="37.4" y="15.7" class="st1" width="12.6" height="1.1"/>
<rect x="34.7" y="28.7" class="st1" width="25.4" height="1.1"/>
<rect x="37.4" y="26.2" class="st1" width="12.6" height="1.1"/>
<rect x="37.4" y="20.9" class="st1" width="12.6" height="1.1"/>
<rect x="37.4" y="23.6" class="st1" width="12.6" height="1.1"/>
<path class="st1" d="M31.9,36.8v-2.2h-1.4c-1.2,0-2.2,1-2.2,2.2s1,2.2,2.2,2.2h33.7c1.2,0,2.2-1,2.2-2.2s-1-2.2-2.2-2.2h-1.5v2.2
	H31.9z"/>
<rect x="37.4" y="32" class="st1" width="10" height="1.3"/>
<path class="st1" d="M62.9,33.3h2.1c1.9,0,3.4,1.6,3.4,3.5s-1.5,3.5-3.4,3.5H29.8c-1.9,0-3.4-1.6-3.4-3.5s1.5-3.5,3.4-3.5h2.1V20.9
	H10.4v35.3h72.4V20.9h-20V33.3z"/>
<path class="st1" d="M52.9,33.1c0-0.3,0.1-0.5,0.4-0.7c0.2-0.2,0.6-0.3,1-0.3l-0.6,1.2H55l0.5-0.9c0,0,0.1,0,0.1,0.1
	c0.1,0.1,0.2,0.1,0.2,0.1c0,0,0.1,0,0.1,0c0.1,0,0.2-0.1,0.4-0.4s0.3-0.3,0.3-0.4c0,0,0-0.1-0.1-0.1c-0.2-0.1-0.4-0.2-0.6-0.3
	l0.3-0.5l-1.2-0.4l-0.3,0.6c-0.2,0-0.3,0-0.5,0c-0.9,0-1.6,0.2-2.2,0.6c-0.6,0.4-0.8,0.8-0.8,1.3c0,0.1,0,0.2,0,0.2H53
	C53,33.3,52.9,33.2,52.9,33.1z"/>
<path class="st0" d="M53.3,32.4c-0.2,0.2-0.4,0.4-0.4,0.7c0,0.1,0,0.2,0.1,0.2h0.7l0.6-1.2C53.9,32.2,53.5,32.3,53.3,32.4z"/>
<path class="st0" d="M81.9,17.9H62.9V0H31.9v17.9H11.5c-2.1,0-3.7,1.3-3.7,2.9v37.7h77.8V20.8C85.6,19.2,84,17.9,81.9,17.9z M36.2,4
	h22.4C59.9,4,61,4.9,61,5.9c0,1-1.1,1.9-2.5,1.9H36.2c-1.4,0-2.5-0.8-2.5-1.9C33.7,4.9,34.8,4,36.2,4z M50,18.3v1.1H37.4v-1.1H50z
	 M37.4,16.8v-1.1H50v1.1H37.4z M50,20.9v1.1H37.4v-1.1H50z M50,23.6v1.1H37.4v-1.1H50z M50,26.2v1.1H37.4v-1.1H50z M60.1,28.7v1.1
	H34.7v-1.1H60.1z M52.6,16.8v-1.1h4.8v0v1.1v0h-4.6v0H52.6z M52.7,18.3h4.6v1.1h-4.6h-0.2v-1.1H52.7z M52.7,24.7v-1.1h4.6v1.1H52.7z
	 M57.3,26.2v1.1h-4.6v-1.1H57.3z M52.7,22.1v-1.1h4.6v1.1H52.7z M34.7,14.6v-1.1h25.4v1.1H34.7z M34.7,11.8v-2h12v2H34.7z
	 M82.9,56.2H10.4V20.9h21.5v12.5h5.5V32h10v1.3h3.8c0-0.1,0-0.1,0-0.2c0-0.5,0.3-1,0.8-1.3c0.6-0.4,1.3-0.6,2.2-0.6
	c0.2,0,0.4,0,0.5,0l0.3-0.6l1.2,0.4L56,31.4c0.2,0.1,0.4,0.2,0.6,0.3c0.1,0,0.1,0.1,0.1,0.1c0,0-0.1,0.2-0.3,0.4s-0.3,0.3-0.4,0.4
	c0,0-0.1,0-0.1,0c0,0-0.1,0-0.2-0.1c0,0-0.1,0-0.1-0.1L55,33.3h7.7v1.2h1.5c1.2,0,2.2,1,2.2,2.2s-1,2.2-2.2,2.2H30.5
	c-1.2,0-2.2-1-2.2-2.2s1-2.2,2.2-2.2h1.4v-1.2h-2.1c-1.9,0-3.4,1.6-3.4,3.5s1.5,3.5,3.4,3.5h35.1c1.9,0,3.4-1.6,3.4-3.5
	s-1.5-3.5-3.4-3.5h-2.1V20.9h20V56.2z"/>
<path class="st0" d="M56.1,34.7C55.6,34.9,55,35,54.3,35c-0.1,0-0.1,0-0.2,0l-0.6,1.1l-1.2-0.4l0.5-0.9c-0.2,0-0.3-0.1-0.5-0.2
	c-0.1,0-0.1-0.1-0.2-0.1H31.9v2.2h30.8v-2.2h-6.4C56.3,34.6,56.2,34.6,56.1,34.7z"/>
<path class="st0" d="M53.3,33.8c0,0,0.1,0,0.1,0.1l0.2-0.5H53C53,33.5,53.1,33.6,53.3,33.8z"/>
<path class="st0" d="M55,33.3L54.6,34c0.2,0,0.3,0,0.5-0.1c0.2,0,0.3-0.1,0.5-0.2c0.1-0.1,0.2-0.1,0.2-0.1c0,0,0.1,0,0.1,0
	c0,0,0.2,0.1,0.4,0.3c0.2,0.2,0.3,0.3,0.3,0.3c0,0,0,0.1-0.1,0.1c-0.1,0-0.1,0.1-0.2,0.1h6.4v-1.2H55z"/>
<path class="st0" d="M52.2,34.6c-0.1,0-0.1-0.1-0.2-0.1c-0.5-0.3-0.8-0.7-0.8-1.1h-3.8h-10h-5.5v1.2H52.2z"/>
</svg>
