<?xml version="1.0" encoding="utf-8"?>
<!-- Generator: Adobe Illustrator 24.0.2, SVG Export Plug-In . SVG Version: 6.00 Build 0)  -->
<svg version="1.1" id="Capa_1" xmlns="http://www.w3.org/2000/svg" xmlns:xlink="http://www.w3.org/1999/xlink" x="0px" y="0px"
	 viewBox="0 0 93.3 64" style="enable-background:new 0 0 93.3 64;" xml:space="preserve">
<style type="text/css">
	.st0{fill:none;}
	.st1{fill:#4D91EA;}
</style>
<polygon class="st0" points="71.4,11.7 72.4,11.7 72.4,2.5 23,2.5 23,11.7 26.6,11.7 "/>
<path class="st0" d="M25.9,57.6H47c0.8,0,1.4-0.6,1.4-1.4v0c0-0.8-0.6-1.4-1.4-1.4H25.9c-0.8,0-1.4,0.6-1.4,1.4v0
	C24.5,56.9,25.2,57.6,25.9,57.6z"/>
<path class="st0" d="M25.9,52.4H29h34h4.4c0.8,0,1.4-0.6,1.4-1.4s-0.6-1.4-1.4-1.4h-4.2H29h-3.1c-0.8,0-1.4,0.6-1.4,1.4
	S25.2,52.4,25.9,52.4z"/>
<path class="st1" d="M75.9,42.2v-2.5c0-0.8-0.6-1.4-1.4-1.4h-5.4h-2.6H26.2h-1.1h-5.2c-0.8,0-1.4,0.6-1.4,1.4v2.5v6.3v11.6v2.5
	c0,0.8,0.6,1.4,1.4,1.4h5.2h1.1h43.1c0.5,0,1,0,1.5-0.1h3.7c0.8,0,1.4-0.6,1.4-1.4v-2.3c0,0,0,0,0-0.1V48.5L75.9,42.2
	C75.9,42.2,75.9,42.2,75.9,42.2z M48.4,56.2c0,0.8-0.6,1.4-1.4,1.4H25.9c-0.8,0-1.4-0.6-1.4-1.4v0c0-0.8,0.6-1.4,1.4-1.4H47
	C47.8,54.8,48.4,55.4,48.4,56.2L48.4,56.2z M67.4,52.4H63H29h-3.1c-0.8,0-1.4-0.6-1.4-1.4s0.6-1.4,1.4-1.4H29h34.2h4.2
	c0.8,0,1.4,0.6,1.4,1.4S68.1,52.4,67.4,52.4z M25.9,44.6H29h34.2h4.2c0.8,0,1.4,0.6,1.4,1.4s-0.6,1.4-1.4,1.4H63H29h-3.1
	c-0.8,0-1.4-0.6-1.4-1.4S25.2,44.6,25.9,44.6z"/>
<path class="st0" d="M80.4,25c-0.1-0.2-0.1-0.3-0.2-0.4c0-0.1,0-0.1,0-0.1c0-0.1-0.1-0.2-0.2-0.3c-0.1-0.1-0.1-0.1-0.1-0.1
	c-0.1,0-0.2-0.1-0.3-0.2c0-0.1-0.1-0.1-0.1-0.1c-0.1-0.1-0.2-0.2-0.3-0.2h-0.1c-0.1,0-0.2-0.1-0.3-0.1h-0.1c-0.1,0-0.3,0-0.4,0
	c-0.1,0-0.1,0-0.1,0c-0.1,0-0.1,0-0.1,0c-0.1,0-0.1,0-0.1,0s-0.1,0-0.2,0c-0.1,0-0.1,0-0.1,0h-0.1c-0.1,0-0.2,0.1-0.3,0.1
	c0,0.1-0.1,0.1-0.1,0.1c-0.1,0-0.2,0-0.3,0.1l-0.1,0.1c-0.1,0-0.2,0.1-0.3,0.2l-0.1,0.1c-0.1,0.1-0.1,0.2-0.2,0.3
	c-0.1,0-0.1,0.1-0.1,0.1c0,0.1-0.1,0.2-0.1,0.3c-0.1,0-0.1,0.1-0.1,0.1c0,0.1-0.1,0.2-0.1,0.3v0.1c0,0.1,0,0.1,0,0.1
	c0,0.2,0,0.3,0,0.4c0,0.1,0,0.3,0,0.4c0,0.1,0,0.1,0,0.1c0,0.1,0,0.3,0.1,0.4c0,0.1,0,0.1,0,0.1c0.1,0.2,0.1,0.3,0.2,0.4
	c0,0.1,0.1,0.2,0.2,0.3c0.1,0.1,0.1,0.1,0.1,0.1c0.1,0.1,0.2,0.1,0.3,0.2c0,0.1,0.1,0.1,0.1,0.1c0.1,0,0.2,0.1,0.4,0.2
	c0,0.1,0.1,0.1,0.1,0.1c0.1,0,0.2,0.1,0.3,0.1h0.1c0.1,0,0.2,0,0.3,0c0.1,0,0.1,0,0.1,0c0.1,0,0.1,0,0.1,0c0.1,0,0.1,0,0.1,0
	c0.1,0,0.2,0,0.3,0s0.1,0,0.1,0h0.1c0.1,0,0.2-0.1,0.3-0.1c0-0.1,0.1-0.1,0.1-0.1c0.1,0,0.2,0,0.3-0.1l0.1-0.1
	c0.1,0,0.2-0.1,0.3-0.2l0.1-0.1c0.1-0.1,0.1-0.2,0.2-0.3c0.1,0,0.1-0.1,0.1-0.1c0-0.1,0.1-0.2,0.1-0.3c0.1,0,0.1-0.1,0.1-0.1
	c0-0.1,0.1-0.2,0.1-0.3v-0.1c0-0.1,0-0.1,0-0.1c0-0.2,0-0.3,0-0.4c0-0.2,0-0.4-0.1-0.6C80.5,25.3,80.5,25.1,80.4,25z"/>
<path class="st0" d="M71.2,23.7c-1.3,0-2.4,1.1-2.4,2.4c0,1.3,1.1,2.4,2.4,2.4c1.4,0,2.6-1.1,2.4-2.4C73.6,24.8,72.5,23.7,71.2,23.7
	z"/>
<path class="st1" d="M90.7,17.5h-5.3v-1.8V14c0-1.3-1-2.3-2.3-2.3h-6.2V0H18.3v11.7h-6.8c-1.3,0-2.3,1-2.3,2.3v1.7v1.8H2.6
	c-1.4,0-2.6,1.1-2.6,2.6v3.6v18.7v3.5c0,1.4,1.1,2.6,2.6,2.6h7.7h4.1v-10v-0.7c0-1.1,0.9-1.9,1.9-1.9h61.8c1,0,1.8,0.8,1.8,1.8v0.7
	v10.1h3h7.7c1.4,0,2.6-1.1,2.6-2.6V20.1C93.3,18.6,92.1,17.5,90.7,17.5z M23,2.5h49.4v9.2h-1H26.6H23V2.5z M15.7,17.5v-1.6
	c0-0.8,0.6-1.4,1.4-1.4h61.3c0.8,0,1.4,0.6,1.4,1.4v1.6H15.7z M71.2,28.5c-1.3,0-2.4-1.1-2.4-2.4c0-1.3,1.1-2.4,2.4-2.4
	c1.3,0,2.4,1.1,2.4,2.4C73.8,27.4,72.6,28.5,71.2,28.5z M80.6,26.4C80.6,26.4,80.6,26.4,80.6,26.4v0.2c0,0.1-0.1,0.2-0.1,0.3
	c0,0,0,0.1-0.1,0.1c0,0.1-0.1,0.2-0.1,0.3c0,0,0,0.1-0.1,0.1c-0.1,0.1-0.1,0.2-0.2,0.3l-0.1,0.1c-0.1,0.1-0.2,0.2-0.3,0.2l-0.1,0.1
	c-0.1,0.1-0.2,0.1-0.3,0.1c0,0-0.1,0-0.1,0.1c-0.1,0-0.2,0.1-0.3,0.1h-0.1c0,0,0,0-0.1,0s-0.2,0-0.3,0c0,0,0,0-0.1,0c0,0,0,0-0.1,0
	c0,0,0,0-0.1,0c-0.1,0-0.2,0-0.3,0h-0.1c-0.1,0-0.2-0.1-0.3-0.1c0,0-0.1,0-0.1-0.1C77,28.1,76.9,28,76.8,28c0,0-0.1,0-0.1-0.1
	c-0.1-0.1-0.2-0.1-0.3-0.2c0,0,0,0-0.1-0.1c-0.1-0.1-0.2-0.2-0.2-0.3c-0.1-0.1-0.1-0.2-0.2-0.4c0,0,0,0,0-0.1
	c-0.1-0.1-0.1-0.3-0.1-0.4c0,0,0,0,0-0.1c0-0.1,0-0.3,0-0.4c0-0.1,0-0.2,0-0.4c0,0,0,0,0-0.1v-0.1c0-0.1,0.1-0.2,0.1-0.3
	c0,0,0-0.1,0.1-0.1c0-0.1,0.1-0.2,0.1-0.3c0,0,0-0.1,0.1-0.1c0.1-0.1,0.1-0.2,0.2-0.3l0.1-0.1c0.1-0.1,0.2-0.2,0.3-0.2l0.1-0.1
	c0.1-0.1,0.2-0.1,0.3-0.1c0,0,0.1,0,0.1-0.1c0.1,0,0.2-0.1,0.3-0.1h0.1c0,0,0,0,0.1,0c0.1,0,0.2,0,0.2,0s0,0,0.1,0c0,0,0,0,0.1,0
	c0,0,0,0,0.1,0c0.1,0,0.3,0,0.4,0h0.1c0.1,0,0.2,0.1,0.3,0.1h0.1c0.1,0,0.2,0.1,0.3,0.2c0,0,0.1,0,0.1,0.1c0.1,0.1,0.2,0.2,0.3,0.2
	c0,0,0,0,0.1,0.1c0.1,0.1,0.2,0.2,0.2,0.3c0,0,0,0,0,0.1c0.1,0.1,0.1,0.2,0.2,0.4c0.1,0.1,0.1,0.3,0.1,0.4c0.1,0.2,0.1,0.4,0.1,0.6
	C80.6,26.1,80.6,26.2,80.6,26.4z"/>
</svg>
