<?xml version="1.0" encoding="utf-8"?>
<!-- Generator: Adobe Illustrator 24.0.2, SVG Export Plug-In . SVG Version: 6.00 Build 0)  -->
<svg version="1.1" id="Capa_1" xmlns="http://www.w3.org/2000/svg" xmlns:xlink="http://www.w3.org/1999/xlink" x="0px" y="0px"
	 viewBox="0 0 548.2 219.8" style="enable-background:new 0 0 548.2 219.8;" xml:space="preserve">
<style type="text/css">
	.st0{fill:#010000;}
	.st1{fill:#272162;}
	.st2{fill:#00AEF0;}
</style>
<g>
	<g>
		<path class="st0" d="M533.3,87.6c-2.7,8-7.4,14.9-14.1,20.9c-6.8,5.9-14.2,11.5-22.5,16.8c5.6,4.8,10.1,10.1,13.4,16
			c3.4,5.9,5.2,13,5.3,21.4c0,9.7-2.9,18.3-8.7,25.9c-4.8,6.8-11.8,12.3-20.8,16.7c-8.9,4-17.8,6-26.9,6c-9.4,0-17.4-2.4-23.7-7.1
			c-6.3-4.7-9.5-11.1-9.5-19.3c0-12.6,5.6-24.4,16.8-35.1c2.1-2.2,4.4-4.2,7-6.2c2.5-1.9,5.1-3.8,7.8-5.6c-2.5-1.7-5.2-3.4-8-5.2
			s-5.7-3.6-8.8-5.6c-6.8-4.2-13.7-8.6-20.6-13.4c-7.1-4.8-13.4-10.3-19.2-16.7c-5.8-6.3-10.6-13.5-14.3-21.6
			c-3.7-8.1-5.6-17.5-5.6-28.3c0-6.8,1.7-12.9,5.2-18.2c1.7-2.8,3.9-5.3,6.3-7.4c2.5-2.2,5.2-4,8.1-5.5c5.4-2.6,11-3.9,17-3.9
			c7.3-0.3,13.3,0.5,17.9,2.6s8.1,5,10.4,8.7c2.4,3.7,3.7,8,4.2,12.7c0.5,4.8,0.3,9.7-0.7,14.8c-2.4,11.2-7,21.9-13.9,32.1
			c4.4,4.6,9.5,8.8,15.3,12.6c5.8,3.8,11.8,7.4,17.9,11c3.3,2,6.6,4,10,6s6.6,4.1,9.7,6.2c7.9-4.9,14.9-10.1,21.1-15.2
			c6.2-5.3,10.4-11.3,12.7-18.2c0.4-1.3,1.3-2.2,2.7-2.8s2.9-0.7,4.4-0.5s2.7,1,3.4,2.1C533.5,85.2,533.7,86.4,533.3,87.6z
			 M437.6,49.5c1-4.4,1.4-8.6,1.2-12.3c-0.2-3.8-1-6.9-2.4-9.3c-1-1.4-2.1-2.5-3.4-3.4c-1.3-0.8-2.8-0.7-4.8,0.4
			c-0.4,0.3-1,0.8-1.9,1.6c-0.9,0.8-1.7,2-2.4,3.7c-0.8,1.7-1.4,3.9-2,6.7c-0.5,2.8-0.9,6.2-0.9,10.4c0,5.4,0.6,10.2,1.9,14.6
			c1.3,4.3,2.9,8.3,5.1,12c2.4-4,4.3-8.1,5.9-12.1C435.6,57.5,436.9,53.5,437.6,49.5z M465.4,144.6c-7.9,5.4-14.6,11.3-19.9,17.7
			c-5.4,6.4-8.1,13.9-8.1,22.5c0,5.1,0.9,8.5,2.7,10.4c1.8,1.8,4.2,2.5,7,2.2c2.8-0.4,5.8-1.8,9.1-4.2c3.3-2.4,6.3-5.3,9.1-8.5
			c2.8-3.4,5.1-7,7-10.9c1.8-3.9,2.7-7.7,2.7-11.2s-0.8-6.8-2.4-9.7C470.8,150.1,468.5,147.3,465.4,144.6z"/>
	</g>
</g>
<path class="st0" d="M213.3,39.3v21.3v9.7v11.6v19.5v1.8v0.8v20.5v21.3c0,0.4,0,0.7,0,1.1s0,0.7,0,1.1c0,8.6-7.9,15.5-17.5,15.5
	c-9.7,0-17.5-7-17.5-15.5c0-0.4,0-0.7,0-1.1s0-0.7,0-1.1v-21.3V104v-0.8v-1.8V81.9V70.4v-9.8V39.3h-35v31v31v31v15.5
	c0,20.3,14.7,37.5,35,43.8c5.5,1.7,11.4,2.6,17.5,2.6s12-0.9,17.5-2.6c20.4-6.3,35-23.6,35-43.8v-15.5v-31V70.4V39.3H213.3z"/>
<path class="st0" d="M96.9,37c-5.5-1.7-11.4-2.6-17.5-2.6H61.9h-35v31v15.5v15.5v31v15.5v15.5v31h35h17.5c6.2,0,12-0.9,17.5-2.6
	c20.4-6.3,35-23.6,35-43.8v-15.5v-31V80.8C132,60.5,117.3,43.3,96.9,37z M96.9,142.8c0,8.6-7.9,15.5-17.5,15.5H61.9v-15.5v-62V65.3
	h17.5c9.7,0,17.5,7,17.5,15.5V142.8L96.9,142.8z"/>
<path class="st0" d="M332.6,42c-5.5-1.7-11.4-2.6-17.5-2.6s-12,0.9-17.5,2.6c-20.4,6.3-35,23.6-35,43.8v15.5v31v15.5
	c0,20.3,14.7,37.5,35,43.8c5.5,1.7,11.4,2.6,17.5,2.6s12-0.9,17.5-2.6c20.4-6.3,35-23.6,35-43.8v-15.5v-31V85.9
	C367.7,65.6,353,48.4,332.6,42z M332.6,120.6v27.7v3.2h-0.4c-1.6,7.1-8.7,12.4-17.2,12.4s-15.5-5.3-17.2-12.4h-0.4v-3.2v-27.7V86
	c0-8.6,7.9-15.5,17.5-15.5s17.5,7,17.5,15.5v34.7L332.6,120.6L332.6,120.6z"/>
<polygon class="st1" points="345.5,120.5 478.2,120.5 478.2,98.4 540,136.8 478.2,175.1 478.2,153 345.5,153 "/>
<polygon class="st2" points="471.3,81.5 338.7,81.5 338.7,59.3 276.9,97.8 338.7,136.1 338.7,114 471.3,114 "/>
</svg>
