<?xml version="1.0" encoding="utf-8"?>
<!-- Generator: Adobe Illustrator 24.0.2, SVG Export Plug-In . SVG Version: 6.00 Build 0)  -->
<svg version="1.1" id="Capa_1" xmlns="http://www.w3.org/2000/svg" xmlns:xlink="http://www.w3.org/1999/xlink" x="0px" y="0px"
	 viewBox="0 0 141.7 141.7" style="enable-background:new 0 0 141.7 141.7;" xml:space="preserve">
<style type="text/css">
	.st0{fill:#838383;}
</style>
<path class="st0" d="M136.5,128.3l-4.5-4.6c-0.2-0.3-0.4-0.6-0.7-0.8l-28.2-28.2c19-23.4,16.6-58.4-7-79
	C74.4-3.2,41.5-2.8,20.2,16.6C-4,38.7-4.7,76.3,18.3,99.3c20.9,20.9,53.8,22.2,76.3,4.1l28.2,28.2c0.2,0.2,0.5,0.4,0.8,0.6l4.4,4.4
	c2.2,2.2,5.8,2.2,8-0.1l0.6-0.6C138.5,133.8,138.5,130.4,136.5,128.3z M92.1,89c-17.9,19.8-49,19.8-66.9,0
	c-15.4-17-15.4-43.3,0-60.3c17.9-19.8,49-19.8,66.9,0C107.4,45.7,107.4,72,92.1,89z"/>
</svg>
