<?xml version="1.0" encoding="utf-8"?>
<!-- Generator: Adobe Illustrator 24.0.2, SVG Export Plug-In . SVG Version: 6.00 Build 0)  -->
<svg version="1.1" id="Capa_1" xmlns="http://www.w3.org/2000/svg" xmlns:xlink="http://www.w3.org/1999/xlink" x="0px" y="0px"
	 viewBox="0 0 93.3 64" style="enable-background:new 0 0 93.3 64;" xml:space="preserve">
<style type="text/css">
	.st0{fill:#4D91EA;}
	.st1{fill:none;}
</style>
<g>
	<path class="st0" d="M50.3,24.7c-2.8-1.6-6.4-0.6-8,2.1s-0.8,6.3,2,8l34.6,20.7c2.8,1.6,6.3,0.8,7.9-2.1c1.6-2.8,0.8-6.3-2-8
		L50.3,24.7z"/>
	<rect x="58.6" y="22.5" transform="matrix(0.5134 -0.8582 0.8582 0.5134 -12.6127 74.7831)" class="st0" width="2.1" height="52"/>
	<path class="st0" d="M87.8,1.7c-5.5-3.4-12.6-1.6-15.9,4c-2,3.5-2.1,7.6-0.5,11c0.5,1,0.3,2-0.3,2.9c-2.4,3-6.5,7.1-10,3.9
		c0,0-4.8-4.5-7.5-1.6l16,9.6l16.2,9.7c1.2-3.8-4.9-5.9-4.9-5.9c-4.5-1.7-2.8-7.2-1.3-10.7c0.5-0.9,1.3-1.6,2.5-1.7
		c3.8-0.1,7.6-2.1,9.6-5.7C94.9,11.9,93.2,5,87.8,1.7z"/>
</g>
<image style="overflow:visible;" width="600" height="403" xlink:href="8948121A.jpg"  transform="matrix(1 0 0 1 200.3564 28.9643)">
</image>
<ellipse class="st1" cx="23.1" cy="4.8" rx="18.1" ry="3.3"/>
<path class="st1" d="M16.8,19.6c-0.2,0-0.4,0-0.5,0h-0.5h-1.1v0.6v0.3v0.3v0.6v0.3v0.3v0.6h1.1h0.5c0.2,0,0.4,0,0.5,0
	c0.6-0.1,1.1-0.4,1.1-0.8v-0.3v-0.6v-0.3C17.9,20,17.5,19.7,16.8,19.6z M16.8,21.5c0,0.2-0.2,0.3-0.5,0.3h-0.5v-0.3v-1.2v-0.3h0.5
	c0.3,0,0.5,0.1,0.5,0.3V21.5z"/>
<path class="st1" d="M28.7,21.1c-0.1,0-0.2-0.1-0.3-0.1c-0.1,0-0.2-0.1-0.3-0.1c-0.2,0-0.3-0.1-0.5-0.2v-0.1h-0.3
	c-0.1-0.1-0.2-0.1-0.3-0.2c0.2-0.2,0.4-0.4,0.5-0.6c0-0.1,0-0.2,0-0.3s0-0.2-0.1-0.2s-0.2-0.1-0.3-0.2c-0.2,0-0.3,0-0.6,0
	c-0.2,0-0.4,0-0.5,0.1c-0.1,0-0.2,0-0.2,0.1c-0.1,0-0.2,0.1-0.2,0.1c-0.1,0.1-0.2,0.2-0.2,0.3c0,0.2,0,0.4,0.2,0.5
	c0.1,0.1,0.2,0.2,0.4,0.3h-0.4v-0.1c0-0.4-0.5-0.7-1.1-0.8c-0.2,0-0.4,0-0.5,0c-0.2,0-0.4,0-0.5,0c-0.6,0.1-1.1,0.4-1.1,0.8v0.3v0.6
	v0.3c0,0.4,0.5,0.7,1.1,0.8c0.2,0,0.4,0,0.5,0c0.2,0,0.4,0,0.5,0c0.6-0.1,1.1-0.4,1.1-0.8v-0.1h2.1c-0.1,0-0.1,0.1-0.2,0.1
	c-0.4,0.2-0.5,0.4-0.5,0.7c0,0.2,0.1,0.3,0.3,0.4c0.2,0.1,0.5,0.1,0.7,0.1c0.2,0,0.5,0,0.8-0.1c0.3-0.1,0.5-0.2,0.7-0.3
	c0.2-0.1,0.3-0.3,0.3-0.5c0-0.1-0.1-0.3-0.2-0.4s-0.2-0.2-0.4-0.3c0.2-0.1,0.5-0.2,0.7-0.3c0.2-0.1,0.4-0.2,0.5-0.4c0,0,0,0,0,0
	c0,0-0.1,0-0.1,0c0,0-0.1,0-0.1,0s-0.1,0-0.1,0c-0.1,0.1-0.2,0.2-0.4,0.3C29.1,20.9,28.9,21,28.7,21.1z M24.3,21.5L24.3,21.5
	c0,0.2-0.3,0.3-0.5,0.3c-0.2,0-0.5-0.1-0.5-0.2v0V21v-0.6c0-0.2,0.2-0.3,0.5-0.3c0.3,0,0.5,0.1,0.5,0.3l-1,0.4l1,0.4V21.5z M25.4,21
	L25.4,21l1.2-0.1c0.1,0,0.1,0,0.2,0.1H25.4z M26.8,20.2c-0.1-0.1-0.1-0.1-0.2-0.2s0-0.2,0-0.3c0-0.1,0-0.1,0-0.2c0,0,0-0.1,0.1-0.1
	c0,0,0,0,0.1-0.1l0,0c0.1,0,0.1,0,0.2,0c0,0,0.1,0,0.1,0.1c0,0,0.1,0.1,0.1,0.2c0,0,0,0.1,0,0.2s-0.1,0.1-0.2,0.2
	C26.9,20,26.9,20.1,26.8,20.2z M28.2,22c0,0.1-0.1,0.1-0.2,0.2c-0.1,0-0.2,0.1-0.3,0.1c-0.1,0-0.2,0.1-0.3,0.1s-0.2,0-0.2,0
	c0,0-0.1-0.1-0.1-0.2c0-0.1,0.1-0.3,0.2-0.4c0.1-0.1,0.2-0.1,0.3-0.2v0.2l0.4-0.2c0,0,0,0,0,0c0,0,0.1,0.1,0.1,0.2S28.3,22,28.2,22z
	"/>
<path class="st1" d="M22.4,14.6c-5.6,0-10.1,2.9-10.1,6.4s4.5,6.4,10.1,6.4s10.1-2.9,10.1-6.4S28,14.6,22.4,14.6z M22.4,26.6
	c-4.8,0-8.6-2.5-8.6-5.5s3.9-5.5,8.6-5.5s8.6,2.5,8.6,5.5S27.2,26.6,22.4,26.6z"/>
<path class="st1" d="M20.6,19.5v0.4v0.2v0.2v0.4v0v0v0.4v0.4v0v0c0,0.2-0.2,0.3-0.5,0.3s-0.5-0.1-0.5-0.3v0v0v-0.4v-0.4v0v0v-0.4
	v-0.2v-0.2v-0.4h-1.1v0.6v0.6v0.6v0.3c0,0.4,0.5,0.7,1.1,0.8c0.2,0,0.4,0,0.5,0c0.2,0,0.4,0,0.5,0c0.6-0.1,1.1-0.4,1.1-0.8v-0.3
	v-0.6v-0.6v-0.6L20.6,19.5L20.6,19.5z"/>
<path class="st1" d="M22.4,12.7c-7.1,0-12.9,3.7-12.9,8.2s5.8,8.2,12.9,8.2s12.9-3.7,12.9-8.2S29.5,12.7,22.4,12.7z M22.4,28.3
	C16.1,28.3,11,25.1,11,21c0-4,5.1-7.3,11.4-7.3S33.8,17,33.8,21C33.8,25.1,28.7,28.3,22.4,28.3z"/>
<path class="st1" d="M5.5,30.2H5.2V33c0.9,0.2,2,0.5,3.3,0.7c3.8,0.6,8.9,0.9,14.6,0.9c5,0,9.6-0.3,13.1-0.7l1.6-2.5l2.3,1.1
	c-0.3-0.7-0.4-1.3-0.5-1.9c-3.4,0.5-9.4,0.8-16.3,0.8C15.2,31.3,8.3,30.8,5.5,30.2z"/>
<path class="st1" d="M36.4,58.2c-12.1-3.2-24-0.9-27.9,0c-0.6,0.1-0.6,0.6-0.1,0.8c13.2,4.8,24.6,1.3,28.1,0
	C36.9,58.8,36.9,58.4,36.4,58.2z"/>
<path class="st1" d="M8.7,44.7c-0.9,0-1.6,0.5-1.6,1v7.8c0,1.2,1.7,2.1,3.6,1.8c9.3-1.3,20.3-0.7,25.6-0.3c1.7,0.1,3.3-0.7,3.3-1.9
	v-7.5c0-0.6-0.7-1-1.6-1H8.7z"/>
<path class="st0" d="M23.4,40.3L23.4,40.3c-0.1,0-0.1,0-0.2,0c-0.1,0-0.1,0-0.2,0l0,0C12.3,40.4,7.1,39,7.1,39l0.2,1.1v3.7
	c0,0.6-0.9,1-1.8,0.9c-0.2,0-0.5-0.1-0.7-0.1c-0.7-0.2-1.5,0.2-1.5,0.7v11.1l-2.7,2c-1.1,0.8-0.5,2,1.1,2.3l1.7,0.3
	c0.5,0.1,1,0.2,1.5,0.4c6.6,2.9,16.3,2.7,18.3,2.6c2.1,0.1,11.9,0.2,18.6-2.6c0.5-0.2,1-0.3,1.5-0.4l1.7-0.3
	c1.6-0.3,2.3-1.5,1.2-2.3l-2.8-2V45.2c0-0.5-0.8-0.9-1.6-0.7c-0.2,0.1-0.5,0.1-0.7,0.1c-0.9,0.2-1.8-0.3-1.8-0.9v-3.7l0.1-0.5
	l-0.7-0.4C36.8,39.6,31.8,40.4,23.4,40.3z M36.5,59c-3.5,1.3-14.9,4.9-28.1,0c-0.5-0.2-0.5-0.7,0.1-0.8c3.9-0.9,15.8-3.1,27.9,0
	C36.9,58.4,36.9,58.8,36.5,59z M39.6,45.7v7.5c0,1.1-1.5,2-3.3,1.9c-5.4-0.4-16.4-1-25.6,0.3c-1.8,0.3-3.6-0.6-3.6-1.8v-7.8
	c0-0.6,0.7-1,1.6-1h29.2C38.8,44.7,39.6,45.2,39.6,45.7z"/>
<path class="st0" d="M22.4,13.8C16.1,13.8,11,17,11,21c0,4,5.1,7.3,11.4,7.3s11.4-3.3,11.4-7.3C33.8,17,28.7,13.8,22.4,13.8z
	 M22.4,27.5c-5.6,0-10.1-2.9-10.1-6.4s4.5-6.4,10.1-6.4s10.1,2.9,10.1,6.4S28,27.5,22.4,27.5z"/>
<path class="st0" d="M24.3,20.4c0-0.2-0.3-0.3-0.5-0.3c-0.3,0-0.5,0.1-0.5,0.3V21v0.5v0c0,0.1,0.3,0.2,0.5,0.2
	c0.2,0,0.5-0.1,0.5-0.2v0v-0.4l-1-0.4L24.3,20.4z"/>
<path class="st0" d="M25.4,21L25.4,21l1.4,0.1c-0.1,0-0.1-0.1-0.2-0.1H25.4z"/>
<path class="st0" d="M27.2,19.7c0-0.1,0-0.2,0-0.2c0-0.1,0-0.1-0.1-0.2c0,0-0.1,0-0.1-0.1c0,0-0.1,0-0.2,0l0,0c0,0,0,0-0.1,0.1
	c0,0,0,0.1-0.1,0.1c0,0,0,0.1,0,0.2c0,0.1,0,0.2,0,0.3s0.1,0.1,0.2,0.2c0.1-0.1,0.1-0.1,0.2-0.2C27.1,19.9,27.1,19.8,27.2,19.7z"/>
<path class="st0" d="M28.2,21.6l-0.4,0.2v-0.2c-0.1,0.1-0.2,0.1-0.3,0.2c-0.2,0.1-0.2,0.3-0.2,0.4c0,0.1,0,0.1,0.1,0.2
	c0,0,0.1,0,0.2,0s0.2,0,0.3-0.1c0.1,0,0.2-0.1,0.3-0.1c0.1-0.1,0.2-0.1,0.2-0.2s0.1-0.1,0.1-0.2S28.3,21.7,28.2,21.6
	C28.2,21.6,28.2,21.6,28.2,21.6z"/>
<path class="st0" d="M22.4,15.6c-4.8,0-8.6,2.5-8.6,5.5s3.9,5.5,8.6,5.5s8.6-2.5,8.6-5.5S27.2,15.6,22.4,15.6z M17.9,20.7v0.6v0.3
	c0,0.4-0.5,0.7-1.1,0.8c-0.2,0-0.3,0-0.5,0h-0.5h-1.1v-0.6v-0.3v-0.3v-0.6v-0.3v-0.3v-0.6h1.1h0.5c0.2,0,0.4,0,0.5,0
	c0.7,0.1,1.1,0.4,1.1,0.8V20.7z M21.7,20.1v0.6v0.6v0.3c0,0.4-0.5,0.7-1.1,0.8c-0.2,0-0.3,0-0.5,0c-0.2,0-0.4,0-0.5,0
	c-0.7-0.1-1.1-0.4-1.1-0.8v-0.3v-0.6v-0.6v-0.6h1.1v0.4v0.2v0.2v0.4v0v0v0.4v0.4v0v0c0,0.2,0.2,0.3,0.5,0.3s0.5-0.1,0.5-0.3v0v0
	v-0.4v-0.4v0v0v-0.4v-0.2v-0.2v-0.4v0h1.1V20.1z M29.7,20.4C29.7,20.4,29.8,20.4,29.7,20.4c0.1,0,0.2-0.1,0.2,0c0,0,0.1,0,0.1,0
	c0.1,0,0.1,0,0,0c-0.1,0.1-0.2,0.3-0.5,0.4c-0.2,0.1-0.5,0.2-0.7,0.3c0.2,0.1,0.3,0.2,0.4,0.3s0.2,0.2,0.2,0.4
	c0,0.2-0.1,0.3-0.3,0.5c-0.2,0.1-0.4,0.2-0.7,0.3c-0.3,0.1-0.6,0.1-0.8,0.1c-0.3,0-0.5,0-0.7-0.1c-0.2-0.1-0.3-0.2-0.3-0.4
	c0-0.2,0.2-0.4,0.5-0.7c0.1,0,0.1-0.1,0.2-0.1h-2.1v0.1c0,0.4-0.5,0.7-1.1,0.8c-0.2,0-0.3,0-0.5,0c-0.2,0-0.4,0-0.5,0
	c-0.7-0.1-1.1-0.4-1.1-0.8v-0.3v-0.6v-0.3c0-0.4,0.5-0.7,1.1-0.8c0.2,0,0.3,0,0.5,0c0.2,0,0.4,0,0.5,0c0.7,0.1,1.1,0.4,1.1,0.8v0.1
	h0.4c-0.1-0.1-0.3-0.2-0.4-0.3c-0.1-0.1-0.2-0.3-0.2-0.5c0-0.1,0-0.2,0.2-0.3c0,0,0.1-0.1,0.2-0.1c0.1,0,0.2-0.1,0.2-0.1
	c0.2,0,0.3-0.1,0.5-0.1c0.2,0,0.4,0,0.6,0c0.2,0,0.2,0.1,0.3,0.2s0.1,0.1,0.1,0.2s0,0.2,0,0.3c-0.1,0.2-0.2,0.4-0.5,0.6
	c0.1,0.1,0.2,0.1,0.3,0.2h0.3v0.1c0.1,0.1,0.3,0.1,0.5,0.2c0.1,0,0.2,0.1,0.3,0.1c0.1,0,0.2,0.1,0.3,0.1c0.2-0.1,0.5-0.2,0.7-0.3
	C29.5,20.7,29.7,20.5,29.7,20.4z"/>
<path class="st0" d="M16.3,20.1h-0.5v0.3v1.2v0.3h0.5c0.3,0,0.5-0.1,0.5-0.3v-1.2C16.8,20.2,16.6,20.1,16.3,20.1z"/>
<path class="st0" d="M42.4,43.1c0.6-0.1,1.1-0.3,1.6-0.5c0.1,0,0.2-0.1,0.4-0.1l-2.9-1.7v2.3H42.4z"/>
<path class="st0" d="M36.3,33.8c-3.6,0.4-8.2,0.7-13.1,0.7c-5.7,0-10.9-0.3-14.6-0.9c-1.3-0.2-2.4-0.4-3.3-0.7v-2.8h0.3
	c2.8,0.6,9.7,1.1,17.8,1.1c6.9,0,12.9-0.3,16.3-0.8C39,27.1,40.7,25,40.7,25c2.9-3.3,5.3-3.1,5.3-3.1c0,0,0,0,0.1,0V11.2V5.6
	c0-1-0.8-2-2.2-2.5c-3.6-1.5-8.9-2.5-15.1-3C26.9,0.1,25.1,0,23.1,0c-1.9,0-3.8,0.1-5.6,0.2C11.4,0.6,6.1,1.7,2.5,3.1
	C1.1,3.7,0.2,4.6,0.2,5.7v5.6v25.4v4c0,0.9,0.8,1.7,2,2c0.5,0.2,1,0.3,1.6,0.5h1.3v-5.7C8.8,38.4,15.5,39,23.1,39
	c5.3,0,10.1-0.3,13.8-0.8l-2.5-1.5L36.3,33.8z M22.4,29.1c-7.1,0-12.9-3.7-12.9-8.2s5.8-8.2,12.9-8.2s12.9,3.7,12.9,8.2
	S29.5,29.1,22.4,29.1z M5,4.8C5,3,13.1,1.5,23.1,1.5S41.3,3,41.3,4.8c0,1.8-8.1,3.3-18.1,3.3S5,6.6,5,4.8z"/>
<path class="st0" d="M38.6,39.2l0.7,0.4l0.1-0.6C39.5,39,39.2,39.1,38.6,39.2z"/>
</svg>
