<?xml version="1.0" encoding="utf-8"?>
<!-- Generator: Adobe Illustrator 24.0.2, SVG Export Plug-In . SVG Version: 6.00 Build 0)  -->
<svg version="1.1" id="Capa_1" xmlns="http://www.w3.org/2000/svg" xmlns:xlink="http://www.w3.org/1999/xlink" x="0px" y="0px"
	 viewBox="0 0 277.1 277.1" style="enable-background:new 0 0 277.1 277.1;" xml:space="preserve">
<style type="text/css">
	.st0{fill:#EA581C;}
	.st1{fill:#FFFFFF;}
</style>
<g>
	<circle class="st0" cx="138.5" cy="138.5" r="138.7"/>
	<g>
		<path class="st1" d="M24.5,129l-0.2,1.5c0.1-0.1,0.3-0.2,0.4-0.2L24.5,129z"/>
		<path class="st1" d="M14.6,173.3l0.3-1.3c-0.2-0.3-0.4-0.6-0.6-0.9L14.6,173.3z"/>
		<path class="st1" d="M33.9,185.6l0.1-1c-0.1,0-0.2,0-0.2,0L33.9,185.6z"/>
		<path class="st1" d="M14.3,171.1c0.2,0.3,0.4,0.6,0.6,0.9l4-16L16,138c0,0,0,0,0,0c-1.1,1.4-1.7,3.1-1.9,4.8l-1.6,13.8L14.3,171.1
			z"/>
		<path class="st1" d="M55.1,122.7c-0.8,1.7-1.4,3.4-1.9,5.2l-2.4,28l2.7,29.1h2.7l2.5-29.1L55.1,122.7z"/>
		<path class="st1" d="M66.9,107.1c-1.2,1.1-2.4,2.2-3.5,3.4L60.9,156l2.5,29.1h3.3l2.3-29.6L66.9,107.1z"/>
		<path class="st1" d="M77.5,100.3c-1.3,0.6-2.6,1.3-3.9,2l-2.4,53.1l2.3,29.6h3.7l2.1-31.8L77.5,100.3z"/>
		<path class="st1" d="M44.1,185h1.5l3.2-29.1l-3.1-28.5c-0.7-0.2-1.4-0.3-2.2-0.5L41.2,156L44.1,185z"/>
		<path class="st1" d="M24.5,129.4C24.5,129.4,24.5,129.4,24.5,129.4L21.3,156l3.1,25.1c0.3,0,0.2,0,0.5,0L29,156L24.5,129.4z"/>
		<path class="st1" d="M35.8,126.7c-0.5,0-0.9,0.1-1.4,0.2l-3.5,29l2.9,28.6c0.1,0,0.2,0,0.2,0l4.2-29.2L35.8,126.7z"/>
		<path class="st1" d="M87.9,96.8c-1.4,0.3-2.8,0.7-4.2,1.1l-2.1,55.4l2.1,31.8h4.4l2-31.8L87.9,96.8z"/>
		<path class="st1" d="M120.1,94.6c-1.4,1.5-2.6,3-3.8,4.6c-0.5-0.2-1.1-0.4-1.7-0.6l-1.7,54.7l1.7,31.8h5.5l1-35.8L120.1,94.6z"/>
		<path class="st1" d="M109,96.9c-1.7-0.4-3.3-0.7-5.1-0.9l-1.6,54.9L104,185h5.1l2-33L109,96.9z"/>
		<path class="st1" d="M130.6,85.7c-2,1.3-3.8,2.7-5.6,4.2l-1.4,59.4L125,185h5l2.6-34.7L130.6,85.7z"/>
		<path class="st1" d="M140.9,80.2c-1.9,0.8-3.8,1.7-5.7,2.7l-1.6,72.5l1.2,29.6h6.3l2.2-31.8L140.9,80.2z"/>
		<path class="st1" d="M97.9,95.7c-1.5,0-3,0.1-4.5,0.2l-1.2,57.3l2,31.8H98l2.1-33.8L97.9,95.7z"/>
		<path class="st1" d="M234,123.9c-4.2,0-8.2,0.9-11.9,2.4c-2.2-28.3-27.4-50.6-58.1-50.6c-1.2,0-2.5,0-3.7,0.1c0,0-15,2.8-15.5,7.1
			v102h89.2v0c16.9,0,30.5-13.7,30.5-30.6C264.6,137.6,250.9,123.9,234,123.9z"/>
	</g>
</g>
</svg>
