<?xml version="1.0" encoding="utf-8"?>
<!-- Generator: Adobe Illustrator 24.0.2, SVG Export Plug-In . SVG Version: 6.00 Build 0)  -->
<svg version="1.1" id="Capa_1" xmlns="http://www.w3.org/2000/svg" xmlns:xlink="http://www.w3.org/1999/xlink" x="0px" y="0px"
	 viewBox="0 0 277.1 277.1" style="enable-background:new 0 0 277.1 277.1;" xml:space="preserve">
<style type="text/css">
	.st0{fill:#E73359;}
	.st1{fill:#69C4D0;}
	.st2{fill:#FFFFFF;}
</style>
<g>
	<circle cx="138.5" cy="138.5" r="138.7"/>
	<g>
		<path class="st0" d="M128.3,114.8V152c-2.8-0.8-5.8-1.3-8.8-1.3c-17.1,0-31,13.9-31,31c0,7.2,2.4,13.8,6.5,19
			C84.4,195.8,77,185.1,77,172.6c0-17.1,13.9-31,31-31c3.1,0,6,0.5,8.8,1.3v-28.6c0.9,0,1.8-0.1,2.7-0.1
			C122.5,114.2,125.4,114.4,128.3,114.8z"/>
		<path class="st0" d="M199.2,72.8C182.5,63.6,177.4,47.2,176,37h11v3.1C187.2,46.3,188.9,61.1,199.2,72.8z"/>
		<path class="st0" d="M236.6,88.6v34.7c0,0-24.2,4.1-49.7-15v80.8h-0.4c-3.7,33.8-32.3,60.1-67.1,60.1c-18.5,0-35.2-7.4-47.4-19.5
			c10.4,6.5,22.7,10.3,35.9,10.3c34.8,0,63.4-26.3,67.1-60.1h0.4V99.1c25.5,19.1,49.7,15,49.7,15v-27
			C228.6,87.9,232.4,88.4,236.6,88.6z"/>
		<path class="st1" d="M225.1,79.5v7.6c-12-2.6-20.2-8-25.8-14.3C205.9,76.4,214.3,78.9,225.1,79.5z"/>
		<path class="st1" d="M150.5,154.7c0.1,1.2,0,25.8,0,27c0,17.1-13.9,31-31,31c-9.9,0-18.8-4.7-24.4-11.9c3.9,1.8,8.3,2.8,12.9,2.8
			c17.1,0,31-13.9,31-31c0-1.2,0.1-25.8,0-27l-0.2-33.1c0.1,0,0.1-16.4,0.2-16.4V27.9h36.5v3.1c0.1,1.6,0.2,3.6,0.5,6.1h-25.5v68.2
			c0,0-0.1,2.9-0.1,6.3c0,0.7,0,1.5,0,2.3c0,4-0.1,7.8-0.1,7.8L150.5,154.7z"/>
		<path class="st1" d="M52,181.7c0,18.8,7.7,35.8,20.1,48c-19-11.9-31.6-33.1-31.6-57.2c0-37.3,30.2-67.5,67.5-67.5
			c3,0,5.9,0.2,8.8,0.6v8.6C80.7,115.7,52,145.3,52,181.7z"/>
		<path class="st2" d="M225.1,87.1v27c0,0-24.2,4.1-49.7-15V180H175c-3.7,33.8-32.3,60.1-67.1,60.1c-13.2,0-25.5-3.8-35.9-10.3
			c-12.4-12.2-20.1-29.2-20.1-48c0-36.4,28.8-66,64.8-67.4v28.6c-2.8-0.8-5.8-1.3-8.8-1.3c-17.1,0-31,13.9-31,31
			c0,12.5,7.4,23.3,18.1,28.2c5.7,7.3,14.5,11.9,24.4,11.9c17.1,0,31-13.9,31-31c0-1.2,0.1-25.8,0-27l-0.2-33.1c0,0,0.1-3.8,0.1-7.8
			c0-0.8,0-1.5,0-2.3c0-3.4,0.1-6.3,0.1-6.3V37H176c1.5,10.2,6.5,26.6,23.3,35.8C204.9,79.1,213.1,84.5,225.1,87.1z"/>
	</g>
</g>
</svg>
