<?xml version="1.0" encoding="utf-8"?>
<!-- Generator: Adobe Illustrator 24.0.2, SVG Export Plug-In . SVG Version: 6.00 Build 0)  -->
<svg version="1.1" id="Capa_1" xmlns="http://www.w3.org/2000/svg" xmlns:xlink="http://www.w3.org/1999/xlink" x="0px" y="0px"
	 viewBox="0 0 277.1 277.1" style="enable-background:new 0 0 277.1 277.1;" xml:space="preserve">
<style type="text/css">
	.st0{fill:#1B9338;}
	.st1{fill:#FFFFFF;}
</style>
<g>
	<circle class="st0" cx="138.5" cy="138.5" r="138.7"/>
	<g>
		<path class="st0" d="M140.4,56.5C97.1,56.5,62,91.6,62,135c0,15.9,4.7,30.7,12.9,43.1l-10.3,33.6l34.7-9.9
			c12,7.4,26.1,11.7,41.3,11.7c43.4,0,78.5-35.1,78.5-78.5S183.8,56.5,140.4,56.5z"/>
		<path class="st1" d="M116.3,97.3h-4c-1.2,0-2.4,0.2-3.4,0.8c-6.2,3.2-9.4,12.5-9.4,12.5c-2,11,2.7,20.1,2.7,20.1
			c21.1,38,50.1,43.3,50.1,43.3c23.1,5.9,28.8-7.6,28.8-7.6c1.5-3.3,1.9-6.6,2-8.7c0-1.3-0.7-2.5-1.8-3.1l-16.1-8.5
			c-1.8-0.9-4-0.5-5.2,1.1l-6.3,7.8c-0.9,1.1-2.4,1.5-3.7,1c-16.2-5.8-26-20.3-28.8-25.1c-0.5-0.9-0.4-2.1,0.2-2.9l5.4-6.3
			c1.2-1.4,1.5-3.4,0.7-5.1l-7.9-17.4C118.9,98.1,117.7,97.3,116.3,97.3z"/>
		<path class="st1" d="M140.1,51.3c-46.7,0-84.6,37.9-84.6,84.6c0,15.9,4.4,30.7,12,43.4l-9.7,30.1L52.4,226l6.3-2.1l10.2-3.4
			l30.5-10.3c12.1,6.6,25.9,10.4,40.6,10.4c46.7,0,84.6-37.9,84.6-84.6C224.7,89.2,186.8,51.3,140.1,51.3z M140.1,206.4
			c-7.1,0-14-1.1-20.5-3c-6.6-2-12.7-4.9-18.3-8.6L85,200.2l-10.8,3.6l3.5-10.7l5.2-16c-3.3-4.5-6-9.4-8.1-14.6
			c-3.3-8.2-5.2-17.2-5.2-26.6c0-38.9,31.6-70.5,70.5-70.5c38.9,0,70.5,31.6,70.5,70.5C210.6,174.9,179,206.4,140.1,206.4z"/>
	</g>
</g>
</svg>
