<?xml version="1.0" encoding="utf-8"?>
<!-- Generator: Adobe Illustrator 24.0.2, SVG Export Plug-In . SVG Version: 6.00 Build 0)  -->
<svg version="1.1" id="Capa_1" xmlns="http://www.w3.org/2000/svg" xmlns:xlink="http://www.w3.org/1999/xlink" x="0px" y="0px"
	 viewBox="0 0 277.1 277.1" style="enable-background:new 0 0 277.1 277.1;" xml:space="preserve">
<style type="text/css">
	.st0{fill:#DADADA;}
	.st1{fill:#E30613;}
	.st2{fill:#FFFFFF;}
</style>
<g>
	<circle class="st0" cx="138.5" cy="138.5" r="138.7"/>
	<g>
		<g>
			<path class="st1" d="M223.7,137.8c-0.9-4.6-4.5-8.1-9.1-8.9c-22.9-3.9-48.5-6-75.6-6c-27.5,0-53.5,2.2-76.6,6.2
				c-4.6,0.8-8.1,4.3-9,8.9c-2.9,14.4-4.5,29.7-4.5,45.7c0,15.9,1.6,31.3,4.5,45.6c0.9,4.5,4.5,8.1,9,8.9c23.1,4,49.1,6.2,76.6,6.2
				c27.1,0,52.8-2.2,75.7-6c4.6-0.8,8.2-4.3,9.1-8.9c2.9-14.4,4.5-29.8,4.5-45.8C228.2,167.7,226.6,152.3,223.7,137.8z"/>
		</g>
		<polygon points="105.2,20.9 96.5,52.7 87.7,20.9 74,20.9 89.7,68.2 89.7,101 103.7,101 103.7,68.2 118.9,20.9 		"/>
		<path d="M154.5,51.6c0-6.3-7.8-11.4-17.4-11.4s-17.4,5.1-17.4,11.4c0,0,0,0,0,0.1h0v39.6c0,6.3,7.8,11.4,17.4,11.4
			s17.4-5.1,17.4-11.4V51.6L154.5,51.6C154.5,51.7,154.5,51.7,154.5,51.6z M137.1,91.3c-2.7,0-4.9-1.9-4.9-4.2v-6.7V62.6v-6.7
			c0-2.3,2.2-4.2,4.9-4.2s4.9,1.9,4.9,4.2v6.7v17.8v6.7C142.1,89.4,139.9,91.3,137.1,91.3z"/>
		<path d="M185.8,41.6v43.5c0,1.2-0.5,2.2-1.4,2.9l-2.8,2.2c0,0-5.4,4.8-5.4-3.2V41.6h-12.8v50.1c0,0-0.6,7.6,4.8,9.6
			c0,0,9.3,3,17.6-6.3v5.9h11.9V41.6H185.8z"/>
		<polygon class="st2" points="103.3,146.8 68,146.8 68,156.4 79.9,156.4 79.9,218.7 91.3,218.7 91.3,156.4 103.3,156.4 		"/>
		<path class="st2" d="M128,165.7v38.5c0,1.7-0.7,3.3-1.9,4.5c-0.7,0.7-1.4,1.2-2.1,1.5c0,0-5.1,2.9-5.1-3.3v-41.1h-10.6v45.8
			c0,0-0.1,0.5,0,1.3v0.2h0c0.2,2.2,1.3,5.9,6.3,6.8c0,0,6.8,1.2,13.4-6.4v5.2h10.5v-53H128z"/>
		<path class="st2" d="M169.9,165.3c-4.8-2.3-9.6,1.1-13.2,5.2v-23.6h-10v71.8h10v-3.9c3.6,4.1,8.4,7.5,13.2,5.2c0,0,6.6-3,6.6-11.9
			h0v-15.8V190v-12.8C176.6,168.3,169.9,165.3,169.9,165.3z M166.2,192.2V208c0,0,0.1,1.7-2.1,3.5c0,0-3.4,2.3-7.4-2.1v-33.6
			c4-4.4,7.4-2.1,7.4-2.1c2.1,1.8,2.1,3.5,2.1,3.5V190V192.2z"/>
		<path class="st2" d="M192.7,193.3h9.6h7.1h3.2v-16.5c0-7.1-6.8-12.8-15.1-12.8s-15.1,5.7-15.1,12.8c0,0.1,0,0.3,0,0.4h0V208
			c0,7.1,6.8,12.8,15.1,12.8s15.1-5.7,15.1-12.8v-6.4h-2h-8.2v6.4c0,2.2-2.2,4-4.8,4c-2.7,0-4.8-1.8-4.8-4v-12.1V193.3z
			 M197.5,173.2c2.7,0,4.8,1.8,4.8,4v7.8h-9.6v-7.8C192.7,175,194.9,173.2,197.5,173.2z"/>
	</g>
</g>
</svg>
