<?xml version="1.0" encoding="utf-8"?>
<!-- Generator: Adobe Illustrator 24.0.2, SVG Export Plug-In . SVG Version: 6.00 Build 0)  -->
<svg version="1.1" id="Capa_1" xmlns="http://www.w3.org/2000/svg" xmlns:xlink="http://www.w3.org/1999/xlink" x="0px" y="0px"
	 viewBox="0 0 277.1 277.1" style="enable-background:new 0 0 277.1 277.1;" xml:space="preserve">
<style type="text/css">
	.st0{fill:#137CB8;}
	.st1{fill:#FFFFFF;}
</style>
<g>
	<circle class="st0" cx="138.5" cy="138.5" r="138.5"/>
	<g>
		<path class="st1" d="M74.4,27.5c-14.7-2.1-27.2,10.3-25,25c1.4,9.5,8.9,17,18.4,18.4c14.7,2.1,27.2-10.3,25-25
			C91.5,36.4,83.9,28.9,74.4,27.5z"/>
		<rect x="53.3" y="86.9" class="st1" width="36" height="120"/>
		<path class="st1" d="M227.3,135.1L227.3,135.1h1l0-5.8c0,0,0.5-16.7-8.1-29.6c0,0-3.4-6.5-13.8-11.4c0,0-7.6-4.1-22.3-4
			c0,0-22-1.2-34.8,19.7V86.9h-36v29.5v13.1v77.5h38v-71.1c0-1.7,0.5-4.2,1.7-7.4c0,0,0.1-0.4,0.4-1c3-5.9,8.9-9.8,15.5-10.4
			c2.1-0.2,4.8-0.2,7.4,0.2c4.8,0.7,9.2,3.4,11.7,7.6c1,1.7,1.8,3.7,2.2,5.8v75.3h28h9h1v-70.8H227.3z"/>
	</g>
</g>
</svg>
