<?xml version="1.0" encoding="utf-8"?>
<!-- Generator: Adobe Illustrator 24.0.2, SVG Export Plug-In . SVG Version: 6.00 Build 0)  -->
<svg version="1.1" id="Capa_1" xmlns="http://www.w3.org/2000/svg" xmlns:xlink="http://www.w3.org/1999/xlink" x="0px" y="0px"
	 viewBox="0 0 277.1 277.1" style="enable-background:new 0 0 277.1 277.1;" xml:space="preserve">
<style type="text/css">
	.st0{fill:url(#SVGID_1_);}
	.st1{fill:#FFFFFF;}
</style>
<g>
	<linearGradient id="SVGID_1_" gradientUnits="userSpaceOnUse" x1="40.4941" y1="40.4941" x2="236.5773" y2="236.5773">
		<stop  offset="0" style="stop-color:#352782"/>
		<stop  offset="0.2" style="stop-color:#943F90"/>
		<stop  offset="0.4" style="stop-color:#D2338B"/>
		<stop  offset="0.4062" style="stop-color:#D33387"/>
		<stop  offset="0.4443" style="stop-color:#D8336E"/>
		<stop  offset="0.4821" style="stop-color:#DB3257"/>
		<stop  offset="0.5183" style="stop-color:#DE3041"/>
		<stop  offset="0.553" style="stop-color:#E02F2E"/>
		<stop  offset="0.5855" style="stop-color:#E12E20"/>
		<stop  offset="0.6151" style="stop-color:#E22D16"/>
		<stop  offset="0.6391" style="stop-color:#E22D12"/>
		<stop  offset="0.6787" style="stop-color:#E33213"/>
		<stop  offset="0.7247" style="stop-color:#E54117"/>
		<stop  offset="0.7739" style="stop-color:#E8591E"/>
		<stop  offset="0.8251" style="stop-color:#ED7729"/>
		<stop  offset="0.8615" style="stop-color:#F18F34"/>
		<stop  offset="1" style="stop-color:#FFEF26"/>
	</linearGradient>
	<path class="st0" d="M138.5,277.2L138.5,277.2C62,277.2-0.1,215.1-0.1,138.5v0C-0.1,62,62-0.1,138.5-0.1h0
		c76.6,0,138.7,62.1,138.7,138.7v0C277.2,215.1,215.1,277.2,138.5,277.2z"/>
	<path class="st1" d="M180.4,40.9H97.8c-31.1,0-56.3,25.3-56.3,56.5v82.3c0,31.2,25.2,56.5,56.3,56.5h82.5
		c31.1,0,56.3-25.3,56.3-56.5V97.4C236.6,66.2,211.4,40.9,180.4,40.9z M218,178.7c0,21.4-17.3,38.7-38.6,38.7H98.1
		c-21.3,0-38.6-17.3-38.6-38.7V97.1c0-21.4,17.3-38.7,38.6-38.7h81.3c21.3,0,38.6,17.3,38.6,38.7V178.7z"/>
	<ellipse class="st1" cx="191" cy="86.7" rx="11.8" ry="11.8"/>
	<path class="st1" d="M138.8,88c-27.8,0-50.3,22.6-50.3,50.5S111,189,138.8,189c27.8,0,50.3-22.6,50.3-50.5S166.5,88,138.8,88z
		 M138.5,170.4c-17.9,0-32.3-14.5-32.3-32.5s14.5-32.5,32.3-32.5c17.9,0,32.3,14.5,32.3,32.5S156.4,170.4,138.5,170.4z"/>
</g>
</svg>
