<?xml version="1.0" encoding="utf-8"?>
<!-- Generator: Adobe Illustrator 24.0.2, SVG Export Plug-In . SVG Version: 6.00 Build 0)  -->
<svg version="1.1" id="Capa_1" xmlns="http://www.w3.org/2000/svg" xmlns:xlink="http://www.w3.org/1999/xlink" x="0px" y="0px"
	 viewBox="0 0 277.1 277.1" style="enable-background:new 0 0 277.1 277.1;" xml:space="preserve">
<style type="text/css">
	.st0{fill:#046FB7;}
	.st1{fill:#FFFFFF;}
</style>
<g>
	<path class="st0" d="M277.1,138.5C277.1,62,215,0,138.5,0S0,62,0,138.5c0,66,46.2,121.3,108.1,135.2v-104H68.6v-45.2h39.5V80.2
		c0-25.3,19.4-46.1,44.2-48.3l0-0.2c0,0,28.4-3.2,48.9,3.2v37.5c0,0-42.6-7.4-44.6,20.9v31.4h43l-7.1,45.2h-35.9v106.2
		C224.6,267,277.1,208.9,277.1,138.5z"/>
	<path class="st1" d="M156.6,277.1v-1.2c-5.9,0.8-11.9,1.2-18.1,1.2H156.6z"/>
	<path class="st1" d="M192.5,169.7l7.1-45.2h-43V93.2c2-28.3,44.6-20.9,44.6-20.9V34.8c-20.5-6.3-48.9-3.2-48.9-3.2l0,0.2
		c-24.8,2.2-44.2,23-44.2,48.3v44.4H68.6v45.2h39.5v104c9.8,2.2,20,3.4,30.5,3.4c6.1,0,12.2-0.4,18.1-1.2V169.7H192.5z"/>
</g>
</svg>
