<?xml version="1.0" encoding="utf-8"?>
<!-- Generator: Adobe Illustrator 24.0.2, SVG Export Plug-In . SVG Version: 6.00 Build 0)  -->
<svg version="1.1" id="Capa_1" xmlns="http://www.w3.org/2000/svg" xmlns:xlink="http://www.w3.org/1999/xlink" x="0px" y="0px"
	 viewBox="0 0 277.1 277.1" style="enable-background:new 0 0 277.1 277.1;" xml:space="preserve">
<style type="text/css">
	.st0{fill:#25AAE2;}
	.st1{fill:#FFFFFF;}
</style>
<g>
	<circle class="st0" cx="138.5" cy="138.5" r="138.7"/>
	<path class="st1" d="M136.1,110.4c-51.9-3.9-75.9-39-75.9-39c-15.9,30,10.3,49.7,10.3,49.7c-5.6,1.3-15.4-4.3-15.4-4.3
		c-3,26.6,28.2,37.3,28.2,37.3c-6.4,1.7-15,0-15,0c0.9,21.4,33,26.6,33,26.6c-18,18.4-54,15.4-54,15.4
		c86.6,47.6,139.7-21.9,139.7-21.9c28.3-35.7,23.1-72.9,23.1-72.9c10.3-6.1,19.3-18.4,19.3-18.4c-10.3,5.1-21,5.1-21,5.1
		c14.1-8.1,15.9-20.6,15.9-20.6c-10.7,7.3-23.6,9-23.6,9c-9.6-13.7-28.4-12.6-35.6-11.6c-1.9,0.3-3.8,0.7-5.6,1.3
		c-5.6,2.1-10.1,5.9-13.6,9.9c-7.7,9.1-11.2,21-10.1,32.8C136,109.9,136.1,110.4,136.1,110.4z"/>
</g>
</svg>
