<?xml version="1.0" encoding="utf-8"?>
<!-- Generator: Adobe Illustrator 24.0.2, SVG Export Plug-In . SVG Version: 6.00 Build 0)  -->
<svg version="1.1" id="Capa_1" xmlns="http://www.w3.org/2000/svg" xmlns:xlink="http://www.w3.org/1999/xlink" x="0px" y="0px"
	 viewBox="0 0 277.1 277.1" style="enable-background:new 0 0 277.1 277.1;" xml:space="preserve">
<style type="text/css">
	.st0{fill:#FFED00;}
	.st1{fill:#FFFFFF;stroke:#000000;stroke-width:5;stroke-miterlimit:10;}
</style>
<g>
	<circle class="st0" cx="138.5" cy="138.5" r="138.7"/>
	<path class="st1" d="M245.5,195.4c-37-10.8-48.1-46.6-48.1-46.6c0-4.5,4.6-7.2,9-9.3c1.6-0.7,6.1-2.5,7.7-3.2
		c7.6-3.8,11.2-6.7,11.2-6.7c6-5.3-3-9.8-3-9.8c-4.9-2.3-9.8,1.5-9.8,1.5c-17.3,9.9-16.8-3.5-15.5-11c0.4-1.4,0.7-2.9,1-4.3
		c0,0,0,0,0,0l0,0c0.7-3.7,1.1-7.6,1.1-11.6c0-33.5-27.1-60.6-60.6-60.6c-33.5,0-60.6,27.1-60.6,60.6c0,4,0.4,7.8,1.1,11.6l0,0
		c0,0,0,0,0,0c0.3,1.5,0.6,2.9,1,4.3c1.4,7.4,1.8,20.8-15.5,11c0,0-4.9-3.8-9.8-1.5c0,0-9,4.5-3,9.8c0,0,3.5,2.9,11.2,6.7
		c1.5,0.8,6.1,2.5,7.7,3.2c4.4,2.1,9,4.8,9,9.3c0,0-11.1,35.8-48.1,46.6c-1.9,0.6-2.4,3.1-0.8,4.3c5.2,3.8,15.2,9.8,27.4,10
		c0,0,2.4,8.3,4.5,12.7c0.5,1.1,1.8,1.7,3.1,1.4c6.6-1.6,28.2-5.5,42.5,8.4c0,0,10.2,10.9,28.6,10.9c0.6,0,1.2,0,1.7,0
		c0.5,0,1.1,0,1.7,0c18.4,0,28.6-10.9,28.6-10.9c14.2-13.9,35.9-10,42.5-8.4c1.2,0.3,2.5-0.3,3.1-1.4c2.1-4.4,4.5-12.7,4.5-12.7
		c12.2-0.3,22.2-6.2,27.4-10C247.9,198.5,247.5,196,245.5,195.4z"/>
</g>
</svg>
