<?xml version="1.0" encoding="utf-8"?>
<!-- Generator: Adobe Illustrator 24.0.2, SVG Export Plug-In . SVG Version: 6.00 Build 0)  -->
<svg version="1.1" id="Capa_1" xmlns="http://www.w3.org/2000/svg" xmlns:xlink="http://www.w3.org/1999/xlink" x="0px" y="0px"
	 viewBox="0 0 277.1 277.1" style="enable-background:new 0 0 277.1 277.1;" xml:space="preserve">
<style type="text/css">
	.st0{fill:#FFFFFF;}
	.st1{fill:#BD1820;}
</style>
<g>
	<circle class="st0" cx="138.5" cy="138.5" r="138.7"/>
	<g>
		<path class="st1" d="M138.5-0.1C62-0.1-0.1,62-0.1,138.5c0,57.1,34.5,106.1,83.9,127.4l-1-25.6c0,0,0,0,0,0l19.2-80c0,0,0,0,0,0
			c-0.3-0.5-7.6-13.3-3.8-32.7c0,0,3.8-17.9,16.9-25.2c0,0,17.2-7.6,26.8,9.1c0,0.1,0.1,0.2,0.1,0.3c0.7,1.5,6.8,15.7-6.6,44.9
			c0,0-7.9,18.2-3.1,29.4c0,0,12.5,23.6,38,8c0,0,26.2-15.7,28.8-53.7c0,0,4.8-30.4-18.2-54.6c0,0-19.2-19.8-52.1-15.3
			c0,0-39.9,4.8-52.4,38.3c0,0-14.7,32.5,5.7,60.3c0.2,1.3,0.4,2.4,0.7,3.7l-4.7,15.1c-0.8,2.4-3.5,3.5-5.8,2.3
			c-3.2-1.8-7.8-4.9-12.8-10.1c0,0-13.5-12.8-15.4-43c-0.8-13.5,1.4-27,6.9-39.3c0.3-0.6,0.5-1.2,0.8-1.8
			c11.4-24.4,33.4-42.1,59.4-49.1c18.9-5.1,45.3-7.6,71.9,5c0,0,31.3,13.4,46.6,51.8c0,0,12.1,32.3-9.3,77.6
			c0,0-11.8,27.8-51.1,40.3c0,0-36.7,8.3-47.3-16.3c0,0-8.6,38-13.1,46c0,0-4,9.8-10,20.2c12.5,3.7,25.8,5.7,39.6,5.7
			c76.6,0,138.7-62.1,138.7-138.7S215.1-0.1,138.5-0.1z"/>
	</g>
</g>
</svg>
