<?xml version="1.0" encoding="utf-8"?>
<!-- Generator: Adobe Illustrator 24.0.2, SVG Export Plug-In . SVG Version: 6.00 Build 0)  -->
<svg version="1.1" id="Capa_1" xmlns="http://www.w3.org/2000/svg" xmlns:xlink="http://www.w3.org/1999/xlink" x="0px" y="0px"
	 viewBox="0 0 275.9 275.9" style="enable-background:new 0 0 275.9 275.9;" xml:space="preserve">
<style type="text/css">
	.st0{fill:#FFFFFF;}
</style>
<g>
	<path class="st0" d="M245.8,0H30.1C13.5,0,0,13.5,0,30.1v215.8c0,16.6,13.5,30.1,30.1,30.1h215.8c16.6,0,30.1-13.5,30.1-30.1V30.1
		C275.9,13.5,262.4,0,245.8,0z M194.4,54.3c0,0-42.6-7.4-44.6,20.9v31.4h43l-7.1,45.2h-35.9v77.8V258v1.2v3.9h-48.5v-7.2v-26.2
		v-77.8H61.8v-45.2h39.5V62.2c0-25.3,19.4-46.1,44.2-48.3l0-0.2c0,0,28.4-3.2,48.9,3.2V54.3z"/>
</g>
</svg>
