<?xml version="1.0" encoding="utf-8"?>
<!-- Generator: Adobe Illustrator 24.0.2, SVG Export Plug-In . SVG Version: 6.00 Build 0)  -->
<svg version="1.1" id="Capa_1" xmlns="http://www.w3.org/2000/svg" xmlns:xlink="http://www.w3.org/1999/xlink" x="0px" y="0px"
	 viewBox="0 0 275.9 275.9" style="enable-background:new 0 0 275.9 275.9;" xml:space="preserve">
<style type="text/css">
	.st0{fill:#FFFFFF;}
</style>
<g>
	<g>
		<ellipse class="st0" cx="138.2" cy="137.2" rx="39.6" ry="39.8"/>
		<path class="st0" d="M188.3,39.7H88.7c-26.1,0-47.3,21.3-47.3,47.5v100c0,26.2,21.2,47.5,47.3,47.5h99.7
			c26.1,0,47.3-21.3,47.3-47.5v-100C235.6,60.9,214.5,39.7,188.3,39.7z M138.5,199.8c-34,0-61.6-27.7-61.6-61.9
			c0-34.2,27.6-61.9,61.6-61.9c34,0,61.6,27.7,61.6,61.9C200.1,172.1,172.5,199.8,138.5,199.8z M202.5,88.9c-8,0-14.5-6.5-14.5-14.5
			c0-8,6.5-14.5,14.5-14.5S217,66.3,217,74.4C217,82.4,210.5,88.9,202.5,88.9z"/>
		<path class="st0" d="M245.8,0H30.1C13.5,0,0,13.5,0,30.1v215.8c0,16.6,13.5,30.1,30.1,30.1h215.8c16.6,0,30.1-13.5,30.1-30.1V30.1
			C275.9,13.5,262.4,0,245.8,0z M258.4,188.3c0,38.2-30.9,69.2-68.9,69.2H88.3c-38.1,0-68.9-31-68.9-69.2V87.5
			c0-38.2,30.9-69.2,68.9-69.2h101.1c38.1,0,68.9,31,68.9,69.2V188.3z"/>
	</g>
</g>
</svg>
