<?xml version="1.0" encoding="utf-8"?>
<!-- Generator: Adobe Illustrator 24.0.2, SVG Export Plug-In . SVG Version: 6.00 Build 0)  -->
<svg version="1.1" id="Capa_1" xmlns="http://www.w3.org/2000/svg" xmlns:xlink="http://www.w3.org/1999/xlink" x="0px" y="0px"
	 viewBox="0 0 275.9 275.9" style="enable-background:new 0 0 275.9 275.9;" xml:space="preserve">
<style type="text/css">
	.st0{fill:none;}
	.st1{fill:#FFFFFF;}
</style>
<g>
	<g>
		<rect x="29.1" y="99.3" class="st0" width="46.7" height="155.7"/>
		<path class="st0" d="M245.6,115.9c0,0-4.4-8.4-17.9-14.7c0,0-9.9-5.4-28.9-5.2c0,0-28.5-1.6-45.1,25.6V99.3H107v38.2v17V255h49.3
			v-92.2c0-2.2,0.6-5.4,2.3-9.7c0,0,0.2-0.5,0.6-1.2c3.9-7.7,11.5-12.8,20.1-13.5c2.8-0.2,6.2-0.3,9.6,0.2
			c6.3,0.9,11.9,4.5,15.2,9.8c1.3,2.2,2.4,4.8,2.9,7.6v97.6h43.1v-91.9h4.9v0l1.3,0l0-7.6C256.1,154.3,256.7,132.6,245.6,115.9z"/>
		<path class="st0" d="M56.5,22.2c-19.1-2.8-35.2,13.4-32.5,32.5C25.9,67,35.6,76.8,48,78.6C67,81.3,83.2,65.2,80.4,46.1
			C78.6,33.8,68.9,24,56.5,22.2z"/>
		<polygon class="st1" points="254.9,161.9 256.2,161.9 254.9,161.9 		"/>
		<path class="st1" d="M245.8,0H30.1C13.5,0,0,13.5,0,30.1v215.8c0,16.6,13.5,30.1,30.1,30.1h215.8c16.6,0,30.1-13.5,30.1-30.1V30.1
			C275.9,13.5,262.4,0,245.8,0z M75.8,255H29.1V99.3h46.7V255z M48,78.6C35.6,76.8,25.9,67,24.1,54.7c-2.8-19.1,13.4-35.2,32.5-32.5
			C68.9,24,78.6,33.8,80.4,46.1C83.2,65.2,67,81.3,48,78.6z M256.2,161.9v91.9h-1.3h-4.9h-43.1v-97.6c-0.5-2.8-1.5-5.4-2.9-7.6
			c-3.3-5.4-8.9-8.9-15.2-9.8c-3.5-0.5-6.9-0.4-9.6-0.2c-8.6,0.7-16.2,5.8-20.1,13.5c-0.4,0.8-0.6,1.2-0.6,1.2
			c-1.6,4.2-2.3,7.4-2.3,9.7V255H107V154.5v-17V99.3h46.7v22.1c16.6-27.2,45.1-25.6,45.1-25.6c19-0.1,28.9,5.2,28.9,5.2
			c13.5,6.3,17.9,14.7,17.9,14.7c11.1,16.8,10.6,38.4,10.6,38.4L256.2,161.9z"/>
	</g>
</g>
</svg>
