<?xml version="1.0" encoding="utf-8"?>
<!-- Generator: Adobe Illustrator 24.0.2, SVG Export Plug-In . SVG Version: 6.00 Build 0)  -->
<svg version="1.1" id="Capa_1" xmlns="http://www.w3.org/2000/svg" xmlns:xlink="http://www.w3.org/1999/xlink" x="0px" y="0px"
	 viewBox="0 0 275.9 275.9" style="enable-background:new 0 0 275.9 275.9;" xml:space="preserve">
<style type="text/css">
	.st0{fill:#FFFFFF;}
</style>
<path class="st0" d="M245.8,0H30.1C13.5,0,0,13.5,0,30.1v215.8c0,16.6,13.5,30.1,30.1,30.1h215.8c16.6,0,30.1-13.5,30.1-30.1V30.1
	C275.9,13.5,262.4,0,245.8,0z M137.9,265.4c-12.6,0-24.9-1.9-36.4-5.3c5.5-9.6,9.2-18.6,9.2-18.6c4.1-7.3,12-42.3,12-42.3
	c9.7,22.6,43.5,15,43.5,15c36.1-11.5,47-37,47-37c19.7-41.7,8.5-71.4,8.5-71.4c-14.1-35.2-42.9-47.6-42.9-47.6
	c-24.5-11.6-48.8-9.3-66.1-4.6c-23.9,6.4-44.1,22.7-54.6,45.1c-0.3,0.6-0.5,1.1-0.8,1.7c-5,11.3-7.1,23.7-6.3,36.1
	c1.7,27.7,14.1,39.5,14.1,39.5c4.6,4.8,8.9,7.6,11.8,9.3c2,1.1,4.6,0.1,5.3-2.1l4.3-13.8c-0.2-1.2-0.4-2.2-0.6-3.4
	c-18.8-25.5-5.3-55.4-5.3-55.4C92.3,79.7,129,75.3,129,75.3c30.2-4.1,47.9,14.1,47.9,14.1c21.1,22.3,16.7,50.2,16.7,50.2
	c-2.3,34.9-26.4,49.3-26.4,49.3c-23.5,14.4-34.9-7.3-34.9-7.3c-4.4-10.3,2.8-27,2.8-27c12.3-26.8,6.7-39.9,6-41.3
	c0-0.1-0.1-0.2-0.1-0.2c-8.8-15.4-24.6-8.4-24.6-8.4c-12,6.8-15.6,23.2-15.6,23.2c-3.5,17.8,3.2,29.6,3.5,30.1c0,0,0,0,0,0
	l-17.6,73.5c0,0,0,0,0,0l0.9,23.5c-45.3-19.5-77.1-64.6-77.1-117.1c0-70.4,57.1-127.4,127.4-127.4s127.4,57.1,127.4,127.4
	S208.3,265.4,137.9,265.4z"/>
</svg>
