<?xml version="1.0" encoding="utf-8"?>
<!-- Generator: Adobe Illustrator 24.0.2, SVG Export Plug-In . SVG Version: 6.00 Build 0)  -->
<svg version="1.1" id="Capa_1" xmlns="http://www.w3.org/2000/svg" xmlns:xlink="http://www.w3.org/1999/xlink" x="0px" y="0px"
	 viewBox="0 0 275.9 275.9" style="enable-background:new 0 0 275.9 275.9;" xml:space="preserve">
<style type="text/css">
	.st0{fill:#FFFFFF;}
</style>
<g>
	<path class="st0" d="M245.8,0H30.1C13.5,0,0,13.5,0,30.1v215.8c0,16.6,13.5,30.1,30.1,30.1h215.8c16.6,0,30.1-13.5,30.1-30.1V30.1
		C275.9,13.5,262.4,0,245.8,0z M262,209.5c-6,4.4-17.5,11.2-31.6,11.5c0,0-2.8,9.6-5.2,14.6c-0.6,1.3-2.1,2-3.5,1.7
		c-7.5-1.8-32.5-6.3-48.9,9.7c0,0-11.7,12.6-33,12.6c-0.7,0-1.3,0-1.9,0c-0.6,0-1.2,0-1.9,0c-21.2,0-32.9-12.6-32.9-12.6
		c-16.4-16-41.4-11.5-48.9-9.7c-1.4,0.3-2.9-0.3-3.5-1.7c-2.4-5.1-5.2-14.6-5.2-14.6c-14.1-0.3-25.6-7.1-31.5-11.5
		c-1.9-1.4-1.4-4.3,0.9-5c42.6-12.4,55.4-53.7,55.4-53.7c0-5.2-5.3-8.3-10.4-10.7c-1.8-0.8-7-2.8-8.8-3.7
		c-8.8-4.3-12.8-7.7-12.8-7.7c-6.9-6.1,3.5-11.3,3.5-11.3c5.6-2.6,11.3,1.7,11.3,1.7c19.9,11.4,19.4-4.1,17.8-12.6
		c-0.4-1.6-0.8-3.3-1.2-5c0,0,0-0.1,0-0.1l0,0c-0.8-4.3-1.3-8.8-1.3-13.3c0-38.5,31.2-69.8,69.8-69.8c38.6,0,69.8,31.2,69.8,69.8
		c0,4.6-0.4,9-1.3,13.3l0,0c0,0,0,0,0,0.1c-0.3,1.7-0.7,3.4-1.2,5c-1.6,8.6-2.1,24,17.8,12.6c0,0,5.6-4.3,11.3-1.7
		c0,0,10.4,5.2,3.5,11.3c0,0-4,3.4-12.8,7.7c-1.8,0.9-7,2.9-8.8,3.7c-5.1,2.4-10.4,5.5-10.4,10.7c0,0,12.8,41.2,55.4,53.7
		C263.4,205.1,263.9,208.1,262,209.5z"/>
</g>
</svg>
