<?xml version="1.0" encoding="utf-8"?>
<!-- Generator: Adobe Illustrator 24.0.2, SVG Export Plug-In . SVG Version: 6.00 Build 0)  -->
<svg version="1.1" id="Capa_1" xmlns="http://www.w3.org/2000/svg" xmlns:xlink="http://www.w3.org/1999/xlink" x="0px" y="0px"
	 viewBox="0 0 275.9 275.9" style="enable-background:new 0 0 275.9 275.9;" xml:space="preserve">
<style type="text/css">
	.st0{fill:#FFFFFF;}
</style>
<g>
	<g>
		<path class="st0" d="M245.8,0H30.1C13.5,0,0,13.5,0,30.1v215.8c0,16.6,13.5,30.1,30.1,30.1h215.8c16.6,0,30.1-13.5,30.1-30.1V30.1
			C275.9,13.5,262.4,0,245.8,0z M138.7,268.4C66.5,268.4,8,209.9,8,137.7S66.5,7.1,138.7,7.1c72.2,0,130.7,58.5,130.7,130.7
			S210.9,268.4,138.7,268.4z"/>
		<polygon class="st0" points="31,130.2 31,130.2 31.1,129.3 		"/>
		<path class="st0" d="M31.4,130L31.4,130l-0.2-1.2l0,0.3c0.1,0,0,0,0.1,0L31.4,130z"/>
		<path class="st0" d="M23.2,137.3c-1,1.3-1.6,2.9-1.8,4.5l-1.5,13l1.7,13.6l0.3,2.1l0.3-1.2l3.7-15.1L23.2,137.3
			C23.2,137.3,23.2,137.3,23.2,137.3z"/>
		<path class="st0" d="M58.2,127.7L56,154.2l2.5,27.4H61l2.4-27.4l-3.4-31.3C59.4,124.4,58.7,126.1,58.2,127.7z"/>
		<path class="st0" d="M67.8,111.3l-2.4,42.9l2.4,27.4H71l2.2-27.9l-2-45.5C70,109.1,68.9,110.2,67.8,111.3z"/>
		<path class="st0" d="M77.5,103.6l-2.2,50l2.2,27.9H81l2-30l-1.8-49.9C79.9,102.3,78.7,102.9,77.5,103.6z"/>
		<path class="st0" d="M49.2,126.9L47,154.2l2.7,27.4h1.4l3-27.4l-2.9-26.8C50.6,127.2,49.9,127,49.2,126.9z"/>
		<polygon class="st0" points="31.2,129.1 31.1,129.3 31.2,129.1 		"/>
		<path class="st0" d="M31,130.2l-2.8,23.9l2.9,23.7c0.3,0,0.2,0,0.5,0l3.8-23.7l-4-24.1C31.3,130.1,31.2,130.2,31,130.2z"/>
		<path class="st0" d="M40.5,126.8l-3.3,27.4l2.8,27l0.1,1l0.1-0.9l3.9-27.5l-2.3-27C41.4,126.7,41,126.7,40.5,126.8z"/>
		<path class="st0" d="M87,99.4l-2,52.2l2,30h4.1l1.8-30l-2-53.2C89.6,98.7,88.3,99,87,99.4z"/>
		<path class="st0" d="M117.8,100.6c-0.5-0.2-1-0.4-1.6-0.6l-1.6,51.6l1.6,30h5.2l0.9-33.7l-1-51.6
			C120.1,97.7,118.9,99.1,117.8,100.6z"/>
		<path class="st0" d="M106.1,97.7l-1.5,51.7l1.6,32.2h4.8l1.9-31.1l-1.9-51.9C109.3,98.1,107.7,97.9,106.1,97.7z"/>
		<path class="st0" d="M125.9,91.9l-1.3,55.9l1.3,33.7h4.7l2.5-32.7L131.2,88C129.3,89.2,127.6,90.5,125.9,91.9z"/>
		<path class="st0" d="M135.6,85.3l-1.5,68.3l1.2,27.9h6l2.1-30L141,82.8C139.1,83.5,137.3,84.4,135.6,85.3z"/>
		<path class="st0" d="M96.2,97.6l-1.1,54l1.9,30h3.5l2-31.9l-2.1-52.3C99,97.4,97.6,97.4,96.2,97.6z"/>
		<path class="st0" d="M217.5,126.2c-2.1-26.6-25.8-47.7-54.7-47.7c-1.2,0-2.3,0-3.5,0.1c0,0-14.2,2.6-14.6,6.7v96.2h84v0
			c15.9,0,28.8-12.9,28.8-28.8c0-15.9-12.9-28.8-28.8-28.8C224.7,124,220.9,124.8,217.5,126.2z"/>
	</g>
</g>
</svg>
