<?xml version="1.0" encoding="utf-8"?>
<!-- Generator: Adobe Illustrator 24.0.2, SVG Export Plug-In . SVG Version: 6.00 Build 0)  -->
<svg version="1.1" id="Capa_1" xmlns="http://www.w3.org/2000/svg" xmlns:xlink="http://www.w3.org/1999/xlink" x="0px" y="0px"
	 viewBox="0 0 275.9 275.9" style="enable-background:new 0 0 275.9 275.9;" xml:space="preserve">
<style type="text/css">
	.st0{fill:#FFFFFF;}
</style>
<g>
	<g>
		<path class="st0" d="M245.8,0H30.1C13.5,0,0,13.5,0,30.1v215.8c0,16.6,13.5,30.1,30.1,30.1h215.8c16.6,0,30.1-13.5,30.1-30.1V30.1
			C275.9,13.5,262.4,0,245.8,0z M236,122.3c0,0-24.2,4.1-49.7-15v80.8H186c-3.7,33.8-32.3,60.1-67.1,60.1
			c-18.5,0-35.2-7.4-47.4-19.5c-19-11.9-31.6-33.1-31.6-57.2c0-37.3,30.2-67.5,67.5-67.5c3,0,5.9,0.2,8.8,0.6v8.6
			c0.9,0,1.8-0.1,2.7-0.1c3,0,5.9,0.2,8.8,0.6v37.2c-2.8-0.8-5.8-1.3-8.8-1.3c-17.1,0-31,13.9-31,31c0,7.2,2.4,13.8,6.5,19
			c3.9,1.8,8.3,2.8,12.9,2.8c17.1,0,31-13.9,31-31c0-1.2,0.1-25.8,0-27l-0.2-33.1c0.1,0,0.1-16.4,0.2-16.4V26.9h36.5V30
			c0.1,1.6,0.2,3.6,0.5,6.1h11v3.1c0.2,6.3,1.9,21.1,12.3,32.7c6.6,3.6,15.1,6.1,25.8,6.7v7.6c3.5,0.8,7.4,1.3,11.5,1.5V122.3z"/>
	</g>
</g>
</svg>
