<?xml version="1.0" encoding="utf-8"?>
<!-- Generator: Adobe Illustrator 24.0.2, SVG Export Plug-In . SVG Version: 6.00 Build 0)  -->
<svg version="1.1" id="Capa_1" xmlns="http://www.w3.org/2000/svg" xmlns:xlink="http://www.w3.org/1999/xlink" x="0px" y="0px"
	 viewBox="0 0 275.9 275.9" style="enable-background:new 0 0 275.9 275.9;" xml:space="preserve">
<style type="text/css">
	.st0{fill:#FFFFFF;}
</style>
<g>
	<path class="st0" d="M245.8,0H30.1C13.5,0,0,13.5,0,30.1v215.8c0,16.6,13.5,30.1,30.1,30.1h215.8c16.6,0,30.1-13.5,30.1-30.1V30.1
		C275.9,13.5,262.4,0,245.8,0z M237.4,87.1c0,0,7.1,51.5-32.1,100.9c0,0-73.6,96.2-193.5,30.3c0,0,49.9,4.2,74.8-21.4
		c0,0-44.5-7.1-45.7-36.8c0,0,11.9,2.4,20.8,0c0,0-43.3-14.8-39.1-51.6c0,0,13.6,7.7,21.3,5.9c0,0-36.2-27.3-14.2-68.9
		c0,0,33.2,48.7,105.1,54c0,0-0.1-0.7-0.2-2c-1.5-16.4,3.3-32.9,13.9-45.5c4.8-5.6,11-10.8,18.8-13.7c2.5-0.9,5.1-1.5,7.8-1.8
		c10-1.4,36.1-2.8,49.4,16.1c0,0,17.8-2.4,32.6-12.5c0,0-2.4,17.2-22,28.5c0,0,14.8,0,29.1-7.1C264.1,61.6,251.6,78.7,237.4,87.1z"
		/>
</g>
</svg>
