<?xml version="1.0" encoding="utf-8"?>
<!-- Generator: Adobe Illustrator 24.0.2, SVG Export Plug-In . SVG Version: 6.00 Build 0)  -->
<svg version="1.1" id="Capa_1" xmlns="http://www.w3.org/2000/svg" xmlns:xlink="http://www.w3.org/1999/xlink" x="0px" y="0px"
	 viewBox="0 0 275.9 275.9" style="enable-background:new 0 0 275.9 275.9;" xml:space="preserve">
<style type="text/css">
	.st0{fill:#FFFFFF;}
</style>
<g>
	<g>
		<path class="st0" d="M245.8,0H30.1C13.5,0,0,13.5,0,30.1v215.8c0,16.6,13.5,30.1,30.1,30.1h215.8c16.6,0,30.1-13.5,30.1-30.1V30.1
			C275.9,13.5,262.4,0,245.8,0z M140.7,250.8c-20.6,0-40-5.3-56.9-14.5L41,250.8l-14.3,4.8l-8.9,2.9l7.5-23.2L39,193.1
			c-10.6-17.8-16.8-38.6-16.8-60.8c0-65.5,53.1-118.5,118.5-118.5c65.5,0,118.5,53.1,118.5,118.5S206.2,250.8,140.7,250.8z"/>
		<path class="st0" d="M140.7,33.6C86.2,33.6,42,77.8,42,132.3c0,13.2,2.6,25.7,7.3,37.2c3,7.3,6.8,14.2,11.4,20.5l-7.2,22.4
			l-4.8,15l15.1-5.1l22.6-7.7c7.8,5.2,16.5,9.3,25.7,12.1c9.1,2.8,18.8,4.3,28.8,4.3c54.5,0,98.8-44.2,98.8-98.8
			C239.5,77.8,195.3,33.6,140.7,33.6z M198.1,175c0,0-8,18.9-40.3,10.7c0,0-40.5-7.5-70.1-60.7c0,0-6.5-12.7-3.7-28.1
			c0,0,4.5-13.1,13.1-17.6c1.5-0.8,3.1-1.1,4.8-1.1h5.6c1.9,0,3.6,1.1,4.4,2.9l11.1,24.3c1.1,2.4,0.7,5.2-1,7.2l-7.5,8.8
			c-1,1.1-1.1,2.7-0.3,4c4,6.7,17.7,27,40.4,35.1c1.9,0.7,3.9,0.1,5.2-1.5l8.9-10.9c1.8-2.2,4.8-2.8,7.3-1.5l22.6,11.9
			c1.6,0.8,2.6,2.5,2.5,4.3C200.8,165.7,200.2,170.4,198.1,175z"/>
	</g>
</g>
</svg>
