<?xml version="1.0" encoding="utf-8"?>
<!-- Generator: Adobe Illustrator 24.0.2, SVG Export Plug-In . SVG Version: 6.00 Build 0)  -->
<svg version="1.1" id="Capa_1" xmlns="http://www.w3.org/2000/svg" xmlns:xlink="http://www.w3.org/1999/xlink" x="0px" y="0px"
	 viewBox="0 0 275.9 275.9" style="enable-background:new 0 0 275.9 275.9;" xml:space="preserve">
<style type="text/css">
	.st0{fill:#FFFFFF;}
</style>
<g>
	<g>
		<path class="st0" d="M138.5,97c2.7,0,4.9-1.9,4.9-4.2V86V68.2v-6.7c0-2.3-2.2-4.2-4.9-4.2s-4.9,1.9-4.9,4.2v6.7V86v6.7
			C133.5,95.1,135.7,97,138.5,97z"/>
		<path class="st0" d="M245.8,0H30.1C13.5,0,0,13.5,0,30.1v215.8c0,16.6,13.5,30.1,30.1,30.1h215.8c16.6,0,30.1-13.5,30.1-30.1V30.1
			C275.9,13.5,262.4,0,245.8,0z M164.7,97.4V47.2h12.8v45.5c0,8,5.4,3.2,5.4,3.2l2.8-2.2c0.9-0.7,1.4-1.8,1.4-2.9V47.2H199v59.4
			h-11.9v-5.9c-8.3,9.3-17.6,6.3-17.6,6.3C164.1,105,164.7,97.4,164.7,97.4z M121.1,57.3L121.1,57.3
			C121.1,57.3,121.1,57.3,121.1,57.3c0-6.4,7.8-11.5,17.4-11.5s17.4,5.1,17.4,11.4c0,0,0,0,0,0.1h0V97c0,6.3-7.8,11.4-17.4,11.4
			s-17.4-5.1-17.4-11.4V57.3z M89,26.5l8.8,31.8l8.7-31.8h13.7L105,73.9v32.7H91V73.9L75.3,26.5H89z M225,235.1
			c-0.9,4.6-4.5,8.1-9.1,8.9c-22.9,3.9-48.5,6-75.7,6c-27.5,0-53.5-2.2-76.6-6.2c-4.6-0.8-8.1-4.3-9-8.9
			c-2.9-14.4-4.5-29.7-4.5-45.6c0-16,1.6-31.3,4.5-45.7c0.9-4.5,4.5-8.1,9-8.9c23.1-4,49.1-6.2,76.6-6.2c27.1,0,52.8,2.2,75.6,6
			c4.6,0.8,8.2,4.3,9.1,8.9c2.9,14.4,4.5,29.9,4.5,45.9C229.5,205.3,228,220.7,225,235.1z"/>
		<polygon class="st0" points="69.4,162 81.3,162 81.3,224.3 92.7,224.3 92.7,162 104.6,162 104.6,152.5 69.4,152.5 		"/>
		<path class="st0" d="M129.3,209.8c0,1.7-0.7,3.3-1.9,4.5c-0.7,0.7-1.4,1.2-2.1,1.5c0,0-5.1,2.9-5.1-3.3v-41.1h-10.6v45.8
			c0,0-0.1,0.5,0,1.3v0.2h0c0.2,2.2,1.3,5.9,6.3,6.8c0,0,6.8,1.2,13.4-6.4v5.2h10.5v-53h-10.5V209.8z"/>
		<path class="st0" d="M171.3,170.9c-4.8-2.3-9.6,1.1-13.2,5.2v-23.6h-10v71.8h10v-3.9c3.6,4.1,8.4,7.5,13.2,5.2c0,0,6.6-3,6.6-11.9
			h0v-15.8v-2.2v-12.8C177.9,173.9,171.3,170.9,171.3,170.9z M167.6,195.6v2.2v15.8c0,0,0.1,1.7-2.1,3.5c0,0-3.4,2.3-7.4-2.1v-33.6
			c4-4.4,7.4-2.1,7.4-2.1c2.1,1.8,2.1,3.5,2.1,3.5V195.6z"/>
		<path class="st0" d="M198.8,169.7c-8.3,0-15.1,5.7-15.1,12.8c0,0.1,0,0.3,0,0.4h0v30.7c0,7.1,6.8,12.8,15.1,12.8
			s15.1-5.7,15.1-12.8v-6.4h-2h-8.2v6.4c0,2.2-2.2,4-4.8,4c-2.7,0-4.8-1.8-4.8-4v-12.1V199h9.6h7.1h3.2v-16.5
			C214,175.4,207.2,169.7,198.8,169.7z M203.7,190.7H194v-7.8c0-2.2,2.2-4,4.8-4c2.7,0,4.8,1.8,4.8,4V190.7z"/>
	</g>
</g>
</svg>
