<?xml version="1.0" encoding="utf-8"?>
<!-- Generator: Adobe Illustrator 24.0.2, SVG Export Plug-In . SVG Version: 6.00 Build 0)  -->
<svg version="1.1" id="Capa_5" xmlns="http://www.w3.org/2000/svg" xmlns:xlink="http://www.w3.org/1999/xlink" x="0px" y="0px"
	 viewBox="0 0 93 43.2" style="enable-background:new 0 0 93 43.2;" xml:space="preserve">
<style type="text/css">
	.st0{fill:#FFFFFF;}
	.st1{fill:#211915;}
	.st2{fill:#FEEE00;}
	.st3{fill:url(#SVGID_1_);}
	.st4{fill:url(#SVGID_2_);}
	.st5{fill:url(#SVGID_3_);}
	.st6{fill:url(#SVGID_4_);}
	.st7{fill:url(#SVGID_5_);}
	.st8{fill:url(#SVGID_6_);}
	.st9{fill:url(#SVGID_7_);}
	.st10{fill:url(#SVGID_8_);}
	.st11{fill:url(#SVGID_9_);}
	.st12{fill:url(#SVGID_10_);}
	.st13{fill:url(#SVGID_11_);}
</style>
<g>
	<path class="st0" d="M90.1,15.3c-1.3-9.2-21.9-13.8-46-10.4S1.6,18.7,2.9,27.9c1.3,9.2,21.9,13.8,46,10.4
		C73,34.8,91.4,24.5,90.1,15.3z M48.8,37.5C25.1,41,4.9,36.6,3.6,27.8S20.5,9.1,44.2,5.6c23.7-3.4,43.9,0.9,45.2,9.7
		S72.5,34.1,48.8,37.5z"/>
	<path class="st1" d="M89.4,15.3C88.1,6.5,67.9,2.2,44.2,5.6c-11.9,1.7-22.4,5.1-29.8,9.1V13c0-0.7-0.6-1.3-1.3-1.3h-2.7
		c-0.7,0-1.3,0.6-1.3,1.3v5.2c-3.9,3.1-5.9,6.4-5.5,9.6c1.3,8.8,21.5,13.2,45.2,9.7C72.5,34.1,90.7,24.1,89.4,15.3z"/>
	<g>
		<rect x="10.5" y="21.5" class="st2" width="2.6" height="0.5"/>
		<rect x="10.5" y="19.5" class="st2" width="2.6" height="0.6"/>
		<rect x="10.5" y="18.5" class="st2" width="2.6" height="0.7"/>
		<rect x="10.5" y="20.5" class="st2" width="2.6" height="0.5"/>
		<rect x="10.5" y="17.5" class="st2" width="2.6" height="0.7"/>
		<polygon class="st2" points="17.3,22.5 13.1,22.5 10.5,22.5 10.5,23 17.3,23 		"/>
		<polygon class="st2" points="13.1,24.8 17.3,24.8 17.3,24.5 10.5,24.5 10.5,24.8 		"/>
		<rect x="10.5" y="13" class="st2" width="2.6" height="1.4"/>
		<rect x="10.5" y="16.5" class="st2" width="2.6" height="0.8"/>
		<rect x="10.5" y="14.5" class="st2" width="2.6" height="0.9"/>
		<rect x="10.5" y="23.5" class="st2" width="6.9" height="0.4"/>
		<rect x="10.5" y="15.5" class="st2" width="2.6" height="0.9"/>
	</g>
	<g>
		<polygon class="st2" points="23.7,20.1 26.5,20.1 26.3,19.5 23.5,19.5 		"/>
		<polygon class="st2" points="22.6,18.5 19.8,18.5 19.6,19.2 22.4,19.2 		"/>
		<polygon class="st2" points="23.4,19.2 26.2,19.2 25.9,18.5 23.1,18.5 		"/>
		<polygon class="st2" points="19.2,20.5 19,21 21.8,21 22,20.5 		"/>
		<polygon class="st2" points="22.3,19.5 19.5,19.5 19.3,20.1 22.1,20.1 		"/>
		<polygon class="st2" points="22.9,17.6 23.1,18.2 25.9,18.2 25.6,17.5 20.1,17.5 19.9,18.2 22.7,18.2 		"/>
		<polygon class="st2" points="25.1,24.8 27.9,24.8 27.8,24.5 25,24.5 		"/>
		<polygon class="st2" points="24.8,23.9 27.6,23.9 27.5,23.5 24.7,23.5 		"/>
		<polygon class="st2" points="24.7,14.4 24.2,13 21.5,13 21.1,14.4 		"/>
		<polygon class="st2" points="26.9,21.5 18.9,21.5 18.7,22 27,22 		"/>
		<polygon class="st2" points="20.5,16.3 25.3,16.3 25,15.5 20.7,15.5 		"/>
		<polygon class="st2" points="21.1,14.5 20.8,15.4 25,15.4 24.7,14.5 		"/>
		<polygon class="st2" points="20.2,17.3 25.6,17.3 25.3,16.5 20.4,16.5 		"/>
		<polygon class="st2" points="20.6,24.8 20.7,24.5 17.9,24.5 17.8,24.8 		"/>
		<polygon class="st2" points="21,23.5 18.2,23.5 18.1,23.9 20.9,23.9 		"/>
		<polygon class="st2" points="18.5,22.5 18.4,23 27.4,23 27.2,22.5 		"/>
		<polygon class="st2" points="23.8,20.5 24,21 26.8,21 26.6,20.5 		"/>
	</g>
	<g>
		<path class="st2" d="M35.5,18.5h-7c0,0.2,0.1,0.5,0.2,0.7h7.1C35.7,18.9,35.6,18.7,35.5,18.5z"/>
		<path class="st2" d="M33.8,17.7h-2.3c-0.1,0-0.2-0.1-0.3-0.2h-2.7v0.7h6.7C34.8,17.9,34.4,17.7,33.8,17.7z"/>
		<rect x="33.2" y="21.5" class="st2" width="2.7" height="0.5"/>
		<path class="st2" d="M35.9,20v-0.3c0-0.1,0-0.2,0-0.2h-7c0.2,0.3,0.4,0.5,0.6,0.6h6.4V20z"/>
		<path class="st2" d="M28.7,23.9h7c0.1-0.1,0.1-0.3,0.1-0.4h-7.3C28.6,23.6,28.6,23.8,28.7,23.9z"/>
		<path class="st2" d="M35.8,14.4c-0.3-0.9-1.1-1.4-2-1.4h-0.3h-0.2h-2.5c-1,0-1.8,0.6-2.1,1.4H35.8z"/>
		<path class="st2" d="M28.5,15.2v0.2v0h7.4v-0.3c0-0.2,0-0.4-0.1-0.6h-7.2C28.5,14.7,28.5,14.9,28.5,15.2z"/>
		<path class="st2" d="M28.5,15.8v0.5h2.7v-0.2c0-0.2,0.1-0.3,0.3-0.3h1.4c0.2,0,0.3,0.1,0.3,0.3v0.2h2.7v-0.9h-7.4L28.5,15.8
			L28.5,15.8z"/>
		<rect x="28.5" y="16.5" class="st2" width="2.7" height="0.8"/>
		<path class="st2" d="M29.1,24.5c0.1,0.1,0.3,0.2,0.5,0.3h5.1c0.2-0.1,0.3-0.2,0.5-0.3H29.1z"/>
		<rect x="28.5" y="21.5" class="st2" width="2.7" height="0.5"/>
		<rect x="33.2" y="16.5" class="st2" width="2.7" height="0.8"/>
		<path class="st2" d="M35.9,20.5h-5.5c0.1,0,0.2,0,0.2,0v0h0.1h0.4h1.7c0.2,0,0.3,0.1,0.3,0.3V21h2.7V20.5L35.9,20.5z"/>
		<polygon class="st2" points="33.2,22.5 31.2,22.5 28.5,22.5 28.5,22.9 35.9,22.9 35.9,22.5 		"/>
	</g>
	<g>
		<rect x="39.4" y="18.5" class="st2" width="2.7" height="0.7"/>
		<rect x="39.4" y="19.5" class="st2" width="2.7" height="0.6"/>
		<rect x="36.6" y="13" class="st2" width="8.1" height="1.4"/>
		<rect x="39.4" y="17.5" class="st2" width="2.7" height="0.7"/>
		<rect x="39.4" y="21.5" class="st2" width="2.7" height="0.5"/>
		<rect x="39.4" y="23.5" class="st2" width="2.7" height="0.4"/>
		<polygon class="st2" points="36.6,15.7 39.4,15.7 39.4,16.3 42,16.3 42,15.7 44.7,15.7 44.7,15.5 36.6,15.5 		"/>
		<rect x="36.6" y="14.5" class="st2" width="8.1" height="0.9"/>
		<rect x="39.4" y="22.5" class="st2" width="2.7" height="0.5"/>
		<rect x="39.4" y="24.5" class="st2" width="2.7" height="0.3"/>
		<rect x="39.4" y="20.5" class="st2" width="2.7" height="0.5"/>
		<rect x="39.4" y="16.5" class="st2" width="2.7" height="0.8"/>
	</g>
	<g>
		<path class="st2" d="M72.1,18.2C72.1,18.2,72.1,18.2,72.1,18.2l2.7,0v-0.7h-2.7V18.2z"/>
		<rect x="67.3" y="17.5" class="st2" width="2.7" height="0.7"/>
		<path class="st2" d="M74.7,19.5h-7.4v0.6h7.2C74.6,19.9,74.7,19.7,74.7,19.5z"/>
		<path class="st2" d="M74.7,19.1v-0.7H72c-0.1,0.1-0.2,0.2-0.4,0.2H70v-0.2h-2.7v0.7L74.7,19.1C74.7,19.2,74.7,19.2,74.7,19.1z"/>
		<path class="st2" d="M74.6,14.4c-0.3-0.8-1.1-1.4-2-1.4H70h-0.9h-1.8v1.4H74.6z"/>
		<rect x="67.3" y="23.5" class="st2" width="2.7" height="0.4"/>
		<path class="st2" d="M67.3,15.4h7.4v-0.3c0-0.2,0-0.4-0.1-0.6h-7.3V15.4z"/>
		<rect x="67.3" y="16.5" class="st2" width="2.7" height="0.8"/>
		<rect x="67.3" y="24.5" class="st2" width="2.7" height="0.3"/>
		<rect x="72.1" y="16.5" class="st2" width="2.7" height="0.8"/>
		<path class="st2" d="M67.3,16.3H70v-0.6h1.6c0.2,0,0.4,0.2,0.4,0.4v0.2h2.7v-0.6v-0.2v0h-7.4L67.3,16.3L67.3,16.3z"/>
		<path class="st2" d="M67.3,20.5V21h5.5c0.5,0,1-0.2,1.3-0.5H67.3z"/>
		<rect x="67.3" y="22.5" class="st2" width="2.7" height="0.5"/>
		<rect x="67.3" y="21.5" class="st2" width="2.7" height="0.5"/>
	</g>
	<g>
		<polygon class="st2" points="62.5,20.1 65.3,20.1 65.1,19.5 62.3,19.5 		"/>
		<polygon class="st2" points="61.4,18.5 58.6,18.5 58.4,19.2 61.2,19.2 		"/>
		<polygon class="st2" points="62.2,19.2 64.9,19.2 64.7,18.5 62,18.5 		"/>
		<polygon class="st2" points="58,20.5 57.8,21.1 60.6,21.1 60.8,20.5 		"/>
		<polygon class="st2" points="61.1,19.5 58.3,19.5 58.1,20.1 60.9,20.1 		"/>
		<polygon class="st2" points="61.7,17.6 61.9,18.2 64.7,18.2 64.4,17.5 58.9,17.5 58.7,18.2 61.5,18.2 		"/>
		<polygon class="st2" points="63.9,24.8 66.7,24.8 66.6,24.5 63.8,24.5 		"/>
		<polygon class="st2" points="63.6,23.9 66.4,23.9 66.3,23.5 63.5,23.5 		"/>
		<polygon class="st2" points="63.5,14.4 63,13 60.3,13 59.9,14.4 		"/>
		<polygon class="st2" points="65.7,21.5 57.7,21.5 57.5,22 65.8,22 		"/>
		<polygon class="st2" points="59.3,16.4 64.1,16.4 63.8,15.5 59.5,15.5 		"/>
		<polygon class="st2" points="59.8,14.5 59.6,15.4 63.8,15.4 63.5,14.5 		"/>
		<polygon class="st2" points="59,17.3 64.3,17.3 64.1,16.5 59.2,16.5 		"/>
		<polygon class="st2" points="59.4,24.8 59.5,24.5 56.7,24.5 56.6,24.8 		"/>
		<polygon class="st2" points="59.8,23.5 57,23.5 56.9,23.9 59.7,23.9 		"/>
		<polygon class="st2" points="57.3,22.5 57.2,23 66.1,23 66,22.5 		"/>
		<polygon class="st2" points="62.6,20.5 62.8,21.1 65.5,21.1 65.4,20.5 		"/>
	</g>
	<g>
		<rect x="49.3" y="21.5" class="st2" width="2.6" height="0.5"/>
		<rect x="49.3" y="19.5" class="st2" width="2.6" height="0.6"/>
		<rect x="49.3" y="18.5" class="st2" width="2.6" height="0.7"/>
		<rect x="49.3" y="20.5" class="st2" width="2.6" height="0.5"/>
		<rect x="49.3" y="17.5" class="st2" width="2.6" height="0.7"/>
		<polygon class="st2" points="56.1,22.5 51.9,22.5 49.3,22.5 49.3,23 56.1,23 		"/>
		<polygon class="st2" points="51.9,24.8 56.1,24.8 56.1,24.5 49.3,24.5 49.3,24.8 		"/>
		<rect x="49.3" y="13" class="st2" width="2.6" height="1.4"/>
		<rect x="49.3" y="16.5" class="st2" width="2.6" height="0.8"/>
		<rect x="49.3" y="14.5" class="st2" width="2.6" height="0.9"/>
		<rect x="49.3" y="23.5" class="st2" width="6.9" height="0.4"/>
		<rect x="49.3" y="15.5" class="st2" width="2.6" height="0.9"/>
	</g>
	
		<linearGradient id="SVGID_1_" gradientUnits="userSpaceOnUse" x1="10.88" y1="16.155" x2="73.08" y2="16.155" gradientTransform="matrix(1 0 0 -1 0 46)">
		<stop  offset="0.1788" style="stop-color:#FFFFFF"/>
		<stop  offset="0.9413" style="stop-color:#FAFAFA;stop-opacity:0"/>
	</linearGradient>
	<rect x="10.9" y="27.9" class="st3" width="62.2" height="3.8"/>
	<rect x="10.8" y="27.2" class="st1" width="1.9" height="1.9"/>
	<rect x="15" y="26.9" class="st1" width="2.3" height="2.3"/>
	<rect x="19.5" y="27.2" class="st1" width="2.3" height="1.9"/>
	<rect x="24" y="27.2" class="st1" width="2.3" height="1.9"/>
	<rect x="28.5" y="27.2" class="st1" width="2.3" height="1.9"/>
	<rect x="33.1" y="26.9" class="st1" width="2.3" height="2.3"/>
	<rect x="37.6" y="26.9" class="st1" width="2.3" height="2.3"/>
	<rect x="42.1" y="26.9" class="st1" width="2.3" height="2.3"/>
	<rect x="46.6" y="26.9" class="st1" width="2.3" height="2.3"/>
	<rect x="51.2" y="26.9" class="st1" width="2.3" height="2.3"/>
	<rect x="53.4" y="29.1" class="st1" width="2.3" height="1.4"/>
	<rect x="51.2" y="30.5" class="st1" width="2.3" height="1.2"/>
	<rect x="48.9" y="29.1" class="st1" width="2.3" height="1.4"/>
	<rect x="44.4" y="29.1" class="st1" width="2.3" height="1.4"/>
	<rect x="39.9" y="29.1" class="st1" width="2.3" height="1.4"/>
	<rect x="35.3" y="29.1" class="st1" width="2.3" height="1.4"/>
	<rect x="30.8" y="29.1" class="st1" width="2.2" height="1.4"/>
	<rect x="26.3" y="29.1" class="st1" width="2.3" height="1.4"/>
	<rect x="21.8" y="29.1" class="st1" width="2.3" height="1.4"/>
	<rect x="17.2" y="29.1" class="st1" width="2.3" height="1.4"/>
	<rect x="12.7" y="29.1" class="st1" width="2.3" height="1.4"/>
	<rect x="10.8" y="30.5" class="st1" width="1.9" height="1.9"/>
	<rect x="15" y="30.5" class="st1" width="2.3" height="2.3"/>
	<rect x="19.5" y="30.5" class="st1" width="2.3" height="2.3"/>
	<rect x="24" y="30.5" class="st1" width="2.3" height="2.2"/>
	<rect x="28.5" y="30.5" class="st1" width="2.3" height="2"/>
	<rect x="33.1" y="30.5" class="st1" width="2.3" height="2"/>
	<rect x="37.6" y="30.5" class="st1" width="2.3" height="2"/>
	<rect x="42.1" y="30.5" class="st1" width="2.3" height="2.3"/>
	<rect x="46.6" y="30.5" class="st1" width="2.3" height="2"/>
	<rect x="51.2" y="30.5" class="st1" width="2.3" height="2.3"/>
	<path class="st2" d="M84.6,15l-5.9,2.3c-0.1,0-0.2,0-0.2-0.1c-0.1-0.2-0.3-0.3-0.5-0.4c-0.5-0.1-1,0.3-1.1,1c0,0,0,0.1,0,0.1
		c0,0,0,0.1-0.1,0.1l-0.6,0.2c-0.1,0-0.1,0.1-0.1,0.1v0.9l0.8-0.4c0.1,0,0.2,0,0.2,0c0.1,0.1,0.2,0.2,0.4,0.2c0.5,0.1,1-0.3,1.1-1
		c0,0,0-0.1,0-0.1l6-2.9C84.7,15.1,84.7,14.9,84.6,15z"/>
	<g>
		
			<linearGradient id="SVGID_2_" gradientUnits="userSpaceOnUse" x1="73.254" y1="34.8912" x2="72.8034" y2="35.6716" gradientTransform="matrix(1 0 0 -1 0 46)">
			<stop  offset="0" style="stop-color:#001C7C"/>
			<stop  offset="7.330000e-02" style="stop-color:#0057A9"/>
			<stop  offset="0.1566" style="stop-color:#0094D7"/>
			<stop  offset="0.2179" style="stop-color:#00BAF4"/>
			<stop  offset="0.25" style="stop-color:#00C9FF"/>
			<stop  offset="0.5" style="stop-color:#3F9CFF"/>
			<stop  offset="0.7404" style="stop-color:#03C7FF"/>
			<stop  offset="0.75" style="stop-color:#00C9FF"/>
			<stop  offset="0.7881" style="stop-color:#00B5F0"/>
			<stop  offset="0.866" style="stop-color:#0081C9"/>
			<stop  offset="0.9762" style="stop-color:#002F8A"/>
			<stop  offset="1" style="stop-color:#001C7C"/>
		</linearGradient>
		<path class="st4" d="M72.7,10.4v0.8c0.2,0,0.3-0.1,0.5-0.1l0.1-1C73.1,10.2,72.9,10.3,72.7,10.4z"/>
		
			<linearGradient id="SVGID_3_" gradientUnits="userSpaceOnUse" x1="74.6948" y1="35.1004" x2="74.1282" y2="36.0818" gradientTransform="matrix(1 0 0 -1 0 46)">
			<stop  offset="0" style="stop-color:#001C7C"/>
			<stop  offset="7.330000e-02" style="stop-color:#0057A9"/>
			<stop  offset="0.1566" style="stop-color:#0094D7"/>
			<stop  offset="0.2179" style="stop-color:#00BAF4"/>
			<stop  offset="0.25" style="stop-color:#00C9FF"/>
			<stop  offset="0.5" style="stop-color:#3F9CFF"/>
			<stop  offset="0.7404" style="stop-color:#03C7FF"/>
			<stop  offset="0.75" style="stop-color:#00C9FF"/>
			<stop  offset="0.7881" style="stop-color:#00B5F0"/>
			<stop  offset="0.866" style="stop-color:#0081C9"/>
			<stop  offset="0.9762" style="stop-color:#002F8A"/>
			<stop  offset="1" style="stop-color:#001C7C"/>
		</linearGradient>
		<path class="st5" d="M74.1,10L74,11.1c0.2,0,0.4,0,0.5,0l0.4-1.2C74.6,9.8,74.3,9.9,74.1,10z"/>
		
			<linearGradient id="SVGID_4_" gradientUnits="userSpaceOnUse" x1="71.967" y1="34.6233" x2="71.6452" y2="35.1808" gradientTransform="matrix(1 0 0 -1 0 46)">
			<stop  offset="0" style="stop-color:#001C7C"/>
			<stop  offset="7.330000e-02" style="stop-color:#0057A9"/>
			<stop  offset="0.1566" style="stop-color:#0094D7"/>
			<stop  offset="0.2179" style="stop-color:#00BAF4"/>
			<stop  offset="0.25" style="stop-color:#00C9FF"/>
			<stop  offset="0.5" style="stop-color:#3F9CFF"/>
			<stop  offset="0.7404" style="stop-color:#03C7FF"/>
			<stop  offset="0.75" style="stop-color:#00C9FF"/>
			<stop  offset="0.7881" style="stop-color:#00B5F0"/>
			<stop  offset="0.866" style="stop-color:#0081C9"/>
			<stop  offset="0.9762" style="stop-color:#002F8A"/>
			<stop  offset="1" style="stop-color:#001C7C"/>
		</linearGradient>
		<path class="st6" d="M71.5,10.9l0.2,0.5c0,0,0.1,0,0.4-0.1v-0.7C71.8,10.8,71.6,10.8,71.5,10.9z"/>
		
			<linearGradient id="SVGID_5_" gradientUnits="userSpaceOnUse" x1="76.101" y1="35.1937" x2="75.4669" y2="36.2921" gradientTransform="matrix(1 0 0 -1 0 46)">
			<stop  offset="0" style="stop-color:#001C7C"/>
			<stop  offset="7.330000e-02" style="stop-color:#0057A9"/>
			<stop  offset="0.1566" style="stop-color:#0094D7"/>
			<stop  offset="0.2179" style="stop-color:#00BAF4"/>
			<stop  offset="0.25" style="stop-color:#00C9FF"/>
			<stop  offset="0.5" style="stop-color:#3F9CFF"/>
			<stop  offset="0.7404" style="stop-color:#03C7FF"/>
			<stop  offset="0.75" style="stop-color:#00C9FF"/>
			<stop  offset="0.7881" style="stop-color:#00B5F0"/>
			<stop  offset="0.866" style="stop-color:#0081C9"/>
			<stop  offset="0.9762" style="stop-color:#002F8A"/>
			<stop  offset="1" style="stop-color:#001C7C"/>
		</linearGradient>
		<path class="st7" d="M75.5,9.7L75.2,11c0.2,0,0.4,0,0.6,0l0.7-1.4C76.2,9.6,75.8,9.6,75.5,9.7z"/>
		
			<linearGradient id="SVGID_6_" gradientUnits="userSpaceOnUse" x1="81.1409" y1="34.035" x2="80.131" y2="35.7841" gradientTransform="matrix(1 0 0 -1 0 46)">
			<stop  offset="0" style="stop-color:#001C7C"/>
			<stop  offset="7.330000e-02" style="stop-color:#0057A9"/>
			<stop  offset="0.1566" style="stop-color:#0094D7"/>
			<stop  offset="0.2179" style="stop-color:#00BAF4"/>
			<stop  offset="0.25" style="stop-color:#00C9FF"/>
			<stop  offset="0.5" style="stop-color:#3F9CFF"/>
			<stop  offset="0.7404" style="stop-color:#03C7FF"/>
			<stop  offset="0.75" style="stop-color:#00C9FF"/>
			<stop  offset="0.7881" style="stop-color:#00B5F0"/>
			<stop  offset="0.866" style="stop-color:#0081C9"/>
			<stop  offset="0.9762" style="stop-color:#002F8A"/>
			<stop  offset="1" style="stop-color:#001C7C"/>
		</linearGradient>
		<path class="st8" d="M80.7,9.9l-1.8,2.1c0.3,0.2,0.7,0.4,1,0.7l2.8-1.9C82.1,10.4,81.5,10.1,80.7,9.9z"/>
		
			<linearGradient id="SVGID_7_" gradientUnits="userSpaceOnUse" x1="79.2547" y1="34.7553" x2="78.4156" y2="36.2086" gradientTransform="matrix(1 0 0 -1 0 46)">
			<stop  offset="0" style="stop-color:#001C7C"/>
			<stop  offset="7.330000e-02" style="stop-color:#0057A9"/>
			<stop  offset="0.1566" style="stop-color:#0094D7"/>
			<stop  offset="0.2179" style="stop-color:#00BAF4"/>
			<stop  offset="0.25" style="stop-color:#00C9FF"/>
			<stop  offset="0.5" style="stop-color:#3F9CFF"/>
			<stop  offset="0.7404" style="stop-color:#03C7FF"/>
			<stop  offset="0.75" style="stop-color:#00C9FF"/>
			<stop  offset="0.7881" style="stop-color:#00B5F0"/>
			<stop  offset="0.866" style="stop-color:#0081C9"/>
			<stop  offset="0.9762" style="stop-color:#002F8A"/>
			<stop  offset="1" style="stop-color:#001C7C"/>
		</linearGradient>
		<path class="st9" d="M80.1,9.8c0,0-0.5-0.1-1.4-0.2l-1.2,1.8c0.1,0.1,0.3,0.1,0.4,0.2c0,0,0.2,0.1,0.4,0.2L80.1,9.8
			C80.2,9.8,80.2,9.8,80.1,9.8z"/>
		
			<linearGradient id="SVGID_8_" gradientUnits="userSpaceOnUse" x1="77.5525" y1="35.1425" x2="76.8507" y2="36.358" gradientTransform="matrix(1 0 0 -1 0 46)">
			<stop  offset="0" style="stop-color:#001C7C"/>
			<stop  offset="7.330000e-02" style="stop-color:#0057A9"/>
			<stop  offset="0.1566" style="stop-color:#0094D7"/>
			<stop  offset="0.2179" style="stop-color:#00BAF4"/>
			<stop  offset="0.25" style="stop-color:#00C9FF"/>
			<stop  offset="0.5" style="stop-color:#3F9CFF"/>
			<stop  offset="0.7404" style="stop-color:#03C7FF"/>
			<stop  offset="0.75" style="stop-color:#00C9FF"/>
			<stop  offset="0.7881" style="stop-color:#00B5F0"/>
			<stop  offset="0.866" style="stop-color:#0081C9"/>
			<stop  offset="0.9762" style="stop-color:#002F8A"/>
			<stop  offset="1" style="stop-color:#001C7C"/>
		</linearGradient>
		<path class="st10" d="M77,9.5l-0.7,1.6c0.2,0,0.4,0.1,0.6,0.1l1.2-1.7C77.8,9.5,77.4,9.5,77,9.5z"/>
		
			<linearGradient id="SVGID_9_" gradientUnits="userSpaceOnUse" x1="83.3004" y1="31.9337" x2="81.9046" y2="34.3514" gradientTransform="matrix(1 0 0 -1 0 46)">
			<stop  offset="0" style="stop-color:#001C7C"/>
			<stop  offset="7.330000e-02" style="stop-color:#0057A9"/>
			<stop  offset="0.1566" style="stop-color:#0094D7"/>
			<stop  offset="0.2179" style="stop-color:#00BAF4"/>
			<stop  offset="0.25" style="stop-color:#00C9FF"/>
			<stop  offset="0.5" style="stop-color:#3F9CFF"/>
			<stop  offset="0.7404" style="stop-color:#03C7FF"/>
			<stop  offset="0.75" style="stop-color:#00C9FF"/>
			<stop  offset="0.7881" style="stop-color:#00B5F0"/>
			<stop  offset="0.866" style="stop-color:#0081C9"/>
			<stop  offset="0.9762" style="stop-color:#002F8A"/>
			<stop  offset="1" style="stop-color:#001C7C"/>
		</linearGradient>
		<path class="st11" d="M83.1,11l-2.8,2.1c0.3,0.4,0.7,0.9,0.9,1.4l3.9-1.5C84.7,12.4,84.1,11.6,83.1,11z"/>
		
			<linearGradient id="SVGID_10_" gradientUnits="userSpaceOnUse" x1="84.8824" y1="28.354" x2="82.86" y2="31.8568" gradientTransform="matrix(1 0 0 -1 0 46)">
			<stop  offset="0" style="stop-color:#001C7C"/>
			<stop  offset="7.330000e-02" style="stop-color:#0057A9"/>
			<stop  offset="0.1566" style="stop-color:#0094D7"/>
			<stop  offset="0.2179" style="stop-color:#00BAF4"/>
			<stop  offset="0.25" style="stop-color:#00C9FF"/>
			<stop  offset="0.5" style="stop-color:#3F9CFF"/>
			<stop  offset="0.7404" style="stop-color:#03C7FF"/>
			<stop  offset="0.75" style="stop-color:#00C9FF"/>
			<stop  offset="0.7881" style="stop-color:#00B5F0"/>
			<stop  offset="0.866" style="stop-color:#0081C9"/>
			<stop  offset="0.9762" style="stop-color:#002F8A"/>
			<stop  offset="1" style="stop-color:#001C7C"/>
		</linearGradient>
		<path class="st12" d="M85.6,13.9c0,0-0.1-0.2-0.3-0.6l-4,1.7c0.1,0.2,0.1,0.5,0.1,0.8l0,0l3.1-1.2c0.2-0.1,0.4,0,0.5,0.2l0,0
			c0.2,0.4,0,0.9-0.4,1.1l-2.9,1.4L86,17C86.1,16,86,14.9,85.6,13.9z"/>
		
			<linearGradient id="SVGID_11_" gradientUnits="userSpaceOnUse" x1="84.2884" y1="25.1171" x2="82.2226" y2="28.6951" gradientTransform="matrix(1 0 0 -1 0 46)">
			<stop  offset="0" style="stop-color:#001C7C"/>
			<stop  offset="7.330000e-02" style="stop-color:#0057A9"/>
			<stop  offset="0.1566" style="stop-color:#0094D7"/>
			<stop  offset="0.2179" style="stop-color:#00BAF4"/>
			<stop  offset="0.25" style="stop-color:#00C9FF"/>
			<stop  offset="0.5" style="stop-color:#3F9CFF"/>
			<stop  offset="0.7404" style="stop-color:#03C7FF"/>
			<stop  offset="0.75" style="stop-color:#00C9FF"/>
			<stop  offset="0.7881" style="stop-color:#00B5F0"/>
			<stop  offset="0.866" style="stop-color:#0081C9"/>
			<stop  offset="0.9762" style="stop-color:#002F8A"/>
			<stop  offset="1" style="stop-color:#001C7C"/>
		</linearGradient>
		<path class="st13" d="M80.2,20.2l4.7,0.4c0,0,0.8-1.4,1.1-3.1l-4.7,0.5C81.1,18.5,80.8,19.3,80.2,20.2z"/>
	</g>
</g>
</svg>
